<?xml version="1.0" encoding="utf-8"?>
<!-- Generator: Adobe Illustrator 20.1.0, SVG Export Plug-In . SVG Version: 6.00 Build 0)  -->
<svg version="1.1" id="Layer_1" xmlns="http://www.w3.org/2000/svg" xmlns:xlink="http://www.w3.org/1999/xlink" x="0px" y="0px"
	 viewBox="0 0 150 150" style="enable-background:new 0 0 150 150;" xml:space="preserve">
<style type="text/css">
	.st0{fill:#432DE0;}
	.st1{fill:#27E774;}
</style>
<rect x="900.7" y="-645.4" class="st0" width="15" height="15"/>
<g>
	<path d="M1276-882.2h-7.1l-1.1,3.6h-4.7l6.9-18.6h5l6.9,18.6h-4.7L1276-882.2z M1270.1-885.9h4.8l-2.4-7.9L1270.1-885.9z"/>
	<path d="M1283.9-898.4h4.5v7.1c0.4-0.4,0.9-0.7,1.4-1c0.6-0.3,1.2-0.4,2.1-0.4c0.9,0,1.7,0.2,2.4,0.5c0.7,0.3,1.3,0.8,1.9,1.5
		c0.5,0.6,0.9,1.4,1.2,2.2c0.3,0.9,0.4,1.8,0.4,2.8c0,1-0.2,1.9-0.5,2.8c-0.3,0.9-0.8,1.7-1.5,2.3c-0.7,0.7-1.5,1.2-2.5,1.6
		c-1,0.4-2.1,0.6-3.5,0.6c-1.1,0-2.2-0.1-3.2-0.4c-1-0.2-1.9-0.6-2.8-1V-898.4z M1290.6-889.2c-0.8,0-1.6,0.3-2.2,0.8v6.5
		c0.2,0.1,0.4,0.2,0.7,0.2c0.3,0.1,0.6,0.1,0.9,0.1c0.6,0,1.1-0.1,1.5-0.3c0.4-0.2,0.8-0.5,1-0.8c0.3-0.4,0.5-0.8,0.6-1.2
		c0.1-0.5,0.2-1,0.2-1.5c0-1.1-0.2-2-0.7-2.7C1292.2-888.9,1291.5-889.2,1290.6-889.2z"/>
	<path d="M1309.1-892.3l-0.1,3.8h-0.5c-1.8,0-3,0.4-3.8,1.3v8.5h-4.5v-9.4c0-2.4,1.9-4.3,4.3-4.3l0,0l0,0h1.3L1309.1-892.3z"/>
	<path d="M1310.8-878.6v-13.7h4.5v13.7H1310.8z"/>
	<path d="M1331.6-878.6h-4.3v-1.7c-0.4,0.6-1,1.1-1.7,1.5c-0.7,0.4-1.5,0.5-2.5,0.5c-0.8,0-1.5-0.2-2.2-0.5
		c-0.7-0.3-1.3-0.8-1.8-1.4c-0.5-0.6-0.9-1.3-1.2-2.2c-0.3-0.9-0.4-1.8-0.4-2.9c0-1.2,0.2-2.2,0.6-3.2c0.4-0.9,0.9-1.7,1.5-2.3
		c0.6-0.6,1.4-1.1,2.3-1.4c0.9-0.3,1.8-0.5,2.7-0.5c0.5,0,0.9,0,1.3,0.1c0.4,0.1,0.7,0.1,1,0.2v-6.1h4.5V-878.6z M1324.8-881.7
		c1,0,1.7-0.3,2.3-1v-6.3c-0.4-0.1-0.9-0.2-1.6-0.2c-1.1,0-2,0.3-2.5,1c-0.6,0.7-0.8,1.6-0.8,2.8c0,1.1,0.2,1.9,0.6,2.6
		S1323.9-881.7,1324.8-881.7z"/>
	<path d="M1347.7-892.3v2.9h-2l0,0c0.2,0.6,0.3,1.1,0.3,1.6c0,0.6-0.1,1.2-0.4,1.8s-0.6,1.1-1.1,1.5s-1.1,0.8-1.8,1
		c-0.7,0.2-1.6,0.4-2.6,0.4h-0.2c-0.1,0.1-0.1,0.3-0.2,0.4c0,0.1-0.1,0.3-0.1,0.4c0,0.3,0.1,0.5,0.3,0.6c0.2,0.1,0.4,0.2,0.7,0.2
		l2.4,0.1c1.4,0.1,2.5,0.5,3.3,1.1s1.2,1.6,1.2,2.8c0,0.9-0.2,1.6-0.7,2.3c-0.5,0.6-1.1,1.2-1.8,1.6c-0.8,0.4-1.6,0.7-2.6,1
		c-1,0.2-1.9,0.3-2.9,0.3c-0.8,0-1.5-0.1-2.3-0.2c-0.7-0.1-1.4-0.3-2-0.6c-0.6-0.3-1-0.6-1.4-1.1c-0.4-0.4-0.5-1-0.5-1.7
		c0-0.4,0.1-0.8,0.3-1.1s0.4-0.6,0.8-0.9s0.7-0.4,1.1-0.6c0.4-0.2,0.8-0.3,1.3-0.4c-0.8-0.4-1.2-1-1.2-1.9c0-0.4,0.1-0.7,0.2-1
		c0.1-0.3,0.3-0.5,0.5-0.7c0.2-0.2,0.4-0.4,0.7-0.6s0.5-0.3,0.7-0.4c-1.2-0.3-2.1-0.9-2.7-1.6c-0.6-0.8-0.9-1.7-0.9-2.7
		c0-0.7,0.1-1.3,0.4-1.9s0.6-1.1,1.1-1.5c0.5-0.4,1.1-0.8,1.8-1c0.7-0.2,1.6-0.4,2.6-0.4c0.4,0,0.8,0,1.2,0.1c0.4,0,0.7,0.1,1,0.2
		H1347.7z M1338.8-878.6c-0.2,0.2-0.5,0.4-0.7,0.6c-0.2,0.2-0.4,0.6-0.4,1c0,0.5,0.2,0.9,0.7,1.1c0.4,0.2,1,0.4,1.8,0.4
		c0.4,0,0.8,0,1.2-0.1c0.4-0.1,0.8-0.2,1.1-0.4c0.3-0.2,0.6-0.3,0.8-0.6c0.2-0.2,0.3-0.5,0.3-0.7c0-0.3-0.1-0.6-0.4-0.7
		c-0.2-0.1-0.6-0.2-1.1-0.3L1338.8-878.6z M1340.1-886c0.7,0,1.1-0.2,1.5-0.5c0.3-0.3,0.5-0.8,0.5-1.4c0-0.6-0.2-1.1-0.5-1.4
		s-0.8-0.5-1.5-0.5c-0.7,0-1.1,0.2-1.5,0.5s-0.5,0.8-0.5,1.4c0,0.6,0.2,1.1,0.5,1.4C1339-886.2,1339.5-886,1340.1-886z"/>
	<path d="M1355.8-892.6c1.8,0,3.2,0.5,4.3,1.6c1,1.1,1.6,2.5,1.6,4.4c0,0.7-0.1,1.5-0.3,2.3h-8c0,0.8,0.3,1.5,0.9,2
		c0.5,0.5,1.3,0.8,2.5,0.8c0.7,0,1.4-0.1,2.1-0.2c0.7-0.1,1.4-0.3,1.9-0.5l0.6,2.9c-0.7,0.4-1.5,0.6-2.4,0.8
		c-0.9,0.2-1.8,0.3-2.8,0.3c-1.2,0-2.2-0.2-3.2-0.5c-0.9-0.3-1.7-0.8-2.3-1.4c-0.6-0.6-1.1-1.4-1.4-2.2c-0.3-0.9-0.5-1.8-0.5-2.9
		c0-1.1,0.2-2.1,0.5-3s0.8-1.7,1.4-2.3c0.6-0.6,1.3-1.1,2.2-1.4C1353.8-892.4,1354.8-892.6,1355.8-892.6z M1355.7-889.8
		c-0.7,0-1.3,0.2-1.6,0.7c-0.4,0.5-0.6,1.1-0.6,1.9h4c0-0.1,0.1-0.3,0.1-0.5c0-0.6-0.2-1.1-0.5-1.5
		C1356.7-889.6,1356.3-889.8,1355.7-889.8z"/>
	<path d="M1377.3-878.6h-4.3v-1.7c-0.4,0.6-1,1.1-1.7,1.5c-0.7,0.4-1.5,0.5-2.5,0.5c-0.8,0-1.5-0.2-2.2-0.5
		c-0.7-0.3-1.3-0.8-1.8-1.4c-0.5-0.6-0.9-1.3-1.2-2.2c-0.3-0.9-0.4-1.8-0.4-2.9c0-1.2,0.2-2.2,0.6-3.2c0.4-0.9,0.9-1.7,1.5-2.3
		c0.6-0.6,1.4-1.1,2.3-1.4c0.9-0.3,1.8-0.5,2.7-0.5c0.5,0,0.9,0,1.3,0.1c0.4,0.1,0.7,0.1,1,0.2v-6.1h4.5V-878.6z M1370.5-881.7
		c1,0,1.7-0.3,2.3-1v-6.3c-0.4-0.1-0.9-0.2-1.6-0.2c-1.1,0-2,0.3-2.5,1c-0.6,0.7-0.8,1.6-0.8,2.8c0,1.1,0.2,1.9,0.6,2.6
		S1369.6-881.7,1370.5-881.7z"/>
</g>
<g>
	<path d="M1276.7-530.3h-7.1l-1.1,3.6h-4.7l6.9-18.6h5l6.9,18.6h-4.7L1276.7-530.3z M1270.8-533.9h4.8l-2.4-7.9L1270.8-533.9z"/>
	<path d="M1283.9-546.5h4.5v7.1c0.4-0.4,0.9-0.7,1.4-1c0.6-0.3,1.2-0.4,2.1-0.4c0.9,0,1.7,0.2,2.4,0.5c0.7,0.3,1.3,0.8,1.9,1.5
		c0.5,0.6,0.9,1.4,1.2,2.2c0.3,0.9,0.4,1.8,0.4,2.8c0,1-0.2,1.9-0.5,2.8c-0.3,0.9-0.8,1.7-1.5,2.3c-0.7,0.7-1.5,1.2-2.5,1.6
		c-1,0.4-2.1,0.6-3.5,0.6c-1.1,0-2.2-0.1-3.2-0.4c-1-0.2-1.9-0.6-2.8-1V-546.5z M1290.6-537.3c-0.8,0-1.6,0.3-2.2,0.8v6.5
		c0.2,0.1,0.4,0.2,0.7,0.2c0.3,0.1,0.6,0.1,0.9,0.1c0.6,0,1.1-0.1,1.5-0.3c0.4-0.2,0.8-0.5,1-0.8c0.3-0.4,0.5-0.8,0.6-1.2
		c0.1-0.5,0.2-1,0.2-1.5c0-1.1-0.2-2-0.7-2.7C1292.2-536.9,1291.5-537.3,1290.6-537.3z"/>
	<path d="M1309.4-526.7v-8.3l4.3-5.1c0.1-0.1,0.2,0,0.2,0.1v13.3H1309.4z"/>
	<path d="M1329.5-526.7h-4.3v-1.7c-0.4,0.6-1,1.1-1.7,1.5c-0.7,0.4-1.5,0.5-2.5,0.5c-0.8,0-1.5-0.2-2.2-0.5
		c-0.7-0.3-1.3-0.8-1.8-1.4c-0.5-0.6-0.9-1.3-1.2-2.2c-0.3-0.9-0.4-1.8-0.4-2.9c0-1.2,0.2-2.2,0.6-3.2c0.4-0.9,0.9-1.7,1.5-2.3
		c0.6-0.6,1.4-1.1,2.3-1.4c0.9-0.3,1.8-0.5,2.7-0.5c0.5,0,0.9,0,1.3,0.1c0.4,0.1,0.7,0.1,1,0.2v-6.1h4.5V-526.7z M1322.7-529.8
		c1,0,1.7-0.3,2.3-1v-6.3c-0.4-0.1-0.9-0.2-1.6-0.2c-1.1,0-2,0.3-2.5,1c-0.6,0.7-0.8,1.6-0.8,2.8c0,1.1,0.2,1.9,0.6,2.6
		S1321.8-529.8,1322.7-529.8z"/>
	<path d="M1344.9-540.4v2.9h-2l0,0c0.2,0.6,0.3,1.1,0.3,1.6c0,0.6-0.1,1.2-0.4,1.8s-0.6,1.1-1.1,1.5s-1.1,0.8-1.8,1
		c-0.7,0.2-1.6,0.4-2.6,0.4h-0.2c-0.1,0.1-0.1,0.3-0.2,0.4c0,0.1-0.1,0.3-0.1,0.4c0,0.3,0.1,0.5,0.3,0.6c0.2,0.1,0.4,0.2,0.7,0.2
		l2.4,0.1c1.4,0.1,2.5,0.5,3.3,1.1s1.2,1.6,1.2,2.8c0,0.9-0.2,1.6-0.7,2.3c-0.5,0.6-1.1,1.2-1.8,1.6c-0.8,0.4-1.6,0.7-2.6,1
		c-1,0.2-1.9,0.3-2.9,0.3c-0.8,0-1.5-0.1-2.3-0.2c-0.7-0.1-1.4-0.3-2-0.6c-0.6-0.3-1-0.6-1.4-1.1c-0.4-0.4-0.5-1-0.5-1.7
		c0-0.4,0.1-0.8,0.3-1.1s0.4-0.6,0.8-0.9s0.7-0.4,1.1-0.6c0.4-0.2,0.8-0.3,1.3-0.4c-0.8-0.4-1.2-1-1.2-1.9c0-0.4,0.1-0.7,0.2-1
		c0.1-0.3,0.3-0.5,0.5-0.7c0.2-0.2,0.4-0.4,0.7-0.6s0.5-0.3,0.7-0.4c-1.2-0.3-2.1-0.9-2.7-1.6c-0.6-0.8-0.9-1.7-0.9-2.7
		c0-0.7,0.1-1.3,0.4-1.9s0.6-1.1,1.1-1.5c0.5-0.4,1.1-0.8,1.8-1c0.7-0.2,1.6-0.4,2.6-0.4c0.4,0,0.8,0,1.2,0.1c0.4,0,0.7,0.1,1,0.2
		H1344.9z M1336-526.6c-0.2,0.2-0.5,0.4-0.7,0.6c-0.2,0.2-0.4,0.6-0.4,1c0,0.5,0.2,0.9,0.7,1.1c0.4,0.2,1,0.4,1.8,0.4
		c0.4,0,0.8,0,1.2-0.1c0.4-0.1,0.8-0.2,1.1-0.4c0.3-0.2,0.6-0.3,0.8-0.6c0.2-0.2,0.3-0.5,0.3-0.7c0-0.3-0.1-0.6-0.4-0.7
		c-0.2-0.1-0.6-0.2-1.1-0.3L1336-526.6z M1337.3-534.1c0.7,0,1.1-0.2,1.5-0.5c0.3-0.3,0.5-0.8,0.5-1.4c0-0.6-0.2-1.1-0.5-1.4
		s-0.8-0.5-1.5-0.5c-0.7,0-1.1,0.2-1.5,0.5s-0.5,0.8-0.5,1.4c0,0.6,0.2,1.1,0.5,1.4C1336.2-534.2,1336.7-534.1,1337.3-534.1z"/>
	<path d="M1352.3-540.7c1.8,0,3.2,0.5,4.3,1.6c1,1.1,1.6,2.5,1.6,4.4c0,0.7-0.1,1.5-0.3,2.3h-8c0,0.8,0.3,1.5,0.9,2
		c0.5,0.5,1.3,0.8,2.5,0.8c0.7,0,1.4-0.1,2.1-0.2c0.7-0.1,1.4-0.3,1.9-0.5l0.6,2.9c-0.7,0.4-1.5,0.6-2.4,0.8
		c-0.9,0.2-1.8,0.3-2.8,0.3c-1.2,0-2.2-0.2-3.2-0.5c-0.9-0.3-1.7-0.8-2.3-1.4c-0.6-0.6-1.1-1.4-1.4-2.2c-0.3-0.9-0.5-1.8-0.5-2.9
		c0-1.1,0.2-2.1,0.5-3s0.8-1.7,1.4-2.3c0.6-0.6,1.3-1.1,2.2-1.4C1350.3-540.5,1351.3-540.7,1352.3-540.7z M1352.2-537.8
		c-0.7,0-1.3,0.2-1.6,0.7c-0.4,0.5-0.6,1.1-0.6,1.9h4c0-0.1,0.1-0.3,0.1-0.5c0-0.6-0.2-1.1-0.5-1.5
		C1353.2-537.6,1352.8-537.8,1352.2-537.8z"/>
	<path d="M1373.1-526.7h-4.3v-1.7c-0.4,0.6-1,1.1-1.7,1.5c-0.7,0.4-1.5,0.5-2.5,0.5c-0.8,0-1.5-0.2-2.2-0.5
		c-0.7-0.3-1.3-0.8-1.8-1.4c-0.5-0.6-0.9-1.3-1.2-2.2c-0.3-0.9-0.4-1.8-0.4-2.9c0-1.2,0.2-2.2,0.6-3.2c0.4-0.9,0.9-1.7,1.5-2.3
		c0.6-0.6,1.4-1.1,2.3-1.4c0.9-0.3,1.8-0.5,2.7-0.5c0.5,0,0.9,0,1.3,0.1c0.4,0.1,0.7,0.1,1,0.2v-6.1h4.5V-526.7z M1366.3-529.8
		c1,0,1.7-0.3,2.3-1v-6.3c-0.4-0.1-0.9-0.2-1.6-0.2c-1.1,0-2,0.3-2.5,1c-0.6,0.7-0.8,1.6-0.8,2.8c0,1.1,0.2,1.9,0.6,2.6
		S1365.4-529.8,1366.3-529.8z"/>
	<path d="M1306.9-536.5L1306.9-536.5c-1.9,0-2.1,0.6-2.8,1.5v8.3h-4.5v-9.4c0-2.4,1.9-4.3,4.3-4.3l0,0l0,0h1.3h5.1L1306.9-536.5z"/>
</g>
<g>
	<path d="M1272.7-426.1h-7.1l-1.1,3.6h-4.7l6.9-18.6h5l6.9,18.6h-4.7L1272.7-426.1z M1266.7-429.8h4.8l-2.4-7.9L1266.7-429.8z"/>
	<path d="M1279.9-442.3h4.5v7.1c0.4-0.4,0.9-0.7,1.4-1c0.6-0.3,1.2-0.4,2.1-0.4c0.9,0,1.7,0.2,2.4,0.5c0.7,0.3,1.3,0.8,1.9,1.5
		c0.5,0.6,0.9,1.4,1.2,2.2c0.3,0.9,0.4,1.8,0.4,2.8c0,1-0.2,1.9-0.5,2.8c-0.3,0.9-0.8,1.7-1.5,2.3c-0.7,0.7-1.5,1.2-2.5,1.6
		c-1,0.4-2.1,0.6-3.5,0.6c-1.1,0-2.2-0.1-3.2-0.4c-1-0.2-1.9-0.6-2.8-1V-442.3z M1286.5-433.1c-0.8,0-1.6,0.3-2.2,0.8v6.5
		c0.2,0.1,0.4,0.2,0.7,0.2c0.3,0.1,0.6,0.1,0.9,0.1c0.6,0,1.1-0.1,1.5-0.3c0.4-0.2,0.8-0.5,1-0.8c0.3-0.4,0.5-0.8,0.6-1.2
		c0.1-0.5,0.2-1,0.2-1.5c0-1.1-0.2-2-0.7-2.7C1288.2-432.8,1287.5-433.1,1286.5-433.1z"/>
	<path d="M1305.4-422.5v-8.3l4.3-5.1c0.1-0.1,0.2,0,0.2,0.1v13.3H1305.4z"/>
	<path d="M1325.5-422.5h-4.3v-1.7c-0.4,0.6-1,1.1-1.7,1.5c-0.7,0.4-1.5,0.5-2.5,0.5c-0.8,0-1.5-0.2-2.2-0.5
		c-0.7-0.3-1.3-0.8-1.8-1.4c-0.5-0.6-0.9-1.3-1.2-2.2c-0.3-0.9-0.4-1.8-0.4-2.9c0-1.2,0.2-2.2,0.6-3.2c0.4-0.9,0.9-1.7,1.5-2.3
		c0.6-0.6,1.4-1.1,2.3-1.4c0.9-0.3,1.8-0.5,2.7-0.5c0.5,0,0.9,0,1.3,0.1c0.4,0.1,0.7,0.1,1,0.2v-6.1h4.5V-422.5z M1318.7-425.6
		c1,0,1.7-0.3,2.3-1v-6.3c-0.4-0.1-0.9-0.2-1.6-0.2c-1.1,0-2,0.3-2.5,1c-0.6,0.7-0.8,1.6-0.8,2.8c0,1.1,0.2,1.9,0.6,2.6
		S1317.8-425.6,1318.7-425.6z"/>
	<path d="M1330.1-422.9c-0.8-0.4-1.2-1-1.2-1.9c0-0.4,0.1-0.7,0.2-1c0.1-0.3,0.3-0.5,0.5-0.7c0.2-0.2,0.4-0.4,0.7-0.6
		s0.5-0.3,0.7-0.4c-1.2-0.3-2.1-0.9-2.7-1.6c-0.6-0.8-0.9-1.7-0.9-2.7c0-0.7,0.1-1.3,0.4-1.9s0.6-1.1,1.1-1.5c0.5-0.4,1.1-0.8,1.8-1
		c0.7-0.2,1.6-0.4,2.6-0.4c0.4,0,0.8,0,1.2,0.1c0.4,0,0.7,0.1,1,0.2h5.5v2.9h-2l0,0c0.2,0.6,0.3,1.1,0.3,1.6c0,0.6-0.1,1.2-0.4,1.8
		s-0.6,1.1-1.1,1.5s-1.1,0.8-1.8,1c-0.7,0.2-1.6,0.4-2.6,0.4h-0.2c-0.1,0.1-0.1,0.3-0.2,0.4c0,0.1-0.1,0.3-0.1,0.4
		c0,0.3,0.1,0.5,0.3,0.6c0.2,0.1,0.4,0.2,0.7,0.2l2.4,0.1c1.4,0.1,2.5,0.5,3.3,1.1s1.2,1.6,1.2,2.8c0,0.9-0.2,1.6-0.7,2.3
		c-0.5,0.6-1.1,1.2-1.8,1.6c-0.8,0.4-1.6,0.7-2.6,1c-1,0.2-70,0.3-71,0.3c-0.8,0-1.5-0.1-2.3-0.2c-0.7-0.1-1.4-0.3-2-0.6
		c-0.6-0.3-1-0.6-1.4-1.1c-0.4-0.4-0.5-0.9-0.5-1.6c0,0,0,0.2,0.1-0.1l5.1,0l0.3,0c0,0,0.4,0,1.1,0c0.4,0,68.9-0.1,69.3-0.1
		c0.4,0,0.7,0,1.1,0c0.4-0.1,0.6-0.2,0.8-0.4c0.2-0.2,0.3-0.5,0.3-0.7c0-0.3-0.1-0.6-0.4-0.7c-0.2-0.1-0.6-0.2-1.1-0.3l-3.3-0.3
		 M1333.3-429.9c0.7,0,1.1-0.2,1.5-0.5c0.3-0.3,0.5-0.8,0.5-1.4c0-0.6-0.2-1.1-0.5-1.4s-0.8-0.5-1.5-0.5c-0.7,0-1.1,0.2-1.5,0.5
		s-0.5,0.8-0.5,1.4c0,0.6,0.2,1.1,0.5,1.4C1332.1-430.1,1332.6-429.9,1333.3-429.9z"/>
	<path d="M1345.4-419.9c0.8,0,18.1,0,18.1,0l0.3,0l5.1,0c0.2,0.3,0.1,0.1,0.1,0.1c0,0.7-0.1,1.1-0.5,1.6c-0.4,0.4-0.8,0.8-1.4,1.1
		c-0.6,0.3-1.2,0.5-2,0.6c-0.7,0.1-21.8,0.2-22.6,0.2L1345.4-419.9z"/>
	<path d="M1348.3-436.5c1.8,0,3.2,0.5,4.3,1.6c1,1.1,1.6,2.5,1.6,4.4c0,0.7-0.1,1.5-0.3,2.3h-8c0,0.8,0.3,1.5,0.9,2
		c0.5,0.5,1.3,0.8,2.5,0.8c0.7,0,1.4-0.1,2.1-0.2c0.7-0.1,1.4-0.3,1.9-0.5l0.6,2.9c-0.7,0.4-1.5,0.6-2.4,0.8
		c-0.9,0.2-1.8,0.3-2.8,0.3c-1.2,0-2.2-0.2-3.2-0.5c-0.9-0.3-1.7-0.8-2.3-1.4c-0.6-0.6-1.1-1.4-1.4-2.2c-0.3-0.9-0.5-1.8-0.5-2.9
		c0-1.1,0.2-2.1,0.5-3s0.8-1.7,1.4-2.3c0.6-0.6,1.3-1.1,2.2-1.4C1346.3-436.3,1347.2-436.5,1348.3-436.5z M1348.2-433.7
		c-0.7,0-1.3,0.2-1.6,0.7c-0.4,0.5-0.6,1.1-0.6,1.9h4c0-0.1,0.1-0.3,0.1-0.5c0-0.6-0.2-1.1-0.5-1.5
		C1349.2-433.5,1348.8-433.7,1348.2-433.7z"/>
	<path d="M1369.1-422.5h-4.3v-1.7c-0.4,0.6-1,1.1-1.7,1.5c-0.7,0.4-1.5,0.5-2.5,0.5c-0.8,0-1.5-0.2-2.2-0.5
		c-0.7-0.3-1.3-0.8-1.8-1.4c-0.5-0.6-0.9-1.3-1.2-2.2c-0.3-0.9-0.4-1.8-0.4-2.9c0-1.2,0.2-2.2,0.6-3.2c0.4-0.9,0.9-1.7,1.5-2.3
		c0.6-0.6,1.4-1.1,2.3-1.4c0.9-0.3,1.8-0.5,2.7-0.5c0.5,0,0.9,0,1.3,0.1c0.4,0.1,0.7,0.1,1,0.2v-6.1h4.5V-422.5z M1362.3-425.6
		c1,0,1.7-0.3,2.3-1v-6.3c-0.4-0.1-0.9-0.2-1.6-0.2c-1.1,0-2,0.3-2.5,1c-0.6,0.7-0.8,1.6-0.8,2.8c0,1.1,0.2,1.9,0.6,2.6
		S1361.4-425.6,1362.3-425.6z"/>
	<path d="M1302.9-432.3L1302.9-432.3c-1.9,0-2.1,0.6-2.8,1.5v8.3h-4.5v-9.4c0-2.4,1.9-4.3,4.3-4.3l0,0l0,0h1.3h4.9L1302.9-432.3z"/>
</g>
<text transform="matrix(1 0 0 1 1262.9943 -771.7814)"><tspan x="0" y="0" style="font-family:'Seravek-Bold'; font-size:28px;">seravek </tspan><tspan x="0" y="33.6" style="font-family:'Seravek-Bold'; font-size:28px;">-25 leading</tspan></text>
<path d="M1330.1-422.9c0,0,0.5,0.3,1.9,0.5"/>
<g>
	<path d="M33.8,78.2h-7.1l-1.1,3.6h-4.7l6.9-18.6h5l6.9,18.6H35L33.8,78.2z M27.9,74.6h4.8l-2.4-7.9L27.9,74.6z"/>
	<path d="M41,62.1h4.5v7.1c0.4-0.4,0.9-0.7,1.4-1c0.6-0.3,1.2-0.4,2.1-0.4c0.9,0,1.7,0.2,2.4,0.5c0.7,0.3,1.3,0.8,1.9,1.5
		c0.5,0.6,0.9,1.4,1.2,2.2c0.3,0.9,0.4,1.8,0.4,2.8c0,1-0.2,1.9-0.5,2.8c-0.3,0.9-0.8,1.7-1.5,2.3c-0.7,0.7-1.5,1.2-2.5,1.6
		c-1,0.4-2.1,0.6-3.5,0.6c-1.1,0-2.2-0.1-3.2-0.4c-1-0.2-1.9-0.6-2.8-1V62.1z M47.7,71.3c-0.8,0-1.6,0.3-2.2,0.8v6.5
		c0.2,0.1,0.4,0.2,0.7,0.2c0.3,0.1,0.6,0.1,0.9,0.1c0.6,0,1.1-0.1,1.5-0.3c0.4-0.2,0.8-0.5,1-0.8c0.3-0.4,0.5-0.8,0.6-1.2
		c0.1-0.5,0.2-1,0.2-1.5c0-1.1-0.2-2-0.7-2.7C49.3,71.6,48.6,71.3,47.7,71.3z"/>
	<path d="M86.6,81.9h-4.3v-1.7c-0.4,0.6-1,1.1-1.7,1.5c-0.7,0.4-1.5,0.5-2.5,0.5c-0.8,0-1.5-0.2-2.2-0.5c-0.7-0.3-1.3-0.8-1.8-1.4
		c-0.5-0.6-0.9-1.3-1.2-2.2c-0.3-0.9-0.4-1.8-0.4-2.9c0-1.2,0.2-2.2,0.6-3.2c0.4-0.9,0.9-1.7,1.5-2.3c0.6-0.6,1.4-1.1,2.3-1.4
		c0.9-0.3,1.8-0.5,2.7-0.5c0.5,0,0.9,0,1.3,0.1c0.4,0.1,0.7,0.1,1,0.2v-6.1h4.5V81.9z M79.8,78.7c1,0,1.7-0.3,2.3-1v-6.3
		c-0.4-0.1-0.9-0.2-1.6-0.2c-1.1,0-2,0.3-2.5,1c-0.6,0.7-0.8,1.6-0.8,2.8c0,1.1,0.2,1.9,0.6,2.6S78.9,78.7,79.8,78.7z"/>
	<path d="M91.2,81.4c-0.8-0.4-1.2-1-1.2-1.9c0-0.4,0.1-0.7,0.2-1c0.1-0.3,0.3-0.5,0.5-0.7c0.2-0.2,0.4-0.4,0.7-0.6s0.5-0.3,0.7-0.4
		c-1.2-0.3-2.1-0.9-2.7-1.6c-0.6-0.8-0.9-1.7-0.9-2.7c0-0.7,0.1-1.3,0.4-1.9s0.6-1.1,1.1-1.5c0.5-0.4,1.1-0.8,1.8-1
		c0.7-0.2,1.6-0.4,2.6-0.4c0.4,0,0.8,0,1.2,0.1c0.4,0,0.7,0.1,1,0.2h5.5V71h-2l0,0c0.2,0.6,0.3,1.1,0.3,1.6c0,0.6-0.1,1.2-0.4,1.8
		s-0.6,1.1-1.1,1.5s-1.1,0.8-1.8,1c-0.7,0.2-1.6,0.4-2.6,0.4h-0.2c-0.1,0.1-0.1,0.3-0.2,0.4c0,0.1-0.1,0.3-0.1,0.4
		c0,0.3,0.1,0.5,0.3,0.6c0.2,0.1,0.4,0.2,0.7,0.2l2.4,0.1c1.4,0.1,2.5,0.5,3.3,1.1s1.2,1.6,1.2,2.8c0,0.9-0.2,1.6-0.7,2.3
		c-0.5,0.6-1.1,1.2-1.8,1.6c-0.8,0.4-1.6,0.7-2.6,1c-1,0.2-70,0.3-71,0.3c-0.8,0-1.5-0.1-2.3-0.2c-0.7-0.1-1.4-0.3-2-0.6
		c-0.6-0.3-1-0.6-1.4-1.1c-0.4-0.4-0.5-0.9-0.5-1.6c0,0,0,0.2,0.1-0.1l5.1,0l0.3,0c0,0,0.4,0,1.1,0c0.4,0,68.9-0.1,69.3-0.1
		c0.4,0,0.7,0,1.1,0c0.4-0.1,0.6-0.2,0.8-0.4c0.2-0.2,0.3-0.5,0.3-0.7c0-0.3-0.1-0.6-0.4-0.7c-0.2-0.1-0.6-0.2-1.1-0.3l-3.3-0.3
		 M94.4,74.5c0.7,0,1.1-0.2,1.5-0.5c0.3-0.3,0.5-0.8,0.5-1.4c0-0.6-0.2-1.1-0.5-1.4s-0.8-0.5-1.5-0.5c-0.7,0-1.1,0.2-1.5,0.5
		s-0.5,0.8-0.5,1.4c0,0.6,0.2,1.1,0.5,1.4C93.3,74.3,93.8,74.5,94.4,74.5z"/>
	<path d="M107.6,84.4c0.8,0,17.1,0,17.1,0l0.3,0l5.1,0c0.2,0.3,0.1,0.1,0.1,0.1c0,0.7-0.1,1.1-0.5,1.6c-0.4,0.4-0.8,0.8-1.4,1.1
		c-0.6,0.3-1.2,0.5-2,0.6c-0.7,0.1-20.8,0.2-21.6,0.2L107.6,84.4z"/>
	<path d="M109.4,67.9c1.8,0,3.2,0.5,4.3,1.6c1,1.1,1.6,2.5,1.6,4.4c0,0.7-0.1,1.5-0.3,2.3h-8c0,0.8,0.3,1.5,0.9,2
		c0.5,0.5,1.3,0.8,2.5,0.8c0.7,0,1.4-0.1,2.1-0.2c0.7-0.1,1.4-0.3,1.9-0.5L115,81c-0.7,0.4-1.5,0.6-2.4,0.8
		c-0.9,0.2-1.8,0.3-2.8,0.3c-1.2,0-2.2-0.2-3.2-0.5c-0.9-0.3-1.7-0.8-2.3-1.4c-0.6-0.6-1.1-1.4-1.4-2.2c-0.3-0.9-0.5-1.8-0.5-2.9
		c0-1.1,0.2-2.1,0.5-3s0.8-1.7,1.4-2.3c0.6-0.6,1.3-1.1,2.2-1.4C107.4,68,108.4,67.9,109.4,67.9z M109.3,70.7
		c-0.7,0-1.3,0.2-1.6,0.7c-0.4,0.5-0.6,1.1-0.6,1.9h4c0-0.1,0.1-0.3,0.1-0.5c0-0.6-0.2-1.1-0.5-1.5
		C110.3,70.9,109.9,70.7,109.3,70.7z"/>
	<path d="M130.2,81.9h-4.3v-1.7c-0.4,0.6-1,1.1-1.7,1.5c-0.7,0.4-1.5,0.5-2.5,0.5c-0.8,0-1.5-0.2-2.2-0.5c-0.7-0.3-1.3-0.8-1.8-1.4
		c-0.5-0.6-0.9-1.3-1.2-2.2c-0.3-0.9-0.4-1.8-0.4-2.9c0-1.2,0.2-2.2,0.6-3.2c0.4-0.9,0.9-1.7,1.5-2.3c0.6-0.6,1.4-1.1,2.3-1.4
		c0.9-0.3,1.8-0.5,2.7-0.5c0.5,0,0.9,0,1.3,0.1c0.4,0.1,0.7,0.1,1,0.2v-6.1h4.5V81.9z M123.4,78.7c1,0,1.7-0.3,2.3-1v-6.3
		c-0.4-0.1-0.9-0.2-1.6-0.2c-1.1,0-2,0.3-2.5,1c-0.6,0.7-0.8,1.6-0.8,2.8c0,1.1,0.2,1.9,0.6,2.6S122.5,78.7,123.4,78.7z"/>
	<path d="M64,72.1L64,72.1c-1.9,0-2.1,0.6-2.8,1.5v8.3h-4.5v-9.4c0-2.4,1.9-4.3,4.3-4.3h0h0h1.3h4.9L64,72.1z"/>
</g>
<path d="M91.2,81.4c0,0,0.5,0.3,1.9,0.5"/>
<rect x="1335.9" y="-493.9" class="st1" width="15" height="15"/>
<rect x="831.7" y="-616.7" class="st0" width="12.1" height="12.1"/>
<rect x="837.6" y="-623.8" class="st1" width="12.1" height="12.1"/>
<rect x="1350.9" y="-493.9" class="st0" width="15" height="15"/>
<path d="M1337.6-474.7c0.9,0,21.7,0,21.7,0l0.3,0l6.1,0c0.2,0.3,0.2,0.1,0.2,0.1c0,0.7-0.2,1.1-0.6,1.6c-0.4,0.4-1,0.8-1.7,1.1
	c-0.7,0.3-1.5,0.5-2.4,0.6c-0.9,0.1-26.2,0.2-27.1,0.2L1337.6-474.7z"/>
<path d="M843.3-606.9v-7.3l4.3-5.1c0.1-0.1,0.2,0,0.2,0.1v12.3H843.3z"/>
<path d="M840.8-616.7L840.8-616.7c-1,0-1.5,0.2-1.9,0.4c-0.7,0.5-1,1.3-1,2.1v7.3h-4.5v-9.4c0-2.4,1.9-4.3,4.3-4.3l0,0l0,0h1.3h4.9
	L840.8-616.7z"/>
<g>
	<rect x="592.4" y="75.8" class="st0" width="176.4" height="176.4"/>
	<rect x="691.5" y="-22" class="st1" width="176.4" height="176.4"/>
</g>
<g>
	<path d="M768.8,215.7V108.8l62.3-75c1-1.2,3-0.5,3,1.1v180.8H768.8z"/>
	<path d="M732.7,71.9h-1.3c-12.9,0-20.3,2.3-25.8,6.2c-9.7,7-14.3,19.1-14.3,31.1v106.3H626V78.8c0-34.9,28.3-63.2,63.2-63.2h0h0
		h18.5h72L732.7,71.9z"/>
</g>
<path class="st0" d="M1297-599.1v0.5h-19.5v-32.1h-13.7c0,0.5-0.1,1-0.1,1.5v30.3h14.5v-15.4h17.2v15.2H1297z"/>
<path class="st0" d="M1297-630.1v31.5h-1.7v-15.2h-17.2v15.4h-14.5v-30.3c0-0.5,0-1,0.1-1.5H1297z"/>
<path class="st1" d="M1309.8-642.8v29.1h0v-24.6c0-0.4-0.5-0.5-0.7-0.2L1297-624v-6h-11.9c0.6-0.1,1.2-0.1,1.9-0.1h0.3l10.4-12.5
	h-20c-0.2,0-0.4,0-0.5,0v-0.2H1309.8z"/>
<path class="st1" d="M1309.8-638.4v24.6h-32.6v-28.9c0.2,0,0.3,0,0.5,0h20l-10.4,12.5h-0.3c-0.7,0-1.4,0-1.9,0.1h11.9v6l12.1-14.6
	C1309.4-638.9,1309.8-638.7,1309.8-638.4z"/>
<path d="M1309.1-638.6L1297-624l-1.7,2v23.5h14.5v-39.8C1309.8-638.7,1309.4-638.9,1309.1-638.6z"/>
<path d="M1277.7-642.7c-0.2,0-0.4,0-0.5,0c-7,0.3-12.7,5.7-13.4,12.6c0,0.5-0.1,1-0.1,1.5v30.3h14.5v-23.5c0-2.6,1-5.3,3.2-6.9
	c0.9-0.7,2.1-1.1,3.8-1.3c0.6-0.1,1.2-0.1,1.9-0.1h0.3l10.4-12.5H1277.7z"/>
<path class="st0" d="M1296.3-661.3v0.5h-19.5v-32.1h-13.7c0,0.5-0.1,1-0.1,1.5v30.3h14.5v-15.4h17.2v15.2H1296.3z"/>
<path class="st0" d="M1294.6-681.3v20.6l0,0V-676h-17.2v15.4H1263v-30.3c0-0.5,0-1,0.1-1.5h22.3
	C1291.4-692.3,1294.6-687.4,1294.6-681.3z"/>
<path class="st1" d="M1294.6-684.2v8.2l-18.2,0.1v-28.4c0.2-0.2,0.3-0.3,0.5-0.5h20l-10.4,12.5h-0.3c-0.7,0,0.9-0.1,0.3,0l2.2,0.1
	C1293.2-691.6,1295.2-686.7,1294.6-684.2l1.7-1.9L1294.6-684.2C1294.9-684.5,1294.6-684.6,1294.6-684.2z"/>
<path d="M1308.4-700.8l-12.1,14.6l-1.7,2v23.5h14.5v-39.8C1309.1-701,1308.7-701.1,1308.4-700.8z"/>
<path d="M1277-704.9c-0.2,0-0.4,0-0.5,0c-7,0.3-12.7,5.7-13.4,12.6c0,0.5-0.1,1-0.1,1.5v30.3h14.5v-23.5c0-2.6,1-5.3,3.2-6.9
	c0.9-0.7,2.1-1.1,3.8-1.3c0.6-0.1,1.5-0.1,2.2-0.1l0,0l10.4-12.5H1277z"/>
<path d="M66.5,81.9v-7.3l4.3-5.1c0.1-0.1,0.2,0,0.2,0.1v12.3H66.5z"/>
<path d="M64,72.1L64,72.1c-1,0-1.5,0.2-1.9,0.4c-0.7,0.5-1,1.3-1,2.1V82h-4.5v-9.4c0-2.4,1.9-4.3,4.3-4.3h0h0h1.3h4.9L64,72.1z"/>
</svg>
