<svg xmlns="http://www.w3.org/2000/svg" viewBox="0 0 468.7 152.77"><title>daostack_logo_svg_01</title><path d="M97.73,65.41l11-11L54.38,0,0,54.38l11,11-11,11,11,11-11,11,54.38,54.38,54.37-54.38-11-11,11-11Zm-88-11L54.38,9.74,99,54.38l-6.16,6.16L54.38,22.06,15.9,60.54ZM54.38,99,31.75,76.39,54.38,53.76,77,76.39Zm27.5-17.77L88,87.41,54.38,121.07,20.72,87.41l6.16-6.16,27.5,27.5ZM54.38,44l-27.5,27.5-6.11-6.11L54.38,31.79,88,65.41l-6.11,6.11ZM9.74,76.43l6.16-6.16L22,76.39l-6.16,6.15ZM99,98.39,54.38,143,9.74,98.39l6.11-6.11,38.53,38.53L92.9,92.28Zm-12.27-22,6.11-6.12L99,76.43,92.9,82.54Z"/><path d="M174.78,49.53H156.61V102h18.17c6,0,10.38-1.77,13.9-5.58,4.7-4.86,4.7-12.71,4.7-20.3v-.35c0-8,0-15.57-4.7-20.64C185.16,51.3,180.74,49.53,174.78,49.53Zm-11.5,6.09h10.56c4.4,0,7.46,1.13,9.64,3.55h0c3.22,3.36,3.22,10.08,3.22,16.58s0,13.22-3.23,16.59c-2.18,2.42-5.24,3.55-9.64,3.55H163.28Z"/><path d="M218.93,49.53,199.62,102h7.12l4.1-11.59h21.55l4.1,11.59h7.11L224.37,49.53Zm11.45,34.92H212.92l8.8-24.68Z"/><path d="M268.38,49.09a18.05,18.05,0,0,0-13.25,5.22c-5,5-5.28,9.44-5.28,21.45s.25,16.42,5.28,21.45a19.31,19.31,0,0,0,26.41,0h0c4.93-4.92,5.36-9.53,5.36-21.45s-.43-16.53-5.36-21.45A17.92,17.92,0,0,0,268.38,49.09Zm0,47.24a11.53,11.53,0,0,1-8.44-3.42c-3.16-3.16-3.42-6.78-3.42-17.15s.26-14,3.42-17.14a12.1,12.1,0,0,1,16.87,0c3.16,3.16,3.42,6.78,3.42,17.15s-.26,14-3.42,17.15A11.51,11.51,0,0,1,268.38,96.33Z"/><path d="M314.8,80.85l-5.53-.5c-4.13-.47-5.81-1.8-5.81-4.59,0-3.37,2.6-5.23,7.32-5.23a14.51,14.51,0,0,1,9.07,2.68l.42.32,4.23-4.23-.53-.42c-3.27-2.62-7.68-3.94-13.12-3.94-8.28,0-13.63,4.3-13.63,11,0,6.09,3.75,9.49,11.13,10.11l5.84.5c3.8.32,5.35,1.65,5.35,4.59,0,3.76-3,5.66-8.83,5.66-4.49,0-8-1.32-10.59-3.92l-.42-.44-4.31,4.32.43.42c3.72,3.66,8.34,5.29,15,5.29,9.26,0,15-4.37,15-11.4C325.78,82.82,319.51,81.29,314.8,80.85Z"/><path d="M343.35,54.5H337V65.37H332.5v5.16H337V91.89c0,6.14,3.79,10.1,9.67,10.1h4.27V96.33h-3.34c-2.88,0-4.22-1.46-4.22-4.58V70.53h7.56V65.37h-7.56Z"/><path d="M373.06,64.94c-6.42,0-9.95,1.5-13,5.56l-.33.44,4.42,4,.4-.52c2.21-2.93,4.26-3.87,8.45-3.87,6,0,8.47,2.08,8.47,7.18v2.78h-10c-8.09,0-12.92,4-12.92,10.83A10.35,10.35,0,0,0,361.42,99c2.66,2.52,5.39,3.41,10.42,3.41,4.28,0,7-.85,9.62-3.05V102h6.39V77.34C387.85,69.11,382.87,64.94,373.06,64.94Zm-.65,31.82c-5.33,0-7.61-1.63-7.61-5.45s2.42-5.66,7.4-5.66h9.26v3.22c0,2.8-.53,4.66-1.6,5.67C377.81,96.4,375.58,96.76,372.41,96.76Z"/><path d="M415,70.74c3.22,0,5.16,1,7.69,3.77l.41.45,4.41-4.14-.4-.44c-3.73-4-6.9-5.44-12.11-5.44-10,0-16.29,7.18-16.29,18.74s6.24,18.75,16.29,18.75c5.21,0,8.38-1.43,12.11-5.45l.4-.43-4.4-4.23-.42.46c-2.58,2.87-4.52,3.84-7.69,3.84a9.05,9.05,0,0,1-7.72-3.79c-1.57-2.19-2.19-4.76-2.19-9.15s.62-7,2.19-9.15A9.05,9.05,0,0,1,415,70.74Z"/><polygon points="454.23 79.56 466.84 65.37 458.75 65.37 443.64 82.79 443.64 49.53 437.26 49.53 437.26 101.99 443.64 101.99 443.64 91.39 449.87 84.26 460.85 101.99 468.7 101.99 454.23 79.56"/></svg>