<svg xmlns="http://www.w3.org/2000/svg" xmlns:xlink="http://www.w3.org/1999/xlink" width="315" height="69" viewBox="0 0 315 69">
    <defs>
        <path id="a" d="M.013.037h38.169v27.817H.012z"/>
        <path id="c" d="M0 .152h30.77v33.552H0z"/>
        <path id="e" d="M0 33h182V0H0z"/>
    </defs>
    <g fill="none" fill-rule="evenodd">
        <g transform="translate(40.226 8.073)">
            <mask id="b" fill="#fff">
                <use xlink:href="#a"/>
            </mask>
            <path fill="#00A4C3" d="M18.885 23.326L4.55 9.2a20.285 20.285 0 0 1 14.147-5.884A20.158 20.158 0 0 1 33.66 9.763L18.885 23.326zm18.34-14.454C32.684 3.21 25.924-.01 18.674.038A23.576 23.576 0 0 0 1.018 8.175L.013 9.336l18.792 18.518 19.377-17.787-.958-1.195z" mask="url(#b)"/>
        </g>
        <path fill="#00A4C3" d="M31.61 32.175c0-1.973.215-3.896.616-5.752H4C6.439 39.44 20.889 49.608 38.672 50.46c-4.387-4.843-7.063-11.257-7.063-18.284M85.69 26.423c.4 1.856.617 3.779.617 5.752 0 7.027-2.676 13.441-7.063 18.284 17.784-.851 32.233-11.02 34.672-24.036H85.69zM44.882 26.17a5.446 5.446 0 0 0-1.205 3.418c0 3.023 2.464 5.482 5.493 5.482a5.47 5.47 0 0 0 3.422-1.201l-7.71-7.699zM65.98 33.602a5.472 5.472 0 0 0 3.73 1.468c3.028 0 5.492-2.46 5.492-5.482a5.44 5.44 0 0 0-1.13-3.316l-8.091 7.33z"/>
        <path fill="#00A4C3" d="M76.512 24.062a8.706 8.706 0 0 1 1.975 5.526c0 4.83-3.937 8.76-8.777 8.76a8.756 8.756 0 0 1-6.169-2.536l-4.72 4.276-3.902-3.896a8.742 8.742 0 0 1-5.75 2.156c-4.84 0-8.777-3.93-8.777-8.76 0-2.197.82-4.202 2.164-5.741l-4.16-4.153a23.867 23.867 0 0 0-3.502 12.48c0 13.264 10.774 24.017 24.064 24.017 13.29 0 24.064-10.753 24.064-24.016 0-4.126-1.044-8.009-2.88-11.4l-3.63 3.287z"/>
        <g transform="translate(126 17)">
            <mask id="d" fill="#fff">
                <use xlink:href="#c"/>
            </mask>
            <path fill="#00A4C3" d="M30.578 17.165v12.227c-3.392 2.559-8.409 4.312-12.995 4.312C7.693 33.704 0 26.36 0 16.881 0 7.403 7.788.152 17.917.152c4.778 0 9.556 1.801 12.853 4.645l-3.202 4.122c-2.58-2.369-6.163-3.79-9.651-3.79-6.832 0-12.184 5.165-12.184 11.752 0 6.634 5.4 11.8 12.232 11.8 2.485 0 5.304-.853 7.692-2.275v-9.24h4.921z" mask="url(#d)"/>
            <path fill="#00A4C3" d="M60.65 33L43.442 9.334V33H38V0h5.351l17.298 23.713V0H66v33zM80.499 17.453c0 6.48 5.27 11.606 11.548 11.606 6.277 0 11.408-5.127 11.408-11.606 0-6.478-5.13-11.512-11.408-11.512-6.324 0-11.548 5.034-11.548 11.512m28.501 0C109 26.776 101.577 34 92 34s-17-7.224-17-16.547C75 8.085 82.423 1 92 1s17 7.131 17 16.453M137.574 3.351l-2.316 4.84c-3.593-2.14-7.185-3.025-9.69-3.025-3.263 0-5.39 1.21-5.39 3.398 0 7.122 17.87 3.305 17.822 15.034 0 5.818-5.2 9.402-12.48 9.402-5.2 0-10.116-2.094-13.52-5.166l2.411-4.748c3.403 3.072 7.658 4.748 11.204 4.748 3.876 0 6.192-1.443 6.192-3.957 0-7.26-17.87-3.211-17.87-14.8 0-5.586 4.87-9.077 12.055-9.077 4.303 0 8.51 1.35 11.582 3.351"/>
            <mask id="f" fill="#fff">
                <use xlink:href="#e"/>
            </mask>
            <path fill="#00A4C3" d="M144 33h6V0h-6zM181.575 3.351l-2.316 4.84c-3.594-2.14-7.186-3.025-9.692-3.025-3.262 0-5.39 1.21-5.39 3.398 0 7.122 17.87 3.305 17.823 15.034 0 5.818-5.2 9.402-12.48 9.402-5.2 0-10.117-2.094-13.52-5.166l2.41-4.748c3.404 3.072 7.659 4.748 11.204 4.748 3.877 0 6.193-1.443 6.193-3.957 0-7.26-17.869-3.211-17.869-14.8 0-5.586 4.869-9.077 12.055-9.077 4.301 0 8.509 1.35 11.582 3.351" mask="url(#f)"/>
        </g>
    </g>
</svg>
