<?xml version="1.0" encoding="UTF-8" standalone="no"?>
<svg
   xmlns:dc="http://purl.org/dc/elements/1.1/"
   xmlns:cc="http://creativecommons.org/ns#"
   xmlns:rdf="http://www.w3.org/1999/02/22-rdf-syntax-ns#"
   xmlns:svg="http://www.w3.org/2000/svg"
   xmlns="http://www.w3.org/2000/svg"
   viewBox="0 0 1066.6667 400"
   height="400"
   width="1066.6667"
   xml:space="preserve"
   id="svg2"
   version="1.1"><metadata
     id="metadata8"><rdf:RDF><cc:Work
         rdf:about=""><dc:format>image/svg+xml</dc:format><dc:type
           rdf:resource="http://purl.org/dc/dcmitype/StillImage" /></cc:Work></rdf:RDF></metadata><defs
     id="defs6"><clipPath
       id="clipPath18"
       clipPathUnits="userSpaceOnUse"><path
         id="path16"
         d="M 0,300 H 800 V 0 H 0 Z" /></clipPath></defs><g
     transform="matrix(1.3333333,0,0,-1.3333333,0,400)"
     id="g10"><g
       id="g12"><g
         clip-path="url(#clipPath18)"
         id="g14"><g
           transform="translate(258.8516,64.9619)"
           id="g20"><path
             id="path22"
             style="fill:#000000;fill-opacity:1;fill-rule:nonzero;stroke:none"
             d="m 0,0 c -22.784,-22.789 -53.074,-35.335 -85.304,-35.335 -32.217,0 -62.51,12.546 -85.295,35.335 -22.785,22.78 -35.339,53.069 -35.339,85.304 0,32.217 12.554,62.506 35.339,85.295 22.785,22.78 53.078,35.335 85.295,35.335 32.23,0 62.52,-12.555 85.304,-35.335 C 22.785,147.81 35.331,117.521 35.331,85.304 35.331,53.069 22.785,22.78 0,0 m -85.304,213.973 c -71.064,0 -128.673,-57.605 -128.673,-128.669 0,-71.074 57.609,-128.687 128.673,-128.687 71.074,0 128.682,57.613 128.682,128.687 0,71.064 -57.608,128.669 -128.682,128.669" /></g><g
           transform="translate(126.043,180.4033)"
           id="g24"><path
             id="path26"
             style="fill:#000000;fill-opacity:1;fill-rule:nonzero;stroke:none"
             d="M 0,0 C 4.947,7.77 11.739,14.249 19.747,18.81 L 47.509,-12.026 75.268,18.81 C 83.368,14.195 90.224,7.617 95.18,-0.278 L 47.509,-52.729 Z M 122.848,30.173 100.776,5.896 c -5.211,7.699 -12.04,14.205 -20.011,19.026 l 32.629,36.258 c -2.2,1.595 -4.45,3.1 -6.744,4.525 L 47.509,-0.009 -11.637,65.705 c -2.294,-1.425 -4.539,-2.93 -6.743,-4.525 L 14.253,24.922 C 6.381,20.163 -0.385,13.756 -5.569,6.184 l -16.472,18.281 c 0,0 0.009,0.009 0.009,0.017 l -5.489,6.068 c -13.433,-16.579 -21.48,-37.693 -21.48,-60.696 0,-25.111 9.598,-47.989 25.325,-65.16 l 5.444,6.032 c -14.115,15.682 -22.731,36.42 -22.731,59.128 0,17.671 5.22,34.125 14.168,47.953 l 74.304,-82.554 74.3,82.554 c 8.948,-13.819 14.168,-30.282 14.168,-47.953 0,-22.708 -8.617,-43.446 -22.731,-59.128 l 5.444,-6.032 c 15.727,17.171 25.325,40.049 25.325,65.16 0,22.825 -7.926,43.794 -21.167,60.319" /></g><g
           transform="translate(173.5522,206.5615)"
           id="g28"><path
             id="path30"
             style="fill:#000000;fill-opacity:1;fill-rule:nonzero;stroke:none"
             d="m 0,0 c 4.01,0 7.917,-0.439 11.69,-1.236 l 6.121,6.774 C 12.156,7.16 6.183,8.039 0,8.039 -6.188,8.039 -12.161,7.16 -17.815,5.538 l 6.125,-6.774 C -7.922,-0.439 -4.01,0 0,0" /></g><g
           transform="translate(227.9932,164.5859)"
           id="g32"><path
             id="path34"
             style="fill:#000000;fill-opacity:1;fill-rule:nonzero;stroke:none"
             d="m 0,0 c 1.205,-4.579 1.854,-9.373 1.854,-14.32 0,-31.051 -25.252,-56.305 -56.299,-56.305 -15.441,0 -29.448,6.255 -39.623,16.354 l -2.201,2.429 -0.058,-0.054 c -8.952,9.974 -14.414,23.148 -14.414,37.576 0,4.947 0.649,9.741 1.854,14.32 l -6.277,6.937 c -2.33,-6.65 -3.616,-13.81 -3.616,-21.257 0,-17.932 7.331,-34.143 19.16,-45.802 l 59.611,-65.876 c 3.155,0.403 6.296,0.932 9.387,1.604 l -44.448,49.126 c 6.474,-2.195 13.406,-3.395 20.625,-3.395 35.532,0 64.339,28.81 64.339,64.343 0,7.447 -1.278,14.607 -3.617,21.257 z" /></g><g
           transform="translate(482.584,191.5249)"
           id="g36"><path
             id="path38"
             style="fill:#000000;fill-opacity:1;fill-rule:nonzero;stroke:none"
             d="m 0,0 c -0.592,0.376 -1.255,0.475 -1.98,0.475 h -9.604 v -6.327 -2.673 h 9.604 c 0.725,0 1.388,0.301 1.98,0.669 0.502,0.314 0.949,0.773 1.344,1.382 0.394,0.619 0.609,1.499 0.645,2.664 C 1.953,-2.681 1.738,-1.901 1.344,-1.283 0.949,-0.682 0.502,-0.305 0,0" /></g><g
           transform="translate(490,187.707)"
           id="g40"><path
             id="path42"
             style="fill:#000000;fill-opacity:1;fill-rule:nonzero;stroke:none"
             d="m 0,0 v -0.099 -0.089 -0.108 -0.09 c 0,-2.258 -0.15,-4.041 -0.822,-5.385 -0.682,-1.354 -1.384,-2.393 -2.362,-3.119 -0.976,-0.726 -1.945,-1.222 -3.02,-1.446 -1.075,-0.225 -1.965,-0.371 -2.799,-0.371 H -19 v -0.119 -14.881 h -5.631 l 0.044,36 h 15.584 c 0.815,0 1.766,-0.025 2.859,-0.267 1.076,-0.251 2.106,-0.68 3.082,-1.406 0.978,-0.726 1.558,-1.756 2.24,-3.127 C -0.15,4.122 0,2.348 0,0.143 Z m -57.779,-25.707 h -5.87 l -10.754,36 h 5.789 l 7.841,-26.974 7.904,26.974 h 5.789 z m -39.221,0 h -6 V -0.045 L -110.487,-13.389 -118,0 v -25.707 h -6 v 36 h 5.618 l 7.846,-13.156 7.819,13.156 H -97 Z m -43,-12 H 16 v 61 h -156 z" /></g><g
           transform="translate(484.7168,132.3037)"
           id="g44"><path
             id="path46"
             style="fill:#000000;fill-opacity:1;fill-rule:nonzero;stroke:none"
             d="m 0,0 c -0.592,0.377 -1.255,0.696 -1.98,0.696 h -9.737 v -9 h 9.737 c 0.035,0 0.259,-0.206 0.671,-0.134 0.413,0.072 0.87,0.138 1.363,0.425 0.501,0.296 0.949,0.701 1.343,1.328 0.395,0.62 0.592,1.485 0.592,2.65 0,1.156 -0.197,2.044 -0.609,2.653 C 0.968,-0.772 0.502,-0.305 0,0" /></g><g
           transform="translate(436.2979,130.3535)"
           id="g48"><path
             id="path50"
             style="fill:#000000;fill-opacity:1;fill-rule:nonzero;stroke:none"
             d="M 0,0 C -0.368,0.502 -0.834,0.977 -1.371,1.407 -1.918,1.828 -2.759,2.195 -3.503,2.491 -4.247,2.787 -5.298,2.975 -6.298,3.038 V 3.137 L -6.165,3.038 C -7.151,2.975 -7.917,2.787 -8.634,2.491 -9.369,2.195 -9.958,1.828 -10.505,1.407 c -0.547,-0.43 -0.98,-0.914 -1.365,-1.416 -0.377,-0.52 -0.445,-1.049 -0.67,-1.551 -0.6,-1.263 -0.758,-2.634 -0.758,-4.122 v -7.797 c 0,-1.612 0.17,-3.082 0.77,-4.408 0.224,-0.564 0.417,-1.13 0.794,-1.667 0.384,-0.564 0.786,-1.057 1.333,-1.514 0.547,-0.457 1.154,-0.852 1.889,-1.165 0.717,-0.314 1.375,-0.502 2.362,-0.574 l -0.148,-0.045 v 0.045 c 1,0.072 2.033,0.26 2.785,0.574 0.754,0.313 1.501,0.708 2.048,1.165 0.537,0.457 1.05,0.95 1.418,1.514 0.359,0.537 0.583,1.103 0.834,1.667 0.601,1.326 0.915,2.796 0.915,4.408 v 7.797 c 0,1.488 -0.291,2.859 -0.891,4.122 C 0.56,-1.039 0.358,-0.511 0,0" /></g><g
           transform="translate(684.3145,130.3535)"
           id="g52"><path
             id="path54"
             style="fill:#000000;fill-opacity:1;fill-rule:nonzero;stroke:none"
             d="M 0,0 C -0.367,0.502 -0.824,0.977 -1.371,1.407 -1.917,1.828 -2.768,2.195 -3.502,2.491 -4.254,2.787 -5.314,2.975 -6.314,3.038 V 3.137 L -6.172,3.038 C -7.148,2.975 -7.92,2.787 -8.638,2.491 -9.372,2.195 -9.96,1.828 -10.506,1.407 c -0.547,-0.43 -0.979,-0.914 -1.365,-1.416 -0.376,-0.52 -0.453,-1.049 -0.678,-1.551 -0.599,-1.263 -0.765,-2.634 -0.765,-4.122 v -7.797 c 0,-1.612 0.178,-3.082 0.778,-4.408 0.224,-0.564 0.421,-1.13 0.798,-1.667 0.384,-0.564 0.788,-1.057 1.335,-1.514 0.546,-0.457 1.156,-0.852 1.89,-1.165 0.718,-0.314 1.377,-0.502 2.354,-0.574 l -0.155,-0.045 v 0.045 c 1,0.072 2.041,0.26 2.794,0.574 0.752,0.313 1.505,0.708 2.051,1.165 0.547,0.457 1.053,0.95 1.42,1.514 0.36,0.537 0.576,1.103 0.827,1.667 0.6,1.326 0.908,2.796 0.908,4.408 v 7.797 c 0,1.488 -0.284,2.859 -0.883,4.122 C 0.552,-1.039 0.359,-0.511 0,0" /></g><g
           transform="translate(741,128.1846)"
           id="g56"><path
             id="path58"
             style="fill:#000000;fill-opacity:1;fill-rule:nonzero;stroke:none"
             d="m 0,0 v -0.099 -0.089 -0.108 -0.089 c 0,-2.259 -0.571,-4.042 -1.252,-5.386 -0.672,-1.353 -1.59,-2.392 -2.566,-3.119 -0.986,-0.725 -2.053,-0.961 -3.129,-1.185 -1.076,-0.223 -2.073,-0.11 -2.914,-0.11 H -20 v -0.64 -15.36 h -5.481 l 0.044,37 h 15.576 c 0.824,0 1.774,-0.285 2.858,-0.527 1.085,-0.252 2.107,-0.81 3.092,-1.537 C -2.935,8.025 -1.924,6.93 -1.252,5.559 -0.571,4.188 0,2.349 0,0.144 Z m -49,-12.653 c 0,-2.536 -0.692,-4.822 -1.624,-6.847 -0.404,-0.852 -0.901,-1.685 -1.521,-2.5 -0.626,-0.815 -1.382,-1.542 -2.27,-2.178 -0.905,-0.645 -1.95,-1.079 -3.178,-1.483 -1.219,-0.402 -2.632,-0.524 -4.262,-0.524 h -1.524 c -1.622,0 -3.047,0.122 -4.266,0.524 -1.237,0.404 -2.294,0.881 -3.209,1.526 -0.914,0.636 -1.684,1.341 -2.311,2.156 -0.637,0.816 -0.987,1.638 -1.382,2.49 -0.941,2.025 -1.453,4.3 -1.453,6.836 v 10.861 c 0,2.42 0.529,4.57 1.508,6.435 0.392,0.797 0.846,1.586 1.456,2.374 0.627,0.78 1.343,1.478 2.265,2.087 0.906,0.62 1.953,0.955 3.18,1.323 1.219,0.357 2.616,0.388 4.247,0.388 h 1.434 c 1.613,0 3.039,-0.031 4.266,-0.388 1.219,-0.368 2.294,-0.778 3.208,-1.397 0.906,-0.609 1.676,-1.27 2.303,-2.041 0.619,-0.78 1.105,-1.55 1.509,-2.365 C -49.675,2.742 -49,0.618 -49,-1.792 Z m -51,-13.532 h -6 v 16 h -15 v -16 h -6 v 37 h 6 v -15 h 15 v 15 h 6 z m -52,11.139 v -0.036 -0.054 -0.045 c 0,-2.249 -0.363,-4.068 -1.035,-5.448 -0.68,-1.39 -1.48,-2.465 -2.447,-3.226 -0.951,-0.762 -1.973,-1.47 -3.058,-1.73 -1.093,-0.268 -2.054,-0.6 -2.887,-0.6 H -176 v 6.157 l 14.116,-0.045 c 0.726,0.116 1.421,0.385 2.013,0.77 0.5,0.376 0.982,0.869 1.394,1.532 0.414,0.646 0.619,1.542 0.619,2.689 0,1.156 -0.194,2.043 -0.607,2.661 -0.412,0.609 -0.876,1.234 -1.377,1.494 -0.592,0.315 -1.235,0.742 -1.926,0.742 h -5.761 c -0.861,0 -1.837,-0.078 -2.931,0.172 -1.084,0.242 -2.124,0.66 -3.101,1.422 -0.976,0.771 -1.773,1.801 -2.455,3.181 -0.672,1.397 -0.984,3.188 -0.984,5.464 v 0.045 0.045 0.053 0.045 c 0,2.249 0.312,4.042 0.984,5.395 0.682,1.362 1.493,2.411 2.469,3.145 0.977,0.736 2.01,1.34 3.076,1.563 1.075,0.234 2.028,0.47 2.888,0.47 H -153 v -6 h -4.851 -9.32 c -0.725,0 -1.389,-0.287 -1.989,-0.656 -0.502,-0.285 -0.959,-0.765 -1.371,-1.375 -0.404,-0.609 -0.618,-1.5 -0.618,-2.629 0,-1.156 0.214,-2.058 0.618,-2.676 0.412,-0.636 0.869,-0.859 1.371,-1.2 0.6,-0.377 1.281,-0.464 2.043,-0.464 h 5.735 c 0.816,0 1.775,-0.353 2.886,-0.578 1.094,-0.232 2.115,-0.822 3.083,-1.53 0.958,-0.708 1.733,-1.818 2.388,-3.162 0.644,-1.354 1.025,-3.252 1.025,-5.546 z m -46.438,-11.139 h -6.398 l -7.627,12.909 -5.537,-9.1 v -3.809 h -6 v 37 h 6 v -22.823 l 13.316,22.823 h 6.435 l -10.88,-18.387 z m -51.761,17.053 c 0.394,-0.564 1.073,-1.335 1.396,-2.311 0.34,-0.987 0.803,-2.223 0.803,-3.746 v -0.045 -10.951 h -6 v 11 h -0.294 c 0,1 -0.197,2.049 -0.609,2.668 -0.412,0.61 -0.878,1.234 -1.38,1.52 -0.592,0.377 -1.255,0.812 -1.981,0.812 H -268 v -9.701 -6.299 h -5 v 37 h 15.13 c 0.815,0 1.784,-0.246 2.894,-0.461 1.13,-0.232 2.152,-0.781 3.12,-1.534 0.959,-0.753 1.774,-1.842 2.455,-3.214 0.68,-1.371 1.021,-3.232 1.021,-5.536 0,-1.299 -0.143,-2.41 -0.43,-3.35 -0.278,-0.924 -0.609,-1.69 -0.995,-2.308 -0.376,-0.591 -0.968,-1.059 -1.308,-1.373 -0.35,-0.313 0.113,-0.495 -0.887,-0.53 V -7.68 c 1,-0.323 1.354,-0.806 1.801,-1.452 M -297,-12.653 c 0,-2.536 -0.701,-4.822 -1.633,-6.847 -0.403,-0.852 -0.906,-1.685 -1.525,-2.5 -0.627,-0.815 -1.385,-1.542 -2.272,-2.178 -0.905,-0.645 -1.961,-1.079 -3.179,-1.483 -1.219,-0.402 -2.633,-0.524 -4.264,-0.524 h -1.523 c -1.623,0 -3.047,0.122 -4.275,0.524 -1.227,0.404 -2.294,0.881 -3.199,1.526 -0.914,0.636 -1.685,1.341 -2.313,2.156 -0.635,0.816 -0.977,1.638 -1.372,2.49 -0.941,2.025 -1.445,4.3 -1.445,6.836 v 10.861 c 0,2.42 0.521,4.57 1.498,6.435 0.395,0.797 0.844,1.586 1.453,2.374 0.627,0.78 1.34,1.478 2.263,2.087 0.906,0.62 1.952,0.955 3.179,1.323 1.218,0.357 2.615,0.388 4.246,0.388 h 1.434 c 1.614,0 3.038,-0.031 4.266,-0.388 1.219,-0.368 2.294,-0.778 3.208,-1.397 0.905,-0.609 1.676,-1.27 2.303,-2.041 0.619,-0.78 1.114,-1.55 1.517,-2.365 0.949,-1.882 1.633,-4.006 1.633,-6.416 z m -51,-13.532 h -5.717 l -7.819,13.147 -7.846,-13.147 H -375 v 37 h 6 v -26.058 l 7.513,13.397 7.487,-13.433 v 26.094 h 6 z m -43,-12 H 15 v 60 h -406 z" /></g><g
           transform="translate(732.7334,132.2637)"
           id="g60"><path
             id="path62"
             style="fill:#000000;fill-opacity:1;fill-rule:nonzero;stroke:none"
             d="m 0,0 c -0.601,0.377 -1.263,0.736 -1.989,0.736 h -9.744 v -6.849 -3.151 h 9.744 c 0.726,1 1.388,0.541 1.989,0.909 0.502,0.312 0.95,0.891 1.345,1.501 0.394,0.619 0.609,1.558 0.644,2.723 -0.035,1.13 -0.25,2.069 -0.644,2.689 C 0.95,-0.843 0.502,-0.305 0,0" /></g></g></g></g></svg>