<?xml version="1.0" encoding="UTF-8" standalone="no"?>
<svg
   xmlns:dc="http://purl.org/dc/elements/1.1/"
   xmlns:cc="http://creativecommons.org/ns#"
   xmlns:rdf="http://www.w3.org/1999/02/22-rdf-syntax-ns#"
   xmlns:svg="http://www.w3.org/2000/svg"
   xmlns="http://www.w3.org/2000/svg"
   viewBox="0 0 919.08801 1221.9106"
   height="1221.9106"
   width="919.08801"
   xml:space="preserve"
   id="svg2"
   version="1.1"><metadata
     id="metadata8"><rdf:RDF><cc:Work
         rdf:about=""><dc:format>image/svg+xml</dc:format><dc:type
           rdf:resource="http://purl.org/dc/dcmitype/StillImage" /></cc:Work></rdf:RDF></metadata><defs
     id="defs6"><clipPath
       id="clipPath26"
       clipPathUnits="userSpaceOnUse"><path
         id="path24"
         d="M 0,916.433 H 689.316 V 0 H 0 Z" /></clipPath></defs><g
     transform="matrix(1.3333333,0,0,-1.3333333,0,1221.9107)"
     id="g10"><g
       transform="translate(157.978,258.2558)"
       id="g12"><path
         id="path14"
         style="fill:#000000;fill-opacity:1;fill-rule:nonzero;stroke:none"
         d="m 0,0 v -66.091 h -15.391 l -29.173,35.216 V -66.091 H -62.88 V 0 h 15.389 l 29.173,-35.218 V 0 Z" /></g><g
       transform="translate(241.2495,206.6113)"
       id="g16"><path
         id="path18"
         style="fill:#000000;fill-opacity:1;fill-rule:nonzero;stroke:none"
         d="M 0,0 V -14.446 H -53.06 V 51.645 H -1.227 V 37.198 H -34.556 V 26.058 H -5.193 V 12.084 h -29.363 l 0,-12.084 z" /></g><g
       id="g20"><g
         clip-path="url(#clipPath26)"
         id="g22"><g
           transform="translate(306.3965,240.9775)"
           id="g28"><path
             id="path30"
             style="fill:#000000;fill-opacity:1;fill-rule:nonzero;stroke:none"
             d="m 0,0 c -1.952,1.7 -4.849,2.549 -8.687,2.549 h -10.385 v -19.354 h 10.385 c 3.838,0 6.735,0.833 8.687,2.501 1.95,1.666 2.927,4.043 2.927,7.128 C 2.927,-4.092 1.95,-1.699 0,0 m -8.876,-31.251 h -10.196 v -17.562 h -18.694 v 66.091 h 30.211 c 5.98,0 11.173,-0.993 15.58,-2.973 4.404,-1.984 7.804,-4.816 10.196,-8.498 2.391,-3.684 3.589,-8.01 3.589,-12.983 0,-4.784 -1.119,-8.953 -3.352,-12.511 -2.235,-3.556 -5.43,-6.34 -9.583,-8.354 L 23.131,-48.813 H 3.116 Z" /></g><g
           transform="translate(422.5244,258.2558)"
           id="g32"><path
             id="path34"
             style="fill:#000000;fill-opacity:1;fill-rule:nonzero;stroke:none"
             d="M 0,0 -28.324,-66.091 H -46.735 L -74.964,0 H -54.76 L -36.822,-43.054 -18.505,0 Z" /></g><g
           transform="translate(484.9316,208.6875)"
           id="g36"><path
             id="path38"
             style="fill:#3cc68a;fill-opacity:1;fill-rule:nonzero;stroke:none"
             d="m 0,0 c 2.705,1.573 4.845,3.791 6.42,6.656 1.572,2.864 2.36,6.153 2.36,9.867 0,3.712 -0.788,7.001 -2.36,9.867 -1.575,2.862 -3.715,5.081 -6.42,6.655 -2.708,1.573 -5.729,2.361 -9.065,2.361 -3.336,0 -6.357,-0.788 -9.063,-2.361 -2.706,-1.574 -4.847,-3.793 -6.421,-6.655 -1.573,-2.866 -2.359,-6.155 -2.359,-9.867 0,-3.714 0.786,-7.003 2.359,-9.867 1.574,-2.865 3.715,-5.083 6.421,-6.656 2.706,-1.574 5.727,-2.36 9.063,-2.36 3.336,0 6.357,0.786 9.065,2.36 m -27.899,-13.406 c -5.571,2.958 -9.947,7.049 -13.124,12.273 -3.179,5.225 -4.768,11.11 -4.768,17.656 0,6.544 1.589,12.429 4.768,17.656 3.177,5.223 7.553,9.313 13.124,12.273 5.57,2.958 11.848,4.438 18.834,4.438 6.987,0 13.266,-1.48 18.836,-4.438 5.571,-2.96 9.945,-7.05 13.124,-12.273 3.177,-5.227 4.768,-11.112 4.768,-17.656 0,-6.546 -1.591,-12.431 -4.768,-17.656 -3.179,-5.224 -7.553,-9.315 -13.124,-12.273 -5.57,-2.96 -11.849,-4.438 -18.836,-4.438 -6.986,0 -13.264,1.478 -18.834,4.438" /></g><g
           transform="translate(547.0556,192.8271)"
           id="g40"><path
             id="path42"
             style="fill:#000000;fill-opacity:1;fill-rule:nonzero;stroke:none"
             d="m 0,0 c -5.036,1.321 -9.128,3.082 -12.273,5.286 l 6.136,13.784 c 2.958,-1.952 6.387,-3.525 10.291,-4.72 3.901,-1.196 7.742,-1.793 11.519,-1.793 7.175,0 10.763,1.793 10.763,5.38 0,1.889 -1.024,3.29 -3.068,4.202 -2.047,0.912 -5.336,1.873 -9.868,2.881 -4.972,1.069 -9.125,2.217 -12.462,3.444 -3.336,1.229 -6.2,3.195 -8.591,5.902 -2.392,2.705 -3.588,6.356 -3.588,10.952 0,4.027 1.101,7.661 3.305,10.906 2.202,3.239 5.491,5.805 9.867,7.694 4.374,1.889 9.739,2.832 16.096,2.832 4.344,0 8.624,-0.488 12.841,-1.463 4.216,-0.977 7.93,-2.409 11.14,-4.296 L 36.35,47.111 c -6.296,3.399 -12.401,5.099 -18.318,5.099 -3.714,0 -6.42,-0.552 -8.118,-1.652 -1.7,-1.102 -2.55,-2.536 -2.55,-4.296 0,-1.763 1.007,-3.084 3.021,-3.964 2.015,-0.883 5.255,-1.795 9.725,-2.739 5.036,-1.072 9.205,-2.218 12.51,-3.448 3.305,-1.226 6.168,-3.178 8.592,-5.852 2.421,-2.677 3.634,-6.311 3.634,-10.905 0,-3.965 -1.101,-7.553 -3.304,-10.763 C 39.338,5.381 36.033,2.814 31.629,0.896 27.222,-1.022 21.871,-1.983 15.578,-1.983 10.228,-1.983 5.034,-1.323 0,0" /></g><g
           transform="translate(95.207,774.4492)"
           id="g44"><path
             id="path46"
             style="fill:#424242;fill-opacity:1;fill-rule:nonzero;stroke:none"
             d="m 0,0 v -83.368 -83.369 -83.368 h 83.368 v 83.368 83.369 V 0 Z" /></g><g
           transform="translate(508.4243,607.7119)"
           id="g48"><path
             id="path50"
             style="fill:#424242;fill-opacity:1;fill-rule:nonzero;stroke:none"
             d="m 0,0 v -83.368 -83.368 -83.369 h 83.369 v 83.369 83.368 V 0 Z" /></g><g
           transform="translate(341.6875,774.4492)"
           id="g52"><path
             id="path54"
             style="fill:#424242;fill-opacity:1;fill-rule:nonzero;stroke:none"
             d="m 0,0 v -83.368 -79.744 l 83.369,-83.368 v 79.743 83.369 z" /></g><g
           transform="translate(261.9438,604.0879)"
           id="g56"><path
             id="path58"
             style="fill:#424242;fill-opacity:1;fill-rule:nonzero;stroke:none"
             d="m 0,0 v -79.744 -83.368 l 83.368,-83.368 v 83.368 79.744 z" /></g><g
           transform="translate(341.6875,774.4492)"
           id="g60"><path
             id="path62"
             style="fill:#000000;fill-opacity:1;fill-rule:nonzero;stroke:none"
             d="M 0,0 H 83.369 L 250.105,-166.737 H 166.737 Z" /></g><g
           transform="translate(95.207,524.3437)"
           id="g64"><path
             id="path66"
             style="fill:#000000;fill-opacity:1;fill-rule:nonzero;stroke:none"
             d="M 0,0 H 83.368 L 250.105,-166.736 H 166.737 Z" /></g><g
           transform="translate(425.0561,691.0811)"
           id="g68"><path
             id="path70"
             style="fill:#3cc68a;fill-opacity:1;fill-rule:nonzero;stroke:none"
             d="m 0,0 v -83.369 -78.636 L -246.481,83.368 V 0 -5.14 -83.369 -166.737 l 83.369,-83.368 v 83.368 78.611 l 246.48,-245.348 v 83.369 5.107 78.261 83.368 z" /></g></g></g></g></svg>