<?xml version="1.0" encoding="utf-8"?>
<!-- Generator: Adobe Illustrator 23.0.2, SVG Export Plug-In . SVG Version: 6.00 Build 0)  -->
<svg version="1.1" id="Layer_1" xmlns="http://www.w3.org/2000/svg" xmlns:xlink="http://www.w3.org/1999/xlink" x="0px" y="0px"
	 viewBox="0 0 1500 800" style="enable-background:new 0 0 1500 800;" xml:space="preserve">
<style type="text/css">
	.st0{fill:#5594B0;}
	.st1{fill:#3C7B8D;}
	.st2{fill:#7DBCD8;}
	.st3{fill:#2D6C88;}
	.st4{fill:#69A8C4;}
</style>
<g id="layer1" transform="translate(32.523104,46.023307)">
	<g id="g874" transform="matrix(1.5448117,0,0,1.5448117,-95.876473,-62.044586)">
		<path id="path831" class="st0" d="M381.5,163.3H275.6l52.9,30.6L381.5,163.3z"/>
		<g id="g851">
			<path id="path821" class="st1" d="M169.8,163.3h105.9l-52.9,30.6L169.8,163.3z"/>
			<path id="path837" class="st1" d="M328.5,255l-52.9,91.7l0-61.1L328.5,255z"/>
		</g>
		<path id="path843" class="st2" d="M222.7,193.9l0,61.1l52.9-30.6v-61.1L222.7,193.9"/>
		<g id="g860">
			<path id="path835" class="st3" d="M275.6,346.6L222.7,255l52.9,30.6V346.6z"/>
			<path id="path845" class="st3" d="M328.5,193.9V255l-52.9-30.6l0-61.1L328.5,193.9"/>
		</g>
		<g id="g856">
			<path id="path829" class="st4" d="M222.7,255l-52.9-91.7l52.9,30.6L222.7,255z"/>
			<path id="path833" class="st4" d="M328.5,255l52.9-91.7l-52.9,30.6V255z"/>
			<path id="path847" class="st4" d="M275.6,285.5L222.7,255l52.9-30.6l52.9,30.6L275.6,285.5"/>
		</g>
	</g>
</g>
<g>
	<path d="M556,421.2l-5.7,14.8h-22.8l36.6-86.7h20.4L621,436h-22.7l-5.8-14.8H556z M574.2,374.3L563.1,403h22.3L574.2,374.3z"/>
	<path d="M662,411.1v25h-21.4v-86.2h37.8c21.3,0,35.6,11.7,35.6,30.3c0,12-6.2,21.5-16.5,26.7l22.2,29.2h-25.9l-18.5-25H662z
		 M677.9,391.8c8.2,0,14.8-4.6,14.8-11.7c0-7-6.6-11.4-14.8-11.4H662v23.1H677.9z"/>
	<path d="M831.6,436.6H811L793.6,384l-17.4,52.6h-20.7l-27.9-86.7h22.7l16.1,53.6l18.2-53.4v-0.3h17.7l18.2,53.5l16.1-53.5h22.7
		L831.6,436.6z"/>
	<path d="M901.4,384.2h38.1v18.3h-38.1v15h43.7V436H880v-86.2h65.1v18.6h-43.7V384.2z"/>
	<path d="M990.2,421.2l-5.7,14.8h-22.8l36.6-86.7h20.4l36.5,86.7h-22.7l-5.8-14.8H990.2z M1008.4,374.3L997.3,403h22.3L1008.4,374.3
		z"/>
	<path d="M1110.9,436.6h-21.5l-37.4-86.7h23.6l24.6,58.4l24.6-58.4h23.6L1110.9,436.6z"/>
	<path d="M1188.1,384.2h38.1v18.3h-38.1v15h43.7V436h-65.1v-86.2h65.1v18.6h-43.7V384.2z"/>
</g>
</svg>
