<?xml version="1.0" encoding="utf-8"?>
<!-- Generator: Adobe Illustrator 23.0.3, SVG Export Plug-In . SVG Version: 6.00 Build 0)  -->
<svg version="1.1" id="Layer_1" xmlns="http://www.w3.org/2000/svg" xmlns:xlink="http://www.w3.org/1999/xlink" x="0px" y="0px"
	 viewBox="0 0 194 69" style="enable-background:new 0 0 194 69;" xml:space="preserve">
<style type="text/css">
	.st0{fill:none;stroke:#FF294E;stroke-width:6;}
	.st1{fill:#FF294E;stroke:#FF294E;stroke-width:3;}
	.st2{enable-background:new    ;}
	.st3{fill:#FF294E;}
</style>
<g>
	<g>
		<path class="st0" d="M71,35c0,13.5-11.2,24.5-25,24.5S21,48.5,21,35s11.2-24.5,25-24.5S71,21.5,71,35z"/>
		<path class="st1" d="M44.4,21.5h3.2v11.9H59v3H47.6v12h-3.2v-12H33v-3h11.4V21.5z"/>
	</g>
	<g class="st2">
		<path class="st3" d="M88.2,15.5h5.1c3,0,4.4,1.2,4.4,3.3c0,1.2-0.5,2.4-2,3v0c1.9,0.5,2.7,1.7,2.7,3.4c0,2.2-1.4,3.8-4.4,3.8h-5.8
			V15.5z M93,20.9c1,0,1.6-0.4,1.6-1.3c0-0.8-0.4-1.3-1.7-1.3h-1.6v2.6H93z M93.5,26.2c1.1,0,1.7-0.5,1.7-1.4c0-0.9-0.6-1.5-1.8-1.5
			h-2.1v2.9H93.5z"/>
		<path class="st3" d="M108.9,25.1h-6.3c0.2,1.1,1.1,1.6,2.2,1.6c0.8,0,1.5-0.3,2.2-1l1.7,1.7c-0.8,1-2.1,1.7-4.2,1.7
			c-2.8,0-4.9-1.9-4.9-4.8c0-2.8,2-4.8,4.8-4.8c2.6,0,4.5,2,4.5,4.7C108.9,24.5,108.9,25,108.9,25.1z M102.6,23.4h3.5
			c-0.2-0.9-0.8-1.5-1.7-1.5C103.4,21.9,102.8,22.4,102.6,23.4z"/>
		<path class="st3" d="M110,24.4c0-2.9,2-4.8,4.9-4.8c1.4,0,3,0.5,4,1.6l-1.9,1.9c-0.4-0.6-1.2-0.9-1.8-0.9c-1.3,0-2.2,0.9-2.2,2.2
			c0,1.3,0.9,2.2,2.2,2.2c0.8,0,1.4-0.3,2-0.9l1.8,1.9c-0.8,1-2.2,1.6-4.1,1.6C112.1,29.2,110,27.2,110,24.4z"/>
		<path class="st3" d="M120,24.4c0-2.8,2-4.8,5-4.8c2.9,0,5,2,5,4.8c0,2.8-2.1,4.8-5,4.8C122,29.2,120,27.2,120,24.4z M127,24.4
			c0-1.3-0.9-2.2-2-2.2c-1.2,0-2,0.9-2,2.2c0,1.2,0.9,2.2,2,2.2C126.1,26.5,127,25.6,127,24.4z"/>
		<path class="st3" d="M131.6,19.7h3v1.1h0c0.7-0.8,1.7-1.3,2.6-1.3c1.2,0,2.1,0.4,2.7,1.4h0c0.7-0.9,1.8-1.4,3.1-1.4
			c2,0,3.3,1.1,3.3,4V29h-3v-4.7c0-1.2-0.3-2.1-1.3-2.1c-0.9,0-1.6,0.7-1.6,2.2V29h-3v-4.7c0-1.2-0.4-2.1-1.3-2.1
			c-0.9,0-1.6,0.7-1.6,2.2V29h-3V19.7z"/>
		<path class="st3" d="M157.1,25.1h-6.3c0.2,1.1,1.1,1.6,2.2,1.6c0.8,0,1.5-0.3,2.2-1l1.7,1.7c-0.8,1-2.1,1.7-4.2,1.7
			c-2.8,0-4.9-1.9-4.9-4.8c0-2.8,2-4.8,4.8-4.8c2.6,0,4.5,2,4.5,4.7C157.2,24.5,157.2,25,157.1,25.1z M150.8,23.4h3.5
			c-0.2-0.9-0.8-1.5-1.7-1.5C151.7,21.9,151,22.4,150.8,23.4z"/>
	</g>
	<g class="st2">
		<path class="st3" d="M87.5,48.4c0-2.8,1.8-4.8,4.2-4.8c1,0,1.9,0.4,2.6,1.2l0,0v-1h3V53h-2.8v-1l0,0c-0.6,0.8-1.4,1.2-2.6,1.2
			C89.4,53.2,87.5,51.2,87.5,48.4z M94.5,48.4c0-1.3-0.9-2.2-2-2.2c-1.1,0-2,0.9-2,2.2c0,1.3,0.8,2.2,2,2.2
			C93.6,50.5,94.5,49.7,94.5,48.4z"/>
		<path class="st3" d="M103.3,51l1.9-2.3c1,1.1,2.3,1.6,3.2,1.6c1.1,0,1.5-0.5,1.5-1.1c0-0.7-0.5-1.1-2-1.6
			c-2.1-0.7-4.1-1.7-4.1-4.3c0-2.2,1.9-3.9,4.4-4c1.8,0,3.4,0.6,4.7,1.7l-1.8,2.3c-1.2-0.9-2-1.3-2.8-1.3c-0.8,0-1.3,0.4-1.3,1
			c0,0.6,0.5,1,1.9,1.6c2.4,0.9,4.2,1.5,4.2,4.1c0,3.2-2.7,4.3-5,4.3C106.5,53.2,104.7,52.5,103.3,51z"/>
		<path class="st3" d="M114.8,43.7h3v1h0c0.7-0.8,1.6-1.2,2.6-1.2c2.4,0,4.2,2,4.2,4.8c0,2.9-1.8,4.8-4.4,4.8
			c-1.1,0-1.9-0.4-2.5-1.1l0,0v4.7h-3V43.7z M121.7,48.4c0-1.3-0.9-2.2-2-2.2c-1.2,0-2.1,0.9-2.1,2.2c0,1.3,0.9,2.2,2.1,2.2
			C120.8,50.5,121.7,49.7,121.7,48.4z"/>
		<path class="st3" d="M125.8,48.4c0-2.8,2-4.8,5-4.8c2.9,0,5,2,5,4.8c0,2.8-2.1,4.8-5,4.8C127.8,53.2,125.8,51.2,125.8,48.4z
			 M132.8,48.4c0-1.3-0.9-2.2-2-2.2c-1.2,0-2,0.9-2,2.2c0,1.2,0.9,2.2,2,2.2C132,50.5,132.8,49.6,132.8,48.4z"/>
		<path class="st3" d="M137.4,43.7h3v1.1h0c0.7-0.8,1.7-1.3,2.8-1.3c1.9,0,3.3,1,3.3,3.9V53h-3v-4.8c0-1.5-0.5-2-1.5-2
			c-1,0-1.7,0.7-1.7,2.1V53h-3V43.7z"/>
		<path class="st3" d="M147.8,51.8l1.4-1.9c0.8,0.7,1.6,1,2.4,1c0.6,0,0.9-0.2,0.9-0.6c0-0.3-0.3-0.5-1.4-0.9
			c-1.6-0.5-2.9-1.2-2.9-3c0-1.9,1.5-3,3.5-3c1.4,0,2.4,0.4,3.5,1.2l-1.4,2.1c-0.6-0.6-1.4-1-2.1-1c-0.3,0-0.7,0.2-0.7,0.5
			c0,0.3,0.3,0.5,1.3,0.8c2.1,0.7,3.2,1.2,3.2,3.1c0,1.7-1.2,3-3.8,3C150.1,53.2,148.8,52.7,147.8,51.8z"/>
		<path class="st3" d="M156.4,48.4c0-2.8,2-4.8,5-4.8c2.9,0,5,2,5,4.8c0,2.8-2.1,4.8-5,4.8C158.4,53.2,156.4,51.2,156.4,48.4z
			 M163.5,48.4c0-1.3-0.9-2.2-2-2.2c-1.2,0-2,0.9-2,2.2c0,1.2,0.9,2.2,2,2.2C162.6,50.5,163.5,49.6,163.5,48.4z"/>
		<path class="st3" d="M168.1,43.7h3V45h0c0.7-0.9,1.7-1.5,2.7-1.5h0.1v3.2c-0.3,0-0.6,0-0.7,0c-1.4,0-2.1,0.9-2.1,2.1V53h-3V43.7z"
			/>
	</g>
</g>
</svg>
