<?xml version="1.0" encoding="UTF-8"?>
<svg width="1207px" height="141px" viewBox="0 0 1207 141" version="1.1" xmlns="http://www.w3.org/2000/svg" xmlns:xlink="http://www.w3.org/1999/xlink">
    <!-- Generator: Sketch 56.2 (81672) - https://sketch.com -->
    <title>Synthetix Logo</title>
    <desc>Created with Sketch.</desc>
    <g id="Page-1" stroke="none" stroke-width="1" fill="none" fill-rule="evenodd">
        <g id="Synthetix-Logo">
            <path d="M153,6 L173.280646,6 L214.239599,73.0185449 L255.795041,6 L275.280368,6 L222.789283,91.1212553 L222.789283,141 L205.491085,141 L205.491085,91.1212553 L153,6 Z M312.490368,141 L312.490368,6.19258203 L328.396758,6.19258203 L403.156787,110.186876 L403.156787,6.19258203 L420.057326,6.19258203 L420.057326,141 L404.150937,141 L329.390907,37.0057061 L329.390907,141 L312.490368,141 Z M460.448604,6.19258203 L568.015562,6.19258203 L568.015562,21.5991441 L522.881182,21.5991441 L522.881182,141 L505.582984,141 L505.582984,21.5991441 L460.448604,21.5991441 L460.448604,6.19258203 Z M608.40684,6 L625.705039,6 L625.705039,64.7375178 L697.68145,64.7375178 L697.68145,6 L714.979649,6 L714.979649,141 L697.68145,141 L697.68145,80.1440799 L625.705039,80.1440799 L625.705039,141 L608.40684,141 L608.40684,6 Z M763.920611,6.19258203 L852.598732,6.19258203 L852.598732,21.5991441 L781.21881,21.5991441 L781.21881,64.7375178 L840.66894,64.7375178 L840.66894,80.1440799 L781.21881,80.1440799 L781.21881,125.593438 L855.18352,125.593438 L855.18352,141 L763.920611,141 L763.920611,6.19258203 Z M884.837986,6.19258203 L992.404943,6.19258203 L992.404943,21.5991441 L947.270564,21.5991441 L947.270564,141 L929.972365,141 L929.972365,21.5991441 L884.837986,21.5991441 L884.837986,6.19258203 Z M1032.79622,6.19258203 L1050.09442,6.19258203 L1050.09442,141 L1032.79622,141 L1032.79622,6.19258203 Z M1138.60253,72.0556348 L1094.26347,6.19258203 L1114.54411,6.19258203 L1149.737,58.574893 L1185.32754,6.19258203 L1204.01755,6.19258203 L1159.67849,72.0556348 L1207,141 L1186.52052,141 L1148.34519,85.5363766 L1109.97103,141 L1091.28102,141 L1138.60253,72.0556348 Z" id="YNTHETIX" fill="#090818" fill-rule="nonzero"></path>
            <g id="Group">
                <polygon id="Path" fill="#8E8C98" points="17.7608282 135.36 2.92307692 125.148684 96.2391718 0 111.076923 10.2113157"></polygon>
                <path d="M66.5381899,61.6138242 C71.6794363,61.6138242 75.8472401,65.4968979 75.8472401,70.2869121 C75.8472401,75.0769263 71.6794363,78.96 66.5381899,78.96 L42.3729157,78.96 C18.9727689,78.96 0,61.2870983 0,39.4818564 C0,17.6766145 18.9687838,0 42.3729157,0 L104.69095,0 C108.016753,0 111.089922,1.65308116 112.752824,4.3365439 C114.415725,7.02000665 114.415725,10.3261691 112.752824,13.0096319 C111.089922,15.6930946 108.016753,17.3461758 104.69095,17.3461758 L42.3729157,17.3461758 C29.3723879,17.5030533 18.9218097,27.3666078 18.9218097,39.48 C18.9218097,51.5933922 29.3723879,61.4569467 42.3729157,61.6138242 L66.5381899,61.6138242 Z" id="Path" fill="#090818"></path>
                <path d="M47.4618103,79.3845446 C42.3205638,79.3845446 38.1527601,75.5018361 38.1527601,70.7122723 C38.1527601,65.9227086 42.3205638,62.04 47.4618103,62.04 L71.6270844,62.04 C95.0272312,62.04 114,79.7149523 114,101.518144 C114,123.321335 95.0312162,141 71.6270844,141 L9.30905059,141 C5.98324719,141 2.91007805,139.347074 1.24717631,136.663864 C-0.415725436,133.980653 -0.415725436,130.674802 1.24717631,127.991591 C2.91007805,125.308381 5.98324719,123.655455 9.30905059,123.655455 L71.6270844,123.655455 C84.7487075,123.655455 95.3858846,113.745905 95.3858846,101.521856 C95.3858846,89.297807 84.7487075,79.3882571 71.6270844,79.3882571 L47.4618103,79.3882571 L47.4618103,79.3845446 Z" id="Path" fill="#090818"></path>
            </g>
        </g>
    </g>
</svg>