<svg xmlns="http://www.w3.org/2000/svg" xmlns:xlink="http://www.w3.org/1999/xlink" width="870" height="311" viewBox="0 0 870 311">
    <defs>
        <path id="a" d="M.011.248h95.652v52.595H.01z"/>
        <path id="c" d="M0 .256h102.747v132.663H0z"/>
    </defs>
    <g fill="none" fill-rule="evenodd">
        <text fill="#141314" font-family="Averta-Extrabold, Averta" font-size="72" font-weight="600" letter-spacing=".007">
            <tspan x="0" y="115">D</tspan>
        </text>
        <text fill="#141314" font-family="Averta-Extrabold, Averta" font-size="72" font-weight="600" letter-spacing=".007">
            <tspan x="158" y="115">A</tspan>
        </text>
        <text fill="#141314" font-family="Averta-Extrabold, Averta" font-size="72" font-weight="600" letter-spacing=".007">
            <tspan x="4" y="224">C</tspan>
        </text>
        <text fill="#141314" font-family="Averta-Extrabold, Averta" font-size="72" font-weight="600" letter-spacing=".007">
            <tspan x="538" y="115">P</tspan>
        </text>
        <text fill="#141314" font-family="Averta-Extrabold, Averta" font-size="72" font-weight="600" letter-spacing=".007">
            <tspan x="690" y="115">P</tspan>
        </text>
        <text fill="#141314" font-family="Averta-Extrabold, Averta" font-size="72" font-weight="600" letter-spacing=".007">
            <tspan x="155" y="224">O</tspan>
        </text>
        <text fill="#141314" font-family="Averta-Extrabold, Averta" font-size="72" font-weight="600" letter-spacing=".007">
            <tspan x="532" y="224">N</tspan>
        </text>
        <text fill="#000" font-family="Averta-Extrabold, Averta" font-size="16" font-weight="600">
             <tspan x="638" y="186">8 - 10 Sept. 2020</tspan> <tspan x="638" y="206">at Radialsystem, Berlin</tspan>
        </text>
        <path fill="#E11647" d="M382.828 6.237l-1.55 2.316-3.098 4.663-3.086 4.68-3.069 4.689-3.053 4.7-3.037 4.708-4.525 7.074-5.987 9.464-5.94 9.495-5.897 9.52-5.858 9.54-5.825 9.557-5.796 9.568-8.655 14.365-11.497 19.164-11.487 19.145-5.75 9.55c-1.18 1.959-.874 3.555.684 3.565 1.557.01 3.777-1.57 4.956-3.53l5.762-9.57 11.487-19.144 11.484-19.141 8.635-14.335 5.778-9.537 5.801-9.516 5.828-9.492 5.861-9.465 5.902-9.433 5.948-9.401 4.495-7.028 3.01-4.668 3.025-4.657 3.04-4.645 3.055-4.633 3.075-4.627 1.55-2.318c1.306-1.952 1.186-3.674-.27-3.846-1.453-.172-3.69 1.27-4.996 3.223"/>
        <path fill="#000" d="M383.125 14.479l1.175 1.866 2.34 3.742 3.491 5.637 4.624 7.554 4.6 7.589 6.883 11.428 6.896 11.45 4.624 7.629 4.658 7.611 3.525 5.693 2.367 3.786 2.381 3.774 2.398 3.763 2.417 3.75 2.436 3.737 2.456 3.722 2.48 3.705 2.503 3.688 2.53 3.668 2.554 3.647 2.585 3.627 2.613 3.603 2.645 3.579 1.336 1.782.002.003.027.035.072.095.092.123.114.15.133.178.153.203.17.228.19.251.205.275.221.296.238.317.252.338.266.356.28.374.29.39.304.408.313.423.325.437.503.68.7.947.727.987.748 1.02.762 1.044 1.159 1.594 1.541 2.142 1.125 1.581.724 1.028.697 1 .663.963.47.692.3.446.288.431.276.418.262.401.248.385.232.366.216.347.2.326.18.305.163.28.142.257.12.228.099.198.073.162.046.119.015.059-.017-.04-.035-.266.21-1.11 1.865-2.683 1.579-1.178-.032.018.921-.419.623-.146.257-.015.087.002-.005-.007-.06-.024-.1-.04-.13-.057-.152-.072-.27-.14-.41-.23-.453-.273-.498-.317-.534-.353-.566-.387-.59-.414-.612-.44-.627-.458-.963-.718-1.298-.989-1.284-.994-.932-.732-.601-.473-.579-.458-.553-.44-.523-.414-.489-.388-.45-.357-.409-.321-.277-.217-.17-.132-.158-.122-.145-.11-.133-.1-.12-.089-.108-.078-.1-.068-.055-.037a.152.152 0 0 0-.013-.008l-1.138-.728-2.306-1.444-2.332-1.42-2.356-1.396-2.376-1.37-2.397-1.344-2.419-1.32-2.436-1.294-2.454-1.269-2.472-1.244-2.488-1.22-2.504-1.194-2.518-1.17-2.531-1.144-2.545-1.12-2.556-1.096-2.567-1.071-2.577-1.047-2.587-1.022-2.594-.998-2.602-.973-2.608-.95-2.614-.925-2.618-.901-2.623-.876-2.625-.854-2.626-.828-2.629-.805-2.627-.781-2.628-.758-2.626-.733-2.623-.71-1.314-.347c-1.327-.35-3.569.917-5.005 2.833-1.436 1.915-1.525 3.751-.197 4.103l1.295.342 2.6.703 2.602.727 2.603.75 2.605.774 2.604.797 2.604.822 2.601.845 2.599.869 2.596.893 2.59.916 2.585.94 2.578.965 2.571.989 2.563 1.012 2.553 1.037 2.545 1.062 2.532 1.085 2.52 1.11 2.508 1.134 2.495 1.158 2.479 1.183 2.464 1.207 2.447 1.232 2.43 1.257 2.413 1.28 2.392 1.307 2.373 1.33 2.352 1.355 2.33 1.38 2.307 1.405 2.287 1.432 1.14.728-.014-.008.014.008.063.044.085.06.102.077.121.09.136.103.15.116.164.127.271.212.405.319.448.354.488.388.524.416.555.44.582.46.606.478.942.74 1.3 1.006 1.316 1.003.98.73.644.47.63.453.616.432.594.406.572.378.546.347.52.312.487.272.346.176.23.108.23.097.232.088.245.077.274.065.338.045.479-.003.813-.165 1.082-.47.036-.02a8.136 8.136 0 0 0 1.578-1.178l1.91-2.724.256-1.235-.039-.45-.067-.282-.08-.239-.095-.232-.11-.24-.127-.254-.144-.272-.161-.29-.179-.309-.195-.327-.21-.345-.227-.363-.24-.38-.256-.396-.27-.413-.28-.426-.294-.44-.307-.455-.478-.702-.67-.973-.703-1.01-.73-1.037-1.133-1.592-1.547-2.15-1.163-1.6-.765-1.047-.75-1.022-.729-.99-.701-.95-.505-.682-.325-.438-.315-.424-.304-.408-.292-.393-.28-.374-.266-.358-.253-.337-.237-.318-.223-.298-.206-.274-.19-.253-.171-.228-.153-.204-.134-.178-.114-.151-.093-.125-.072-.094-.027-.037.001.002-1.326-1.768-2.633-3.563-2.602-3.587-2.573-3.611-2.546-3.634-2.52-3.654-2.494-3.674-2.471-3.694-2.45-3.71-2.429-3.726-2.41-3.74-2.393-3.755-2.376-3.767-2.36-3.775-3.519-5.683-4.654-7.604-4.62-7.622-6.896-11.45-6.886-11.434-4.606-7.598-4.63-7.565-3.496-5.645-2.344-3.748-1.176-1.867c-.67-1.064-2.703-.604-4.541 1.027-1.838 1.632-2.785 3.816-2.115 4.879"/>
        <path fill="#000" d="M381 112.671l.056 6.186.113 12.378.115 9.291.105 6.2.134 6.2.173 6.203.217 6.203.269 6.204.327 6.203.395 6.203.467 6.202.548 6.2.468 4.652.341 3.102.366 3.097.39 3.098.206 1.551c.19 1.443 1.978 1.55 3.992.237 2.014-1.312 3.492-3.545 3.302-4.989l-.203-1.53-.387-3.068-.362-3.07-.337-3.067-.465-4.608-.544-6.15-.464-6.156-.391-6.161-.326-6.166-.268-6.17-.217-6.172-.171-6.177-.135-6.18-.104-6.181-.114-9.279-.115-12.377-.055-6.187c-.015-1.552-1.666-1.853-3.69-.671-2.023 1.181-3.65 3.397-3.636 4.95"/>
        <path fill="#E11647" d="M290.941 160.615l1.515-.694 3.071-1.445 3.07-1.487 3.05-1.52 3.034-1.549 3.018-1.573 3.003-1.596 2.99-1.614 4.454-2.442 5.91-3.293 5.885-3.31 5.863-3.293 5.852-3.253 4.382-2.396 2.918-1.567 2.929-1.548 2.934-1.52 2.941-1.491 2.95-1.458 2.96-1.422 2.971-1.384 2.984-1.34 3-1.298 3.016-1.25 3.036-1.2 3.056-1.147 3.078-1.09 1.526-.517c1.867-.631 3.876-2.649 4.486-4.507.61-1.858-.409-2.852-2.276-2.221l-1.652.56-3.243 1.15-3.215 1.209-3.191 1.262-3.166 1.314-3.143 1.36-3.12 1.404-3.1 1.444-3.079 1.48-3.058 1.512-3.04 1.542-3.024 1.567-3.008 1.59-3 1.612-4.465 2.44-5.904 3.283-5.867 3.296-5.84 3.284-5.833 3.25-4.377 2.401-2.914 1.574-2.918 1.55-2.92 1.524-2.928 1.495-2.935 1.463-2.944 1.427-2.97 1.397-1.52.697c-1.934.888-3.779 3.026-4.119 4.777-.34 1.75.952 2.449 2.887 1.56"/>
        <g transform="translate(390 154)">
            <mask id="b" fill="#fff">
                <use xlink:href="#a"/>
            </mask>
            <path fill="#000" d="M3.477 52.19l2.679-1.539 5.347-3.023 5.372-2.973 5.409-2.936 5.441-2.901 5.472-2.871 5.498-2.843 5.522-2.818 5.543-2.797 5.558-2.779 8.367-4.143 11.178-5.49L86.05 9.601l5.59-2.744c1.948-.955 3.735-3.107 3.993-4.807.257-1.7-1.113-2.304-3.061-1.348L86.99 3.44 75.793 8.922 64.578 14.43l-8.408 4.164-5.6 2.8-5.592 2.822-5.58 2.848-5.566 2.878-5.548 2.911-5.529 2.948-5.502 2.987-5.478 3.033-5.433 3.07-2.682 1.543C1.696 47.564.063 49.768.012 51.358c-.05 1.59 1.5 1.962 3.465.832" mask="url(#b)"/>
        </g>
        <path fill="#000" d="M298.64 165.854l.847.456 1.668.903 1.639.888 1.608.873 1.58.861 1.554.848 1.526.836 1.501.824 1.475.812 1.452.8 1.428.79 1.407.78 1.384.77 1.364.76 1.344.751 1.325.743 1.307.734 1.29.727 1.904 1.077 2.485 1.412 2.432 1.388 2.386 1.369 2.346 1.351 2.312 1.339 2.286 1.328 3.395 1.983 4.497 2.64 3.381 1.992 2.271 1.341 2.293 1.355 2.32 1.373 2.357 1.393 2.397 1.417 2.447 1.445 1.87 1.103 1.266.747 1.282.754 1.299.766 1.316.773 1.335.783 1.354.795 1.375.805 1.396.816 1.417.829.718.418c1.096.64 3.31-.325 4.945-2.157 1.635-1.833 2.071-3.838.974-4.479l-.716-.417-1.417-.829-1.394-.815-1.374-.805-1.353-.793-1.334-.783-1.316-.774-1.297-.763-1.281-.754-1.266-.747-1.87-1.102-2.445-1.445-2.397-1.417-2.356-1.393-2.321-1.373-2.294-1.355-2.273-1.342-3.384-1.995-4.502-2.643-3.4-1.984-2.289-1.332-2.316-1.34-2.35-1.354-2.39-1.371-2.437-1.391-2.49-1.414-1.907-1.079-1.293-.728-1.308-.736-1.328-.744-1.346-.752-1.367-.762-1.387-.772-1.408-.78-1.43-.792-1.455-.802-1.478-.813-1.503-.825-1.528-.837-1.556-.849-1.582-.862-1.612-.875-1.64-.89-1.67-.902-.847-.457c-1.126-.608-3.348.394-4.962 2.237-1.615 1.844-2.011 3.831-.885 4.439M290.478 177.818l.871.682 1.733 1.347 1.714 1.32 1.697 1.294 1.68 1.269 1.662 1.242 1.646 1.219 1.63 1.194 1.613 1.172 1.6 1.148 1.583 1.127 1.57 1.106 1.556 1.085 1.544 1.066 1.53 1.047 1.519 1.028 1.506 1.01 1.495.994 1.485.977 1.474.961 1.465.947 1.455.932 2.166 1.372 2.86 1.787 2.832 1.743 2.808 1.702 2.787 1.67 2.771 1.64 2.757 1.617 4.12 2.395 5.487 3.164 4.126 2.375 2.763 1.596 2.777 1.61 2.797 1.63 2.819 1.658 2.845 1.69 2.877 1.728 2.911 1.77 2.208 1.359 1.484.921 1.496.937 1.508.95.757.481c1.067.678 3.267-.265 4.915-2.105 1.648-1.84 2.119-3.882 1.052-4.558l-.763-.485-1.514-.956-1.504-.94-1.493-.928-2.218-1.365-2.922-1.777-2.887-1.733-2.855-1.695-2.826-1.662-2.801-1.634-2.782-1.613-2.765-1.596-4.125-2.375-5.48-3.16-4.111-2.39-2.75-1.613-2.76-1.634-2.775-1.662-2.795-1.695-2.819-1.733-2.847-1.778-2.156-1.367-1.447-.927-1.456-.941-1.466-.956-1.477-.972-1.486-.987-1.498-1.005-1.51-1.022-1.521-1.041-1.535-1.06-1.547-1.079-1.561-1.1-1.576-1.12-1.59-1.142-1.605-1.165-1.62-1.188-1.637-1.212-1.654-1.236-1.67-1.261-1.689-1.287-1.706-1.315-1.726-1.341-.873-.684c-.982-.769-3.156.07-4.856 1.874-1.699 1.804-2.28 3.89-1.297 4.659"/>
        <path fill="#000" d="M391.475 234.338l1.494-.866 2.98-1.738 2.946-1.734 2.912-1.728 2.879-1.72 2.846-1.715 2.817-1.71 2.79-1.704 2.763-1.699 2.742-1.693 4.068-2.531 5.36-3.362 5.309-3.353 7.888-5.012 7.857-5.007 5.244-3.336 5.27-3.34 5.312-3.35 4.02-2.516 2.7-1.681 2.724-1.687 2.746-1.692 1.378-.845c1.96-1.202 3.52-3.423 3.48-4.961-.04-1.538-1.661-1.81-3.622-.608l-1.403.86-2.777 1.71-2.751 1.705-2.732 1.7-4.058 2.542-5.344 3.368-5.29 3.354-5.252 3.342-7.84 4.995-7.856 4.99-5.268 3.33-5.32 3.336-4.03 2.507-2.709 1.674-2.73 1.678-2.752 1.681-2.78 1.686-2.806 1.69-2.836 1.697-2.869 1.702-2.904 1.709-2.945 1.718-1.497.868c-1.962 1.138-3.586 3.346-3.629 4.932-.042 1.587 1.514 1.951 3.475.814"/>
        <path fill="#000" d="M387.852 308.231l1.558-1.998 3.113-3.997 3.097-3.99 3.082-3.985 4.591-5.964 6.07-7.943 6.013-7.941 5.96-7.952 5.905-7.97 5.857-8.002 4.364-6.033 2.897-4.04 2.882-4.048 2.871-4.064 2.86-4.08 2.851-4.098 2.84-4.117 2.83-4.138 2.822-4.16 2.812-4.183 2.804-4.207 2.795-4.235 2.786-4.26 2.78-4.291 2.77-4.32 2.765-4.351 1.384-2.196c1.232-1.953.995-3.594-.527-3.666-1.523-.071-3.756 1.454-4.988 3.407l-1.357 2.153-2.729 4.297-2.736 4.265-2.744 4.236-2.751 4.208-2.76 4.18-2.768 4.156-2.777 4.13-2.787 4.11-2.796 4.088-2.806 4.068-2.816 4.049-2.828 4.033-2.839 4.018-2.85 4.003-2.857 3.986-4.312 5.961-5.8 7.925-5.853 7.9-5.91 7.885-5.97 7.884-6.034 7.896-4.568 5.935-3.064 3.961-3.082 3.972-3.101 3.983-1.56 2c-1.488 1.907-1.662 3.798-.39 4.223 1.274.426 3.513-.775 5-2.683"/>
        <g transform="translate(287 173)">
            <mask id="d" fill="#fff">
                <use xlink:href="#c"/>
            </mask>
            <path fill="#000" d="M.26 6.852l1.446 1.996 2.918 3.984 2.944 3.965 2.968 3.946 2.99 3.93 3.009 3.916 3.026 3.902 3.042 3.889 4.584 5.815 6.147 7.728 6.169 7.71 6.173 7.703 6.161 7.71 6.132 7.73 4.567 5.819 3.028 3.89 3.01 3.903 2.992 3.917 2.97 3.932 2.947 3.95 2.921 3.967 2.894 3.987 2.864 4.009 2.832 4.032 2.797 4.057 2.762 4.083 1.366 2.05c.696 1.045 2.737.548 4.557-1.112 1.821-1.66 2.734-3.852 2.038-4.899l-1.375-2.064-2.773-4.1-2.81-4.073-2.843-4.048-2.873-4.023-2.903-4-2.93-3.979-2.956-3.96-2.977-3.942-2.998-3.926-3.016-3.91-3.034-3.899-4.575-5.826-6.136-7.737-6.164-7.713-6.172-7.702-6.164-7.704-6.141-7.72-4.58-5.808-3.036-3.883-3.02-3.894-3.001-3.905-2.982-3.92-2.96-3.936-2.936-3.954-2.91-3.972L6.802.765c-.734-1.012-2.793-.469-4.6 1.212C.398 3.658-.472 5.841.26 6.852" mask="url(#d)"/>
        </g>
        <text fill="#E11647" font-family="Averta-Extrabold, Averta" font-size="17.1" font-weight="600" transform="rotate(-25 341.408 114.5)">
            <tspan x="313.731" y="121">Tickets</tspan>
        </text>
        <path fill="#E11647" d="M382.329 5.753l.077 3.44.102 6.86.04 6.854-.015 6.853-.06 6.853-.1 6.853-.203 10.285-.332 13.717-.345 13.723-.227 10.301-.122 6.875-.09 6.876-.048 6.881-.006 3.447c-.004 1.575 1.438 1.897 3.22.72 1.781-1.177 3.228-3.408 3.231-4.983l.007-3.42.048-6.85.09-6.852.12-6.852.228-10.286.344-13.727.333-13.74.204-10.313.1-6.882.06-6.888.015-6.893-.04-6.898-.104-6.896-.077-3.442c-.035-1.55-1.508-1.825-3.288-.614-1.782 1.21-3.197 3.449-3.162 4.998"/>
    </g>
</svg>
