<?xml version="1.0" standalone="no"?>
<!DOCTYPE svg PUBLIC "-//W3C//DTD SVG 20010904//EN"
 "http://www.w3.org/TR/2001/REC-SVG-20010904/DTD/svg10.dtd">
<svg version="1.0" xmlns="http://www.w3.org/2000/svg"
 width="9001.000000pt" height="1711.000000pt" viewBox="0 0 9001.000000 1711.000000"
 preserveAspectRatio="xMidYMid meet">
<metadata>
Created by potrace 1.15, written by Peter Selinger 2001-2017
</metadata>
<g transform="translate(0.000000,1711.000000) scale(0.100000,-0.100000)"
fill="#333" stroke="none">
<path d="M77452 15828 c-9 -9 -12 -453 -12 -1935 l0 -1923 -45 0 c-34 0 -47
-5 -55 -19 -6 -11 -10 -87 -10 -175 l0 -156 -116 0 c-63 0 -124 -5 -135 -10
-18 -10 -19 -23 -19 -173 0 -114 4 -167 12 -175 7 -7 34 -12 60 -12 l48 0 0
-357 0 -358 -58 -25 c-142 -61 -317 -209 -409 -345 -272 -404 -232 -927 99
-1280 73 -78 169 -152 261 -200 l67 -36 0 -130 0 -129 -48 0 c-26 0 -53 -5
-60 -12 -8 -8 -12 -60 -12 -168 0 -108 4 -160 12 -168 7 -7 34 -12 60 -12 46
0 48 -1 48 -27 0 -71 -220 -7674 -226 -7791 l-6 -132 -1254 0 -1254 0 0 378
c0 281 -3 381 -12 390 -8 8 -49 12 -120 12 l-108 0 0 650 0 649 118 3 117 3 3
319 c2 227 -1 323 -9 332 -9 11 -43 14 -135 14 l-124 0 0 593 c0 520 -2 595
-16 615 l-15 22 -829 0 -829 0 -15 -22 c-14 -19 -16 -67 -16 -325 l0 -303
-354 0 c-309 0 -357 -2 -370 -16 -14 -13 -16 -54 -16 -290 l0 -274 -105 0
-105 0 0 224 c0 178 -3 226 -14 235 -9 8 -60 11 -157 9 l-144 -3 -3 -233 -2
-232 -135 0 -135 0 0 223 c0 160 -3 226 -12 235 -13 13 -262 18 -292 6 -14 -5
-16 -36 -16 -235 l0 -229 -135 0 -135 0 0 223 c0 160 -3 226 -12 235 -8 8 -56
12 -148 12 -92 0 -140 -4 -148 -12 -9 -9 -12 -75 -12 -235 l0 -223 -220 0
-220 0 0 704 c0 627 -2 706 -16 720 -12 13 -39 16 -124 16 -85 0 -112 -3 -124
-16 -14 -13 -16 -55 -16 -305 l0 -289 -45 0 c-50 0 -48 -4 -59 127 -13 145
-59 309 -132 462 -197 417 -596 723 -1054 808 -131 24 -401 24 -525 -1 -470
-92 -846 -382 -1050 -809 -77 -160 -120 -322 -141 -529 l-5 -58 -45 0 -44 0 0
283 c0 240 -2 286 -16 305 -14 20 -23 22 -120 22 -58 0 -114 -5 -125 -10 -19
-10 -19 -29 -19 -720 l0 -710 -220 0 -220 0 0 218 c0 159 -3 223 -13 235 -11
16 -30 17 -157 15 l-145 -3 -3 -232 -2 -233 -135 0 -135 0 0 224 c0 178 -3
226 -14 235 -9 8 -60 11 -157 9 l-144 -3 -3 -233 -2 -232 -135 0 -135 0 0 223
c0 160 -3 226 -12 235 -17 17 -279 17 -296 0 -9 -9 -12 -75 -12 -235 l0 -223
-110 0 -110 0 0 280 c0 266 -1 280 -19 290 -13 6 -148 10 -370 10 l-351 0 0
315 c0 300 -1 315 -19 325 -13 7 -294 10 -840 10 -732 0 -821 -2 -835 -16 -14
-14 -16 -83 -16 -615 l0 -599 -122 0 c-68 0 -129 -4 -136 -8 -9 -7 -12 -80
-10 -333 l3 -324 118 -3 117 -3 0 -649 0 -650 -104 0 c-57 0 -111 -3 -120 -6
-14 -5 -16 -49 -16 -390 l0 -384 -30490 0 -30490 0 0 -40 0 -40 30518 0
c23723 0 30521 3 30530 12 9 9 12 109 12 390 l0 378 2365 0 2364 0 3 -380 c3
-325 5 -382 18 -390 23 -15 553 -13 568 2 9 9 12 278 12 1150 l0 1138 115 0
115 0 0 -1140 c0 -1116 0 -1140 19 -1150 11 -5 86 -10 170 -10 138 0 151 2
161 19 7 13 10 390 10 1150 l0 1131 90 0 90 0 2 -1140 c3 -1001 5 -1142 18
-1150 23 -15 313 -13 328 2 9 9 12 278 12 1150 l0 1138 165 0 165 0 0 -1140
c0 -1116 0 -1140 19 -1150 21 -11 288 -14 315 -4 14 6 16 116 16 1150 l0 1144
95 0 95 0 0 -1134 c0 -1018 2 -1136 16 -1150 13 -13 43 -16 168 -16 105 0 156
4 164 12 9 9 12 278 12 1150 l0 1138 115 0 115 0 0 -1138 c0 -872 3 -1141 12
-1150 17 -17 559 -17 576 0 9 9 12 109 12 390 l0 378 2370 0 2370 0 0 -378 c0
-281 3 -381 12 -390 15 -15 2624 -17 2647 -3 13 8 33 626 132 4013 64 2202
117 4004 118 4006 1 1 148 2 329 2 l327 0 116 -4000 c89 -3081 119 -4003 129
-4015 11 -13 130 -15 1046 -15 1011 0 1034 0 1044 19 7 13 10 485 10 1455 l0
1436 395 0 395 0 0 -1445 c0 -1443 0 -1444 20 -1455 12 -6 30 -8 40 -5 20 6
20 23 20 1256 l0 1249 205 0 205 0 0 -1245 c0 -1220 0 -1244 19 -1255 30 -15
723 -14 739 2 9 9 12 302 12 1255 l0 1243 295 0 295 0 0 -1245 c0 -1220 0
-1244 19 -1255 30 -15 723 -14 739 2 9 9 12 302 12 1255 l0 1243 560 0 560 0
0 -1239 c0 -1114 2 -1241 16 -1255 13 -14 61 -16 369 -16 194 0 360 3 369 6
14 6 16 125 16 1255 l0 1249 300 0 300 0 0 -1249 c0 -1130 2 -1249 16 -1255 9
-3 176 -6 373 -6 264 0 360 3 369 12 9 9 12 302 12 1255 l0 1243 200 0 200 0
2 -1247 3 -1248 28 -10 c60 -21 57 -107 57 1467 l0 1438 395 0 395 0 0 -1415
c0 -937 -3 -1415 -10 -1415 -5 0 -10 -18 -10 -40 l0 -40 925 0 925 0 0 40 0
40 -875 0 -875 0 0 1673 0 1673 205 247 c210 254 228 284 186 307 -13 6 -142
10 -350 10 l-331 0 0 180 0 179 143 3 142 3 3 201 c2 153 -1 204 -10 211 -7 6
-652 92 -1433 192 -781 100 -1435 185 -1452 188 l-33 5 0 439 0 439 -230 0
-230 0 0 -172 0 -173 -39 80 c-91 185 -275 338 -464 386 l-47 11 0 149 c0 138
1 148 20 154 57 18 130 147 130 230 0 91 -63 195 -144 238 -32 17 -58 22 -121
22 -93 0 -138 -18 -196 -77 -91 -94 -92 -266 -4 -363 l35 -38 0 -156 0 -157
-56 -12 c-81 -17 -208 -82 -285 -145 -56 -47 -121 -123 -166 -193 -10 -15 -12
4 -12 99 l-1 117 -235 0 -235 0 0 -440 0 -440 -22 -5 c-26 -5 -2827 -365
-2845 -365 -6 0 -19 -7 -27 -16 -13 -13 -16 -46 -16 -203 0 -132 4 -191 12
-199 8 -8 55 -12 145 -12 l133 0 0 -180 0 -180 -329 0 c-307 0 -330 -1 -352
-19 -20 -16 -22 -22 -12 -42 6 -13 99 -130 207 -259 l195 -235 1 -1677 0
-1678 -969 0 -969 0 -6 163 c-5 125 -226 7728 -226 7776 0 7 21 11 54 11 40 0
55 4 60 16 10 27 7 304 -4 325 -8 15 -22 19 -60 19 l-50 0 0 130 0 130 53 26
c375 190 600 612 547 1030 -44 351 -268 663 -576 800 l-63 29 -1 358 0 357 48
0 c26 0 53 5 60 12 8 8 12 60 12 169 0 130 -3 160 -16 173 -12 13 -40 16 -135
16 l-119 0 0 156 c0 88 -4 164 -10 175 -8 14 -21 19 -55 19 l-45 0 0 1923 c0
1482 -3 1926 -12 1935 -8 8 -46 12 -103 12 -57 0 -95 -4 -103 -12z m138 -1963
l0 -1895 -35 0 -35 0 0 1895 0 1895 35 0 35 0 0 -1895z m100 -2110 l0 -135
-135 0 -135 0 0 135 0 135 135 0 135 0 0 -135z m280 -325 l0 -100 -415 0 -415
0 0 100 0 100 415 0 415 0 0 -100z m-130 -521 c0 -319 -1 -340 -17 -335 -123
35 -360 41 -476 13 -38 -10 -70 -17 -73 -17 -2 0 -4 153 -4 340 l0 340 285 0
285 0 0 -341z m-102 -405 c285 -59 527 -246 657 -509 74 -150 90 -223 90 -410
0 -179 -15 -250 -79 -390 -127 -274 -384 -474 -681 -530 -114 -22 -298 -16
-400 13 -335 93 -587 343 -677 673 -32 118 -32 355 0 473 93 339 376 606 717
679 94 21 277 21 373 1z m-383 -1921 c131 -30 330 -21 498 22 l27 7 0 -111 0
-111 -325 0 -325 0 0 111 0 111 28 -7 c15 -4 59 -14 97 -22z m645 -373 l0
-100 -445 0 -445 0 0 100 0 100 445 0 445 0 0 -100z m6245 -1341 c84 -24 135
-89 135 -174 0 -153 -175 -235 -291 -138 -37 31 -69 95 -69 138 0 39 31 104
63 133 23 21 87 51 112 52 6 0 28 -5 50 -11z m-5 -571 c0 -115 -2 -129 -16
-124 -9 3 -33 6 -55 6 l-39 0 0 128 0 127 55 -3 55 -4 0 -130z m140 -243 c209
-77 366 -249 420 -461 11 -43 20 -103 20 -136 l0 -58 -650 0 -650 0 0 53 c1
251 172 494 420 594 90 36 133 42 255 39 89 -3 124 -9 185 -31z m-940 -385 l0
-270 -150 0 -150 0 0 270 0 270 150 0 150 0 0 -270z m1810 0 l0 -270 -150 0
-150 0 0 270 0 270 150 0 150 0 0 -270z m-20 -432 l0 -78 -1030 0 -1030 0 0
78 0 77 1030 0 1030 0 0 -77z m1165 -310 l1110 -143 -1653 -3 c-908 -1 -2395
-1 -3302 0 l-1651 3 1088 141 1088 142 1105 1 1105 1 1110 -142z m-18624 33
c137 -86 262 -397 319 -791 18 -129 40 -376 40 -467 l0 -43 -440 0 -440 0 0
64 c0 34 5 121 10 192 40 519 172 921 342 1045 55 39 108 39 169 0z m-317 -28
c-54 -83 -87 -146 -119 -227 -95 -249 -150 -548 -162 -878 l-6 -168 -218 0
-219 0 6 78 c42 561 300 1023 668 1193 33 15 63 28 65 29 2 0 -5 -12 -15 -27z
m522 -3 c165 -71 347 -254 463 -463 113 -205 201 -532 201 -749 l0 -58 -215 0
-215 0 0 88 c0 180 -32 449 -76 652 -46 208 -130 425 -200 517 -29 38 -23 40
42 13z m-879 -112 c-106 -104 -189 -223 -262 -373 -102 -209 -156 -405 -177
-647 l-12 -138 -165 0 -164 0 6 88 c12 165 81 385 171 547 88 157 275 359 426
460 61 41 234 135 248 135 2 0 -30 -33 -71 -72z m1275 -10 c381 -220 649 -638
684 -1064 l7 -84 -165 0 -165 0 -12 133 c-38 415 -189 775 -427 1012 l-84 84
48 -21 c26 -11 77 -38 114 -60z m19808 -248 l0 -130 -3975 0 -3975 0 0 130 0
130 3975 0 3975 0 0 -130z m-290 -280 l0 -70 -3685 0 -3685 0 0 70 0 70 3685
0 3685 0 0 -70z m-21840 -360 l0 -260 -55 0 -55 0 0 260 0 260 55 0 55 0 0
-260z m3390 0 l0 -260 -55 0 -55 0 0 260 0 260 55 0 55 0 0 -260z m18450 135
l0 -65 -3685 0 -3685 0 0 65 0 65 3685 0 3685 0 0 -65z m-25010 -135 l0 -50
-770 0 -770 0 0 50 0 50 770 0 770 0 0 -50z m11160 0 l0 -50 -770 0 -770 0 0
50 0 50 770 0 770 0 0 -50z m14490 -25 c0 -3 -75 -95 -166 -205 l-165 -200
-3997 0 -3997 1 -100 121 c-55 67 -131 160 -168 205 l-68 83 4330 0 c2382 0
4331 -2 4331 -5z m-26920 -300 l0 -185 -135 0 -135 0 0 185 0 185 135 0 135 0
0 -185z m910 0 l0 -185 -415 0 -415 0 0 185 0 185 415 0 415 0 0 -185z m360 0
l0 -185 -135 0 -135 0 0 185 0 185 135 0 135 0 0 -185z m9890 0 l0 -185 -135
0 -135 0 0 185 0 185 135 0 135 0 0 -185z m920 0 l0 -185 -420 0 -420 0 0 185
0 185 420 0 420 0 0 -185z m350 0 l0 -185 -135 0 -135 0 0 185 0 185 135 0
135 0 0 -185z m-4600 -430 c0 -228 -3 -415 -7 -415 -4 0 -393 178 -865 395
-471 217 -867 395 -879 395 -12 0 -408 -178 -880 -395 -471 -217 -860 -395
-863 -395 -3 0 -6 187 -6 415 l0 415 1750 0 1750 0 0 -415z m-881 -111 l844
-389 -857 -3 c-471 -1 -1242 -1 -1713 0 l-857 3 849 392 c469 217 859 391 870
389 11 -1 400 -178 864 -392z m12111 246 l0 -110 -220 0 -220 0 0 110 0 110
220 0 220 0 0 -110z m6980 0 l0 -110 -3450 0 -3450 0 0 110 0 110 3450 0 3450
0 0 -110z m530 0 l0 -110 -220 0 -220 0 0 110 0 110 220 0 220 0 0 -110z
m-24560 -225 l0 -245 -1140 0 -1140 0 0 245 0 245 1140 0 1140 0 0 -245z
m10420 0 l0 -245 -1140 0 -1140 0 0 245 0 245 1140 0 1140 0 0 -245z m-9880
-50 l0 -195 -80 0 -80 0 0 195 0 195 80 0 80 0 0 -195z m590 0 l0 -195 -80 0
-80 0 0 195 0 195 80 0 80 0 0 -195z m580 0 l0 -195 -75 0 -75 0 0 195 0 195
75 0 75 0 0 -195z m4870 0 l0 -195 -80 0 -80 0 0 195 0 195 80 0 80 0 0 -195z
m590 0 l0 -195 -80 0 -80 0 0 195 0 195 80 0 80 0 0 -195z m590 0 l0 -195 -80
0 -80 0 0 195 0 195 80 0 80 0 0 -195z m16800 25 l0 -50 -3975 0 -3975 0 0 50
0 50 3975 0 3975 0 0 -50z m-880 -300 l0 -160 -3100 0 -3100 0 0 160 0 160
3100 0 3100 0 0 -160z m-21440 -25 c0 -8 -31 -30 -70 -50 -56 -28 -70 -40 -70
-58 0 -29 18 -47 47 -47 l23 0 0 -165 0 -165 -2365 0 -2365 0 0 250 0 250
2400 0 c2118 0 2400 -2 2400 -15z m8460 -235 l0 -250 -2375 0 -2375 0 0 165 0
165 33 0 c39 0 57 15 57 47 0 20 -12 30 -70 56 -46 22 -69 38 -70 50 0 16 121
17 2400 17 l2400 0 0 -250z m-4830 -10 l0 -90 -1805 0 -1805 0 0 90 0 90 1805
0 1805 0 0 -90z m12710 -1185 l0 -1215 -305 0 -305 0 0 1215 0 1215 305 0 305
0 0 -1215z m1360 0 l0 -1215 -300 0 -300 0 0 1215 0 1215 300 0 300 0 0 -1215z
m1890 0 l0 -1215 -300 0 -300 0 0 1215 0 1215 300 0 300 0 0 -1215z m1360 0
l0 -1215 -300 0 -300 0 0 1215 0 1215 300 0 300 0 0 -1215z m-20500 -105 l0
-1110 -215 0 -215 0 0 1110 0 1110 215 0 215 0 0 -1110z m580 0 l0 -1110 -90
0 -90 0 0 1110 0 1110 90 0 90 0 0 -1110z m550 0 l0 -1110 -95 0 -95 0 0 1110
0 1110 95 0 95 0 0 -1110z m680 0 l0 -1110 -95 0 -95 0 0 1110 0 1110 95 0 95
0 0 -1110z m540 0 l0 -1110 -90 0 -90 0 0 1110 0 1110 90 0 90 0 0 -1110z
m830 0 l0 -1110 -215 0 -215 0 0 1110 0 1110 215 0 215 0 0 -1110z m-7690 320
l0 -650 -250 0 -250 0 0 650 0 650 250 0 250 0 0 -650z m480 455 l0 -195 -195
0 -195 0 0 195 0 195 195 0 195 0 0 -195z m760 -455 l0 -650 -340 0 -340 0 0
650 0 650 340 0 340 0 0 -650z m350 455 l0 -195 -135 0 -135 0 0 195 0 195
135 0 135 0 0 -195z m260 0 l0 -195 -90 0 -90 0 0 195 0 195 90 0 90 0 0 -195z
m270 0 l0 -195 -95 0 -95 0 0 195 0 195 95 0 95 0 0 -195z m260 0 l0 -195 -90
0 -90 0 0 195 0 195 90 0 90 0 0 -195z m270 0 l0 -195 -90 0 -90 0 0 195 0
195 90 0 90 0 0 -195z m260 0 l0 -195 -90 0 -90 0 0 195 0 195 90 0 90 0 0
-195z m270 0 l0 -195 -90 0 -90 0 0 195 0 195 90 0 90 0 0 -195z m270 0 l0
-195 -90 0 -90 0 0 195 0 195 90 0 90 0 0 -195z m540 0 l0 -195 -230 0 -230 0
0 195 0 195 230 0 230 0 0 -195z m4260 0 l0 -195 -240 0 -240 0 0 195 0 195
240 0 240 0 0 -195z m260 0 l0 -195 -90 0 -90 0 0 195 0 195 90 0 90 0 0 -195z
m270 0 l0 -195 -95 0 -95 0 0 195 0 195 95 0 95 0 0 -195z m260 0 l0 -195 -90
0 -90 0 0 195 0 195 90 0 90 0 0 -195z m270 0 l0 -195 -90 0 -90 0 0 195 0
195 90 0 90 0 0 -195z m270 0 l0 -195 -90 0 -90 0 0 195 0 195 90 0 90 0 0
-195z m260 0 l0 -195 -90 0 -90 0 0 195 0 195 90 0 90 0 0 -195z m270 0 l0
-195 -90 0 -90 0 0 195 0 195 90 0 90 0 0 -195z m340 0 l0 -195 -130 0 -130 0
0 195 0 195 130 0 130 0 0 -195z m770 -455 l0 -650 -340 0 -340 0 0 650 0 650
340 0 340 0 0 -650z m470 455 l0 -195 -195 0 -195 0 0 195 0 195 195 0 195 0
0 -195z m590 -455 l0 -650 -255 0 -255 0 0 650 0 650 255 0 255 0 0 -650z
m-11800 35 l0 -135 -195 0 -195 0 0 135 0 135 195 0 195 0 0 -135z m3510 40
l0 -95 -1335 0 -1335 0 0 95 0 95 1335 0 1335 0 0 -95z m6460 0 l0 -95 -1335
0 -1335 0 0 95 0 95 1335 0 1335 0 0 -95z m1240 -40 l0 -135 -195 0 -195 0 0
135 0 135 195 0 195 0 0 -135z m-10100 -410 l0 -275 -135 0 -135 0 0 275 0
275 135 0 135 0 0 -275z m260 0 l0 -275 -90 0 -90 0 0 275 0 275 90 0 90 0 0
-275z m270 0 l0 -275 -95 0 -95 0 0 275 0 275 95 0 95 0 0 -275z m260 0 l0
-275 -90 0 -90 0 0 275 0 275 90 0 90 0 0 -275z m270 0 l0 -275 -90 0 -90 0 0
275 0 275 90 0 90 0 0 -275z m260 0 l0 -275 -90 0 -90 0 0 275 0 275 90 0 90
0 0 -275z m270 0 l0 -275 -90 0 -90 0 0 275 0 275 90 0 90 0 0 -275z m270 0
l0 -275 -90 0 -90 0 0 275 0 275 90 0 90 0 0 -275z m540 0 l0 -275 -230 0
-230 0 0 275 0 275 230 0 230 0 0 -275z m4260 0 l0 -275 -240 0 -240 0 0 275
0 275 240 0 240 0 0 -275z m260 0 l0 -275 -90 0 -90 0 0 275 0 275 90 0 90 0
0 -275z m270 0 l0 -275 -95 0 -95 0 0 275 0 275 95 0 95 0 0 -275z m260 0 l0
-275 -90 0 -90 0 0 275 0 275 90 0 90 0 0 -275z m270 0 l0 -275 -90 0 -90 0 0
275 0 275 90 0 90 0 0 -275z m270 0 l0 -275 -90 0 -90 0 0 275 0 275 90 0 90
0 0 -275z m260 0 l0 -275 -90 0 -90 0 0 275 0 275 90 0 90 0 0 -275z m270 0
l0 -275 -90 0 -90 0 0 275 0 275 90 0 90 0 0 -275z m340 0 l0 -275 -130 0
-130 0 0 275 0 275 130 0 130 0 0 -275z m-9970 -40 l0 -235 -195 0 -195 0 0
235 0 235 195 0 195 0 0 -235z m11210 0 l0 -235 -195 0 -195 0 0 235 0 235
195 0 195 0 0 -235z"/>
</g>
</svg>
