<?xml version="1.0" encoding="utf-8"?>
<!-- Generator: Adobe Illustrator 23.0.2, SVG Export Plug-In . SVG Version: 6.00 Build 0)  -->
<svg version="1.1" id="Layer_1" xmlns="http://www.w3.org/2000/svg" xmlns:xlink="http://www.w3.org/1999/xlink" x="0px" y="0px"
	 viewBox="0 0 1209.5 669.9" style="enable-background:new 0 0 1209.5 669.9;" xml:space="preserve">
<style type="text/css">
	.st0{display:none;}
	.st1{display:inline;fill:#FF294E;}
	.st2{fill:none;stroke:#333333;stroke-width:5;stroke-linejoin:bevel;stroke-miterlimit:10;}
</style>
<g id="backgorund" class="st0">
	<rect y="99.9" class="st1" width="1209.5" height="570"/>
</g>
<g id="objects" class="st0">
</g>
<g id="designed_by_freepik">
	<g>
		
			<rect x="952.1" y="404.6" transform="matrix(0.9902 -0.1398 0.1398 0.9902 -47.4605 162.4093)" class="st2" width="360.4" height="28.8"/>
		<polygon class="st2" points="1304.9,461 946.6,511.6 920.7,492.8 1320.2,436.4 		"/>
		
			<rect x="1016.8" y="507.5" transform="matrix(0.9902 -0.1398 0.1398 0.9902 -61.2117 172.4644)" class="st2" width="360.4" height="28.8"/>
		
			<rect x="995.8" y="697.1" transform="matrix(0.9902 -0.1398 0.1398 0.9902 -86.6378 175.297)" class="st2" width="417.3" height="14.4"/>
		
			<rect x="1072.9" y="390.3" transform="matrix(0.9902 -0.1398 0.1398 0.9902 -46.4843 162.202)" class="st2" width="116.8" height="43.3"/>
		
			<rect x="1109.8" y="311.6" transform="matrix(0.9902 -0.1398 0.1398 0.9902 -34.9415 159.7327)" class="st2" width="19.4" height="33.9"/>
		
			<rect x="1103.2" y="357.4" transform="matrix(0.9902 -0.1398 0.1398 0.9902 -40.4341 160.918)" class="st2" width="44" height="21.7"/>
		
			<rect x="1030.7" y="559.5" transform="matrix(0.9902 -0.1398 0.1398 0.9902 -78.1483 151.5197)" class="st2" width="17.5" height="145"/>
		
			<rect x="1096.4" y="550.2" transform="matrix(0.9902 -0.1398 0.1398 0.9902 -76.2038 160.6131)" class="st2" width="17.5" height="145"/>
		
			<rect x="1167.4" y="540.2" transform="matrix(0.9902 -0.1398 0.1398 0.9902 -74.1081 170.4411)" class="st2" width="17.5" height="145"/>
	</g>
	<g>
		
			<rect x="836.5" y="157.9" transform="matrix(0.135 -0.9908 0.9908 0.135 629.8284 1047.3939)" class="st2" width="156.6" height="10.1"/>
		
			<rect x="892.1" y="220.3" transform="matrix(0.135 -0.9908 0.9908 0.135 544.0792 1103.7428)" class="st2" width="24.2" height="39.9"/>
		
			<rect x="897.5" y="272.4" transform="matrix(0.135 -0.9908 0.9908 0.135 503.7217 1152.4249)" class="st2" width="28.9" height="30.7"/>
		<circle class="st2" cx="852.1" cy="330.2" r="42.7"/>
		<path class="st2" d="M879.8,399.3c-0.1,3.7-42.4,396-42.4,396l-51.4-7l67.6-392.5L879.8,399.3z"/>
	</g>
</g>
</svg>
