<svg width="1954.0400000000002" height="500" xmlns="http://www.w3.org/2000/svg">
 <style type="text/css">.st0{fill:#333333;}</style>

 <g>
  <title>background</title>
  <rect fill="none" id="canvas_background" height="402" width="582" y="-1" x="-1"/>
 </g>
 <g>
  <title>Layer 1</title>
  <g id="backgorund"/>
  <g id="objects">
   <g id="svg_1">
    <polygon id="svg_2" points="1627.5156998634338,351.56878757476807 1625.3858170509338,351.56878757476807 1625.3858170509338,328.4187936782837 1616.4757828712463,328.4187936782837 1616.4757828712463,344.34878635406494 1614.3457779884338,344.34878635406494 1614.3457779884338,326.2887887954712 1627.5156998634338,326.2887887954712 " class="st0"/>
   </g>
   <g id="svg_3">
    <polygon id="svg_4" points="1564.1657242774963,351.56878757476807 1562.0357193946838,351.56878757476807 1562.0357193946838,326.2887887954712 1575.2057633399963,326.2887887954712 1575.2057633399963,344.34878635406494 1573.0757584571838,344.34878635406494 1573.0757584571838,328.4187936782837 1564.1657242774963,328.4187936782837 " class="st0"/>
   </g>
   <g id="svg_5">
    <path id="svg_6" d="m1615.185758,346.748785l-42.11,0l0,-3.67c0,-11.61 9.45,-21.06 21.06,-21.06c11.61,0 21.06,9.45 21.06,21.06l0,3.67l-0.01,0zm-39.98,-2.13l37.85,0l0,-1.54c0,-10.44 -8.49,-18.93 -18.93,-18.93c-10.44,0 -18.93,8.49 -18.93,18.93l0,1.54l0.01,0z" class="st0"/>
   </g>
   <g id="svg_7">
    <rect id="svg_8" height="12.08" width="2.13" class="st0" y="312.198785" x="1596.255758"/>
   </g>
   <g id="svg_9">
    <rect id="svg_10" height="12.08" width="2.13" class="st0" y="312.198785" x="1590.585758"/>
   </g>
   <g id="svg_11">
    <path id="svg_12" d="m1595.075758,314.448785c-4.15,0 -7.52,-3.38 -7.52,-7.52c0,-4.15 3.37,-7.52 7.52,-7.52s7.52,3.38 7.52,7.52c0,4.14 -3.38,7.52 -7.52,7.52zm0,-12.92c-2.97,0 -5.39,2.42 -5.39,5.39c0,2.97 2.42,5.39 5.39,5.39c2.97,0 5.39,-2.42 5.39,-5.39c0,-2.97 -2.42,-5.39 -5.39,-5.39z" class="st0"/>
   </g>
   <g id="svg_13">
    <path id="svg_14" d="m1716.115758,497.758785l-0.16,0l-0.16,0l-0.16,0l-0.16,0l-0.16,0l-0.16,0l-0.16,0l-0.16,0l-0.16,0l-0.16,0l-0.16,0l-0.16,0l-0.16,0l-0.16,0l-0.16,0l-0.16,0l-0.16,0l-0.16,0l-0.16,0l-0.16,0l-0.16,0l-0.16,0l-0.16,0l-0.16,0l-0.16,0l-0.16,0l0,-82.98l0,-5.47l0,-8.33l11.57,-13.99c0.26,-0.32 0.32,-0.76 0.14,-1.13c-0.06,-0.12 -0.16,-0.21 -0.26,-0.3c-0.19,-0.18 -0.43,-0.31 -0.7,-0.31l-12.73,0l-0.16,0l-0.16,0l-0.16,0l-0.16,0l-0.16,0l-0.16,0l-0.16,0l-0.16,0l-0.16,0l-0.16,0l-0.16,0l-0.16,0l-0.16,0l-0.16,0l-0.16,0l-0.16,0l-0.16,0l-0.16,0l-0.16,0l-0.16,0l-0.16,0l-0.16,0l-0.16,0l-0.16,0l-0.16,0l-0.16,0l-0.16,0l-0.16,0l-0.16,0l-0.16,0l-0.16,0l-0.16,0l-0.16,0l-0.16,0l-0.16,0l-0.16,0l-0.16,0l-0.16,0l-0.16,0l-0.16,0l-0.16,0l0,-10.75l7.31,0c0.59,0 1.07,-0.48 1.07,-1.07l0,-9.98c0,-0.05 -0.02,-0.1 -0.03,-0.15c-0.01,-0.08 -0.02,-0.15 -0.05,-0.22c-0.02,-0.06 -0.06,-0.11 -0.09,-0.17c-0.02,-0.04 -0.05,-0.08 -0.08,-0.11c-0.01,-0.02 -0.02,-0.04 -0.04,-0.06c-0.04,-0.05 -0.09,-0.08 -0.15,-0.12c-0.06,-0.04 -0.11,-0.09 -0.17,-0.12c-0.06,-0.03 -0.12,-0.04 -0.18,-0.06c-0.05,-0.01 -0.09,-0.04 -0.15,-0.05l-77.69,-10l-0.16,-0.02l-0.16,-0.02l-0.16,-0.02l-0.16,-0.02l-0.16,-0.02l-0.16,-0.02l-0.16,-0.02l-0.16,-0.02l-0.16,-0.02l-0.16,-0.02l-0.16,-0.02l-0.16,-0.02l-0.16,-0.02l-0.16,-0.02l-0.16,-0.02l-0.16,-0.02l-0.16,-0.02l-0.16,-0.02l-0.16,-0.02l-0.16,-0.02l-0.16,-0.02l-0.16,-0.02l-0.16,-0.02l-0.16,-0.02l-0.16,-0.02l-0.16,-0.02l-0.16,-0.02l-0.16,-0.02l-0.16,-0.02l-0.16,-0.02l-0.16,-0.02l-0.16,-0.02l-0.16,-0.02l-0.16,-0.02l-0.16,-0.02l-0.16,-0.02l-0.16,-0.02l-0.16,-0.02l-0.16,-0.02l-0.16,-0.02l-0.16,-0.02l0,-6.16c0,-0.25 -0.1,-0.48 -0.25,-0.66c-0.1,-0.13 -0.23,-0.24 -0.38,-0.31c-0.08,-0.03 -0.16,-0.04 -0.25,-0.06c-0.06,-0.01 -0.12,-0.04 -0.18,-0.04l-0.09,0l0.12,0l-0.33,0l-0.33,0l-0.34,0l-0.35,0l-0.31,0l-0.16,0l-0.16,0l-0.16,0l-0.16,0l-0.16,0l-0.16,0l-0.16,0l-0.16,0l-0.16,0l-0.16,0l-0.16,0l-0.16,0l-0.16,0l-0.16,0l-0.1,0l-0.16,0l-0.16,0l-0.16,0l-0.16,0l-0.16,0l-0.16,0l-0.16,0l-0.16,0l-0.16,0l-0.16,0l-0.16,0l-0.16,0l-0.16,0l-0.16,0l-0.16,0l-0.16,0l-0.16,0l-0.16,0l-2.13,0l-0.05,0l-0.16,0l-0.16,0l-0.16,0l-0.16,0l-0.16,0l-0.16,0l-0.16,0l-0.16,0l-0.16,0l-0.16,0l-0.16,0l-0.16,0l-0.16,0l-0.16,0l-0.16,0l-0.16,0l-0.16,0l-0.16,0l-0.16,0l-0.16,0l-0.16,0l-0.16,0l-0.16,0l-0.16,0l-0.16,0l-0.16,0l-0.16,0l-0.16,0l-0.16,0l-0.16,0l-0.16,0l-0.16,0l-2.13,0l-0.09,0l-0.16,0l-0.16,0l-0.16,0l-0.16,0l-0.16,0l-0.16,0l-0.16,0l-0.16,0l-0.16,0l-0.16,0l-0.16,0l-0.16,0l-0.16,0l-0.16,0l-0.16,0l-0.16,0l-0.16,0l0.12,0l-0.16,0l-0.16,0l-0.16,0l-0.16,0l-0.16,0l-0.16,0l-0.16,0l-0.16,0l-0.16,0l-0.16,0l-0.16,0l-0.16,0l-0.16,0l-0.16,0l-0.16,0l-0.16,0l-0.16,0l-0.16,0l-0.16,0l-0.16,0l-0.16,0l-0.16,0l-0.16,0l-2.13,0l-5.18,0l-0.16,0l-0.16,0l-0.16,0l-0.16,0l-0.16,0l-0.16,0l-0.16,0l-0.16,0l-0.16,0l-0.16,0l-0.16,0l-0.16,0l-0.16,0l-0.16,0l-0.16,0l-0.16,0l-0.16,0l-0.16,0l-0.16,0l-0.16,0l-0.16,0l-0.16,0l-0.16,0l-0.16,0l-0.16,0l-0.16,0l-0.16,0l-0.16,0l-0.16,0l-0.16,0l-0.16,0l-0.16,0l-0.16,0l-0.16,0l-0.16,0l-0.16,0l-0.16,0l-0.16,0l-0.16,0l-0.16,0l-0.16,0l-2.13,0l-0.09,0l-0.16,0l-0.16,0l-0.16,0l-0.16,0l-0.16,0l-0.16,0l-0.16,0l-0.16,0l-0.16,0l-0.16,0l-0.16,0l-0.16,0l-0.16,0l-0.16,0l-0.16,0l-0.16,0l-0.16,0l-0.16,0l-0.16,0l-0.16,0l-0.16,0l-0.16,0l-0.16,0l-0.16,0l-0.16,0l-0.16,0l-0.16,0l-0.16,0l-0.16,0l-0.16,0l-0.16,0l-0.16,0l-0.16,0l-0.16,0l-0.16,0l-0.16,0l-0.16,0l-0.16,0l-0.16,0l-0.16,0l-0.16,0l-9.3,0l-7.22,0c-0.59,0 -1.07,0.48 -1.07,1.07l0,6.15l-84.08,10.83c-0.05,0.01 -0.1,0.03 -0.15,0.05c-0.06,0.02 -0.12,0.03 -0.18,0.06c-0.06,0.03 -0.12,0.07 -0.17,0.12c-0.05,0.04 -0.1,0.07 -0.14,0.12c-0.05,0.05 -0.08,0.11 -0.12,0.17c-0.03,0.05 -0.07,0.1 -0.09,0.17c-0.03,0.07 -0.03,0.15 -0.05,0.22c-0.01,0.05 -0.03,0.1 -0.03,0.15l0,9.98c0,0.33 0.16,0.62 0.41,0.82c0.18,0.15 0.41,0.25 0.66,0.25l7.31,0l0,0.16l0,0.16l0,0.16l0,0.16l0,0.16l0,0.16l0,0.16l0,0.16l0,0.16l0,0.16l0,0.16l0,0.16l0,0.16l0,0.16l0,0.16l0,0.16l0,0.16l0,0.16l0,0.16l0,0.16l0,0.16l0,0.16l0,0.16l0,0.16l0,0.16l0,0.16l0,0.16l0,0.16l0,0.16l0,0.16l0,0.16l0,0.16l0,0.16l0,0.16l0,0.16l0,0.16l0,0.16l0,0.16l0,0.16l0,0.16l0,0.16l0,4.36l-19.12,0c-0.02,0 -0.03,0.01 -0.05,0.02c-0.05,0 -0.1,0.03 -0.15,0.04c-0.05,0.01 -0.1,0.03 -0.15,0.04c-0.05,0.02 -0.1,0.02 -0.15,0.04c-0.06,0.03 -0.1,0.07 -0.15,0.11c-0.06,0.05 -0.1,0.11 -0.15,0.17c-0.05,0.06 -0.11,0.1 -0.15,0.17c0,0.01 -0.02,0.01 -0.02,0.02c-0.14,0.3 -0.1,0.62 0.05,0.91c0.04,0.07 0.04,0.16 0.1,0.22l0.07,0.08l0.16,0.19l0.16,0.19l0.16,0.19l0.16,0.19l0.16,0.19l10.72,12.96l0,8.33l0,5.47l0,82.98l-7.54,0l-0.15,0l-0.15,0l-0.15,0l-0.15,0l-0.15,0l-0.15,0l-0.15,0l-0.15,0l-0.15,0l-0.15,0l-0.15,0l-0.15,0l-0.15,0l-0.15,0l-0.15,0l-0.15,0l-0.15,0l-0.15,0l-0.15,0l-0.15,0l-0.15,0l-0.15,0l-0.15,0l-0.15,0l-0.15,0l-0.15,0l-0.15,0l-0.15,0l-0.15,0l-0.15,0l-0.15,0l-0.15,0l-0.15,0l-0.15,0l-0.15,0l-0.15,0l-0.15,0l-42.76,0l-0.15,0l-0.15,0l-0.15,0l-6.65,-229.37l2.35,0c0.59,0 1.07,-0.48 1.07,-1.07l0,-8.16c0,-0.25 -0.1,-0.48 -0.25,-0.66c-0.03,-0.03 -0.05,-0.07 -0.08,-0.11c-0.05,-0.04 -0.1,-0.07 -0.16,-0.11c-0.05,-0.03 -0.1,-0.08 -0.16,-0.11c-0.05,-0.02 -0.1,-0.02 -0.16,-0.04c-0.05,-0.01 -0.1,-0.03 -0.16,-0.03c-0.04,0 -0.07,-0.02 -0.11,-0.02l-0.04,0l-0.16,0l-0.16,0l-0.16,0l-0.16,0l-0.16,0l-0.16,0l-0.16,0l-0.16,0l-0.16,0l-0.16,0l-0.16,0l-0.16,0l-0.16,0l-0.16,0l-0.16,0l0,-7.69c10.34,-4.54 17.59,-14.87 17.59,-26.87c0,-7.77 -3.04,-14.83 -7.99,-20.08c-1.33,-1.41 -2.8,-2.67 -4.38,-3.79c-0.05,-0.04 -0.1,-0.08 -0.16,-0.11c-0.05,-0.04 -0.1,-0.08 -0.16,-0.11c-0.05,-0.04 -0.1,-0.08 -0.16,-0.11c-0.05,-0.04 -0.1,-0.07 -0.16,-0.11c-0.05,-0.03 -0.1,-0.06 -0.16,-0.1c-0.05,-0.03 -0.1,-0.06 -0.16,-0.1c-0.05,-0.03 -0.1,-0.06 -0.16,-0.1c-0.05,-0.03 -0.1,-0.06 -0.16,-0.1c-0.05,-0.03 -0.1,-0.06 -0.16,-0.1c-0.05,-0.03 -0.1,-0.06 -0.16,-0.1s-0.1,-0.07 -0.16,-0.1c-0.05,-0.03 -0.1,-0.07 -0.16,-0.1c-0.05,-0.03 -0.1,-0.07 -0.16,-0.1c-0.05,-0.03 -0.1,-0.07 -0.16,-0.1c-0.05,-0.03 -0.1,-0.07 -0.16,-0.1c-0.05,-0.03 -0.1,-0.06 -0.16,-0.09c-0.05,-0.03 -0.1,-0.05 -0.16,-0.08c-0.05,-0.03 -0.1,-0.05 -0.16,-0.08c-0.05,-0.03 -0.1,-0.05 -0.16,-0.08c-0.05,-0.03 -0.1,-0.05 -0.16,-0.08c-0.05,-0.03 -0.1,-0.05 -0.16,-0.08c-0.05,-0.03 -0.1,-0.05 -0.16,-0.08c-0.05,-0.03 -0.1,-0.06 -0.16,-0.08c-0.05,-0.03 -0.1,-0.06 -0.16,-0.08c-0.05,-0.03 -0.1,-0.06 -0.16,-0.08c-0.05,-0.03 -0.1,-0.06 -0.16,-0.08s-0.1,-0.06 -0.16,-0.08c-0.05,-0.03 -0.1,-0.06 -0.16,-0.08c-0.05,-0.02 -0.1,-0.04 -0.16,-0.07c-0.05,-0.02 -0.1,-0.04 -0.16,-0.07c-0.05,-0.02 -0.1,-0.04 -0.16,-0.07c-0.05,-0.02 -0.1,-0.04 -0.16,-0.07c-0.05,-0.02 -0.1,-0.04 -0.16,-0.07c-0.05,-0.02 -0.1,-0.04 -0.16,-0.07c-0.05,-0.02 -0.1,-0.05 -0.16,-0.07c-0.05,-0.02 -0.1,-0.05 -0.16,-0.07c-0.05,-0.02 -0.1,-0.05 -0.16,-0.07c-0.05,-0.02 -0.1,-0.05 -0.16,-0.07c-0.05,-0.02 -0.1,-0.05 -0.16,-0.07c-0.05,-0.02 -0.1,-0.05 -0.16,-0.07c-0.05,-0.02 -0.1,-0.05 -0.16,-0.07l0,-20.94l2.47,0c0.59,0 1.07,-0.48 1.07,-1.07l0,-8.16c0,-0.25 -0.1,-0.48 -0.25,-0.66c-0.2,-0.24 -0.48,-0.4 -0.82,-0.4l-0.43,0l-0.16,0l-0.16,0l-0.16,0l-0.16,0l-0.16,0l-0.16,0l-0.16,0l-0.16,0l-0.16,0l-0.16,0l-0.16,0l-0.16,0l-0.16,0l-0.16,0l-0.16,0l-0.16,0l-0.16,0l-0.16,0l-0.16,0l-0.16,0l-0.16,0l-0.16,0l-0.16,0l-0.16,0l-0.16,0l-0.16,0l-0.16,0l-0.16,0l-0.16,0l-0.16,0l-0.16,0l-0.16,0l-0.16,0l-0.16,0l-0.16,0l-0.16,0l-0.16,0l-0.16,0l-0.16,0l-0.16,0l-0.16,0l0,-9.27c0,-0.25 -0.1,-0.48 -0.25,-0.66c-0.03,-0.04 -0.06,-0.08 -0.09,-0.11c-0.05,-0.04 -0.1,-0.07 -0.16,-0.11c-0.05,-0.03 -0.1,-0.08 -0.16,-0.1c-0.05,-0.02 -0.1,-0.02 -0.16,-0.03c-0.05,-0.01 -0.1,-0.03 -0.16,-0.03c-0.03,0 -0.06,-0.02 -0.1,-0.02l-0.06,0l-0.16,0l-0.16,0l-0.16,0l-0.16,0l-0.16,0l-0.16,0l-0.16,0l-0.16,0l-0.16,0l-0.16,0l-0.16,0l-0.16,0l0,-110.44c0,-0.25 -0.1,-0.48 -0.25,-0.66c-0.2,-0.24 -0.48,-0.41 -0.82,-0.41l-4.35,0c-0.59,0 -1.07,0.48 -1.07,1.07l0,110.44l-1.93,0c-0.59,0 -1.07,0.48 -1.07,1.07l0,9.27l-6.82,0c-0.59,0 -1.07,0.48 -1.07,1.07l0,8.16c0,0.33 0.16,0.62 0.4,0.82c0.18,0.15 0.41,0.25 0.66,0.25l2.47,0l0,0.16l0,0.16l0,0.16l0,0.16l0,0.16l0,0.16l0,0.16l0,0.16l0,0.16l0,0.16l0,0.16l0,0.16l0,0.16l0,0.16l0,0.16l0,0.15l0,0.12l0,0.12l0,0.09l0,0.05l0,0.01l0,17.93c-10.96,4.26 -18.76,14.89 -18.76,27.34c0,8.27 3.45,15.75 8.97,21.09c2.49,2.4 5.4,4.38 8.62,5.79l0,0.08l0,0.08l0,0.08l0,0.08l0,0.08l0,0.08l0,0.08l0,0.08l0,0.08l0,0.08l0,0.08l0,0.08l0,0.07l0,0.07l0,0.07l0,0.07l0,0.07l0,0.07l0,0.07l0,0.07l0,0.07l0,0.07l0,0.07l0,0.06l0,0.05l0,0.05l0,0.05l0,0.05l0,0.05l0,0.05l0,0.05l0,0.05l0,0.05l0,0.05l0,0.05l0,0.03l0,0.03l0,0.03l0,0.03l0,0.03l0,0.03l0,5.16l-2.38,0c-0.59,0 -1.07,0.48 -1.07,1.07l0,8.16c0,0.33 0.16,0.62 0.41,0.82c0.18,0.15 0.41,0.25 0.66,0.25l2.35,0l0,0.16l0,0.16l0,0.16l0,0.16l0,0.16l0,0.16l0,0.16l0,0.16l0,0.16l0,0.16l0,0.16l0,0.16l0,0.16l0,0.16l0,0.14l0,0.12l0,0.12l0,0.07l0,0.05l-6.57,226.68l-2.39,0l-0.16,0l-0.16,0l-0.16,0l-0.16,0l-0.16,0l-0.16,0l-0.16,0l-0.16,0l-0.16,0l-0.16,0l-0.16,0l-0.16,0l-0.16,0l-0.16,0l-64.06,0l-0.16,0l-0.16,0l-0.16,0l-0.16,0l-0.16,0l-0.16,0l-0.16,0l-0.16,0l-0.16,0l-0.16,0l-0.16,0l-0.16,0l-0.16,0l-0.16,0l-0.16,0l-0.16,0l0.74,0l-0.16,0l-0.16,0l-0.16,0l-0.16,0l-0.16,0l-0.16,0l-0.16,0l-0.16,0l-0.16,0l0,-21.41c0,-0.25 -0.1,-0.48 -0.25,-0.66c-0.08,-0.1 -0.17,-0.17 -0.28,-0.24c-0.05,-0.03 -0.1,-0.07 -0.16,-0.09c-0.05,-0.02 -0.1,-0.02 -0.16,-0.03c-0.05,-0.01 -0.1,-0.03 -0.16,-0.03c-0.02,0 -0.05,-0.01 -0.07,-0.01l-0.08,0l-0.16,0l-0.16,0l-0.16,0l-0.16,0l-0.16,0l-0.16,0l-0.16,0l-0.16,0l-0.16,0l-0.16,0l-0.16,0l-0.16,0l-0.16,0l-0.16,0l-0.16,0l-0.16,0l-0.16,0l-0.16,0l-0.16,0l-0.16,0l-0.16,0l-0.16,0l-0.16,0l-0.16,0l-0.16,0l-0.16,0l-0.16,0l-0.16,0l-0.16,0l-0.16,0l-0.16,0l-0.16,0l-0.16,0l-0.16,0l-0.16,0l-0.16,0l-0.16,0l0,-37.69l5.85,0c0.59,0 1.07,-0.48 1.07,-1.07l0,-16.97c0,-0.25 -0.1,-0.48 -0.25,-0.66c-0.2,-0.24 -0.48,-0.4 -0.82,-0.4l-0.51,0l-0.16,0l-0.16,0l-0.16,0l-0.16,0l-0.16,0l-0.16,0l-0.16,0l-0.16,0l-0.16,0l-0.16,0l-0.16,0l-0.16,0l0.1,0l-0.16,0l-0.16,0l-0.16,0l-0.16,0l-0.16,0l-0.16,0l-0.16,0l-0.16,0l-0.16,0l-0.16,0l-0.16,0l-0.16,0l-0.16,0l-0.16,0l-0.16,0l-0.16,0l-0.16,0l-0.16,0l-0.16,0l-0.16,0l-0.16,0l-0.16,0l-0.16,0l-0.16,0l-0.16,0l-0.16,0l-0.16,0l-0.16,0l0,-15.59l0,-13.31l0,-5.45c0,-0.25 -0.1,-0.48 -0.25,-0.66c-0.2,-0.24 -0.48,-0.4 -0.82,-0.4l-46.95,0c-0.59,0 -1.07,0.48 -1.07,1.07l0,5.45l0,12.24l-20.31,0c-0.59,0 -1.07,0.48 -1.07,1.07l0,15.59l-0.07,0l-0.16,0l-0.16,0l-0.16,0l-0.16,0l-0.16,0l-0.16,0l-0.16,0l-0.16,0l-0.16,0l-0.16,0l-0.16,0l-0.16,0l-0.16,0l-0.16,0l-0.16,0l-0.16,0l-0.16,0l-0.16,0l-0.16,0l0.06,0l-0.16,0l-0.16,0l-0.16,0l-0.16,0l-0.16,0l-0.16,0l-0.16,0l-0.16,0l-0.16,0l-0.16,0l-0.16,0l-0.16,0l-0.16,0l-0.16,0l-0.16,0l-0.16,0l-0.16,0l-0.16,0l-0.16,0l-0.16,0l-0.16,0l0,-12.56c0,-0.25 -0.1,-0.48 -0.25,-0.66c-0.2,-0.24 -0.48,-0.4 -0.82,-0.4l-6.92,0c-0.59,0 -1.07,0.48 -1.07,1.07l0,12.56l-1.54,0l-0.16,0l-0.16,0l-0.16,0l-0.16,0l-0.16,0l-0.16,0l-0.16,0l-0.16,0l-0.16,0l-0.16,0l-0.16,0l-0.16,0l-0.16,0l-0.16,0l-0.16,0l-0.16,0l-0.16,0l-0.16,0l-0.16,0l-0.16,0l-0.16,0l-0.16,0l-0.16,0l-0.16,0l-0.16,0l-0.16,0l-0.16,0l-0.16,0l-0.16,0l-0.16,0l-0.16,0l-0.16,0l-0.16,0l-0.16,0l-0.16,0l-0.16,0l-0.16,0l-0.16,0l-0.16,0l-0.16,0l-0.16,0l0,-12.56c0,-0.25 -0.1,-0.48 -0.25,-0.66c-0.2,-0.24 -0.48,-0.4 -0.82,-0.4l-6.92,0c-0.59,0 -1.07,0.48 -1.07,1.07l0,12.56l-1.54,0l-0.16,0l-0.16,0l-0.16,0l-0.16,0l-0.16,0l-0.16,0l-0.16,0l-0.16,0l-0.16,0l-0.16,0l-0.16,0l-0.16,0l-0.16,0l-0.16,0l-0.16,0l-0.16,0l-0.16,0l-0.16,0l-0.16,0l-0.16,0l-0.16,0l-0.16,0l-0.16,0l-0.16,0l-0.16,0l-0.16,0l-0.16,0l-0.16,0l-0.16,0l-0.16,0l-0.16,0l-0.16,0l-0.16,0l-0.16,0l-0.16,0l-0.16,0l-0.16,0l-0.16,0l-0.16,0l-0.16,0l-0.16,0l0,-12.56c0,-0.25 -0.1,-0.48 -0.25,-0.66c-0.2,-0.24 -0.48,-0.4 -0.82,-0.4l-6.92,0c-0.59,0 -1.07,0.48 -1.07,1.07l0,12.56l-6.58,0l-0.16,0l-0.16,0l-0.16,0l-0.16,0l-0.16,0l-0.16,0l-0.16,0l-0.16,0l-0.16,0l-0.16,0l-0.16,0l-0.16,0l-0.16,0l-0.16,0l-0.16,0l-0.16,0l-0.16,0l-0.16,0l-0.16,0l-0.16,0l-0.16,0l-0.16,0l-0.16,0l-0.16,0l-0.16,0l-0.16,0l-0.16,0l-0.16,0l-0.16,0l-0.16,0l-0.16,0l-0.16,0l-0.16,0l-0.16,0l-0.16,0l-0.16,0l-0.16,0l-0.16,0l-0.16,0l-0.16,0l-0.16,0l0,-22.99l0,-17.43c0,-0.25 -0.1,-0.48 -0.25,-0.66c-0.2,-0.24 -0.48,-0.4 -0.82,-0.4l-5.57,0c-0.59,0 -1.07,0.48 -1.07,1.07l0,7.53l0,0.25l0,0.25l0,0.25l0,0.25l0,0.25l0,0.25l0,0.25l0,0.31l0,0.4l0,0.4l0,0.4l0,0.4l0,0.4l0,0.4l0,0.52l0,0.73l0,0.73l0,0.73l0,0.73l0,0.95l-0.05,0l-0.14,0l-0.14,0l-0.14,0l-0.14,0l-0.14,0l-0.14,0l0.48,0l-0.14,0l-0.14,0l-0.14,0l-0.14,0l-0.14,0l-0.14,0l-0.14,0l-0.14,0l-0.14,0l-0.14,0l-0.14,0l-0.14,0l-0.14,0l-0.14,0c-0.29,-11.27 -5.03,-21.44 -12.53,-28.83c-7.56,-7.45 -17.93,-12.05 -29.36,-12.05c-18.67,0 -34.48,12.27 -39.89,29.17c0,0.01 0,0.01 0,0.02c-0.01,0.02 -0.01,0.04 -0.01,0.05c-0.03,0.08 -0.05,0.17 -0.07,0.26c-0.06,0.18 -0.1,0.37 -0.15,0.55c-0.05,0.18 -0.1,0.37 -0.16,0.56c-0.05,0.19 -0.11,0.37 -0.16,0.56c-0.05,0.19 -0.11,0.37 -0.16,0.56c-0.05,0.19 -0.11,0.37 -0.16,0.56c-0.05,0.23 -0.11,0.45 -0.16,0.68c-0.06,0.29 -0.1,0.59 -0.16,0.89c-0.06,0.29 -0.1,0.59 -0.16,0.89c-0.05,0.3 -0.11,0.59 -0.16,0.89c-0.05,0.3 -0.12,0.59 -0.16,0.89c-0.08,0.6 -0.1,1.21 -0.16,1.82c-0.06,0.69 -0.13,1.38 -0.16,2.07c-0.01,0.16 -0.03,0.32 -0.04,0.49l-0.12,0l-0.16,0l-0.16,0l-0.16,0l-0.16,0l-0.16,0l-0.16,0l-0.16,0l-0.16,0l-0.16,0l-0.16,0l-0.16,0l-0.16,0l-0.16,0l-0.16,0l-0.16,0l-0.16,0l-0.16,0l-0.16,0l-0.16,0l0,-16.37c0,-0.25 -0.1,-0.48 -0.25,-0.66c-0.2,-0.24 -0.48,-0.4 -0.82,-0.4l-5.57,0c-0.59,0 -1.07,0.48 -1.07,1.07l0,17.43l0,22.99l-6.58,0l-0.16,0l-0.16,0l-0.16,0l-0.16,0l-0.16,0l-0.16,0l-0.16,0l-0.16,0l-0.16,0l-0.16,0l-0.16,0l-0.16,0l-0.16,0l-0.16,0l-0.16,0l-0.16,0l-0.16,0l-0.16,0l-0.16,0l-0.16,0l-0.16,0l-0.16,0l-0.16,0l-0.16,0l-0.16,0l-0.16,0l-0.16,0l-0.16,0l-0.16,0l-0.16,0l-0.16,0l-0.16,0l-0.16,0l-0.16,0l-0.16,0l-0.16,0l-0.16,0l-0.16,0l-0.16,0l-0.16,0l-0.16,0l0,-12.56c0,-0.25 -0.1,-0.48 -0.25,-0.66c-0.2,-0.24 -0.48,-0.4 -0.82,-0.4l-6.92,0c-0.59,0 -1.07,0.48 -1.07,1.07l0,12.56l-1.54,0l-0.16,0l-0.16,0l-0.16,0l-0.16,0l-0.16,0l-0.16,0l-0.16,0l-0.16,0l-0.16,0l-0.16,0l-0.16,0l-0.16,0l-0.16,0l-0.16,0l-0.16,0l-0.16,0l-0.16,0l-0.16,0l-0.16,0l-0.16,0l-0.16,0l-0.16,0l-0.16,0l-0.16,0l-0.16,0l-0.16,0l-0.16,0l-0.16,0l-0.16,0l-0.16,0l-0.16,0l-0.16,0l-0.16,0l-0.16,0l-0.16,0l-0.16,0l-0.16,0l-0.16,0l-0.16,0l-0.16,0l-0.16,0l0,-12.56c0,-0.25 -0.1,-0.48 -0.25,-0.66c-0.2,-0.24 -0.48,-0.4 -0.82,-0.4l-6.92,0c-0.59,0 -1.07,0.48 -1.07,1.07l0,12.56l-1.54,0l-0.16,0l-0.16,0l-0.16,0l-0.16,0l-0.16,0l-0.16,0l-0.16,0l-0.16,0l-0.16,0l-0.16,0l-0.16,0l-0.16,0l-0.16,0l-0.16,0l-0.16,0l-0.16,0l-0.16,0l-0.16,0l-0.16,0l-0.16,0l-0.16,0l-0.16,0l-0.16,0l-0.16,0l-0.16,0l-0.16,0l-0.16,0l-0.16,0l-0.16,0l-0.16,0l-0.16,0l-0.16,0l-0.16,0l-0.16,0l-0.16,0l-0.16,0l-0.16,0l-0.16,0l-0.16,0l-0.16,0l-0.16,0l0,-12.56c0,-0.25 -0.1,-0.48 -0.25,-0.66c-0.2,-0.24 -0.48,-0.4 -0.82,-0.4l-6.92,0c-0.59,0 -1.07,0.48 -1.07,1.07l0,12.56l-0.07,0l-0.16,0l-0.16,0l-0.16,0l-0.16,0l-0.16,0l-0.16,0l-0.16,0l-0.16,0l-0.16,0l-0.16,0l-0.16,0l-0.16,0l-0.16,0l-0.16,0l-0.16,0l-0.16,0l-0.16,0l-0.16,0l-0.16,0l-0.16,0l-0.16,0l-0.16,0l-0.16,0l-0.16,0l-0.16,0l-0.16,0l-0.16,0l-0.16,0l-0.16,0l-0.16,0l-0.16,0l-0.16,0l-0.16,0l-0.16,0l-0.16,0l-0.16,0l-0.16,0l-0.16,0l-0.16,0l-0.16,0l-0.16,0l0,-15.59c0,-0.25 -0.1,-0.48 -0.25,-0.66c-0.2,-0.24 -0.48,-0.4 -0.82,-0.4l-13.14,0l-0.16,0l-0.16,0l-0.16,0l-0.16,0l-0.16,0l-0.16,0l-0.16,0l-0.16,0l-0.16,0l-0.16,0l-0.16,0l-0.16,0l-0.16,0l-0.16,0l-0.16,0l-0.16,0l-0.16,0l-0.16,0l-0.16,0l-0.16,0l-0.16,0l-0.16,0l-0.16,0l-0.16,0l-0.16,0l-0.16,0l-0.16,0l-0.16,0l-0.16,0l-0.16,0l-0.16,0l-0.16,0l-0.16,0l-0.16,0l-0.16,0l-0.16,0l-0.16,0l-0.16,0l-0.16,0l-0.16,0l-0.16,0l0,-12.24l0,-5.45c0,-0.25 -0.1,-0.48 -0.25,-0.66c-0.2,-0.24 -0.48,-0.4 -0.82,-0.4l-46.94,0c-0.59,0 -1.07,0.48 -1.07,1.07l0,5.45l0,13.31l0,15.59l-6.9,0c-0.59,0 -1.07,0.48 -1.07,1.07l0,16.97c0,0.33 0.16,0.62 0.4,0.82c0.18,0.15 0.41,0.25 0.66,0.25l5.85,0l0,-0.01l0,0.16l0,0.16l0,0.16l0,0.16l0,0.16l0,0.16l0,0.16l0,0.16l0,0.16l0,0.16l0,0.16l0,0.16l0,0.16l0,0.16l0,0.16l0,0.16l0,0.16l0,0.16l0,0.16l0,0.16l0,0.16l0,0.16l0,0.16l0,0.16l0,0.16l0,0.16l0,0.16l0,0.16l0,0.16l0,0.16l0,0.16l0,0.16l0,0.16l0,0.16l0,0.16l0,0.16l0,0.14l0,0.12l0,0.12l0,0.06l0,31.47l-5.85,0c-0.59,0 -1.07,0.48 -1.07,1.07l0,21.28l-1920.93,0l0,2.13l1922.19,0c0.59,0 1.07,-0.48 1.07,-1.07l0,-21.28l5.85,0l16.98,0l13.62,0l22.01,0l9.99,0l7.61,0l7.75,0l7.61,0l7.75,0l7.61,0l7.76,0l7.61,0l14.72,0l0,0.16l0,0.16l0,0.16l0,0.16l0,0.16l0,0.16l0,0.16l0,0.16l0,0.16l0,0.16l0,0.16l0,0.16l0,0.16l0,0.16l0,0.16l0,0.16l0,0.16l0,0.16l0,0.16l0,0.16l0,0.16l0,0.16l0,0.16l0,0.16l0,0.16l0,0.16l0,0.16l0,0.16l0,0.16l0,0.16l0,0.16l0,0.16l0,0.16l0,0.16l0,0.16l0,0.16l0,0.16l0,0.16l0,0.16l0,0.16l0,0.16l0,14.89c0,0.33 0.16,0.62 0.41,0.82c0.18,0.15 0.41,0.25 0.66,0.25l14.78,0c0.59,0 1.07,-0.48 1.07,-1.07l0,-65.32l6.92,0l0,0.16l0,0.16l0,0.16l0,0.16l0,0.16l0,0.16l0,0.16l0,0.16l0,0.16l0,0.16l0,0.16l0,0.16l0,0.16l0,0.16l0,0.16l0,0.16l0,0.16l0,0.16l0,0.16l0,0.16l0,0.16l0,0.16l0,0.16l0,0.16l0,0.16l0,0.16l0,0.16l0,0.16l0,0.16l0,0.16l0,0.16l0,0.16l0,0.16l0,0.16l0,0.16l0,0.16l0,0.16l0,0.16l0,0.16l0,0.16l0,0.16l0,58.93c0,0.33 0.16,0.62 0.4,0.82c0.18,0.15 0.41,0.25 0.66,0.25l7.83,0c0.59,0 1.07,-0.48 1.07,-1.07l0,-65.32l5.72,0l0,0.16l0,0.16l0,0.16l0,0.16l0,0.16l0,0.16l0,0.16l0,0.16l0,0.16l0,0.16l0,0.16l0,0.16l0,0.16l0,0.16l0,0.16l0,0.16l0,0.16l0,0.16l0,0.16l0,0.16l0,0.16l0,0.16l0,0.16l0,0.16l0,0.16l0,0.16l0,0.16l0,0.16l0,0.16l0,0.16l0,0.16l0,0.16l0,0.16l0,0.16l0,0.16l0,0.16l0,59.71c0,0.08 0.03,0.15 0.05,0.23c0.03,0.13 0.08,0.25 0.16,0.36c0.05,0.07 0.09,0.14 0.16,0.19c0.01,0.01 0.03,0.02 0.05,0.03c0.18,0.15 0.41,0.25 0.66,0.25l7.83,0c0.59,0 1.07,-0.48 1.07,-1.07l0,-65.32l9.79,0l0,0.16l0,0.16l0,0.16l0,0.16l0,0.16l0,0.16l0,0.16l0,0.16l0,0.16l0,0.16l0,0.16l0,0.16l0,0.16l0,0.16l0,0.16l0,0.16l0,0.16l0,0.16l0,0.16l0,0.16l0,0.16l0,0.16l0,0.16l0,0.16l0,0.16l0,0.16l0,0.16l0,0.16l0,0.16l0,0.16l0,0.16l0,0.16l0,0.16l0,0.16l0,0.16l0,0.16l0,0.16l0,0.16l0,0.16l0,0.16l0,0.16l0,58.93c0,0.33 0.16,0.62 0.41,0.82c0.18,0.15 0.41,0.25 0.66,0.25l7.82,0c0.59,0 1.07,-0.48 1.07,-1.07l0,-65.32l5.72,0l0,0.16l0,0.16l0,0.16l0,0.16l0,0.16l0,0.16l0,0.16l0,0.16l0,0.16l0,0.16l0,0.16l0,0.16l0,0.16l0,0.16l0,0.16l0,0.16l0,0.16l0,0.16l0,0.16l0,0.16l0,0.16l0,0.16l0,0.16l0,0.16l0,0.16l0,0.16l0,0.16l0,0.16l0,0.16l0,0.16l0,0.16l0,0.16l0,0.16l0,0.16l0,0.16l0,0.16l0,59.71c0,0.08 0.03,0.15 0.04,0.22c0.03,0.14 0.08,0.26 0.16,0.37c0.05,0.07 0.09,0.14 0.16,0.2c0.01,0.01 0.03,0.02 0.05,0.03c0.18,0.15 0.41,0.25 0.66,0.25l7.82,0c0.59,0 1.07,-0.48 1.07,-1.07l0,-65.32l6.92,0l0,0.16l0,0.16l0,0.16l0,0.16l0,0.16l0,0.16l0,0.16l0,0.16l0,0.16l0,0.16l0,0.16l0,0.16l0,0.16l0,0.16l0,0.16l0,0.16l0,0.16l0,0.16l0,0.16l0,0.16l0,0.16l0,0.16l0,0.16l0,0.16l0,0.16l0,0.16l0,0.16l0,0.16l0,0.16l0,0.16l0,0.16l0,0.16l0,0.16l0,0.16l0,0.16l0,0.16l0,0.16l0,0.16l0,0.16l0,0.16l0,0.16l0,58.93c0,0.33 0.16,0.62 0.4,0.82c0.18,0.15 0.41,0.25 0.66,0.25l14.78,0c0.05,0 0.08,-0.02 0.13,-0.03c0.04,0.01 0.08,0.03 0.13,0.03c0.59,0 1.07,-0.48 1.07,-1.07l0,-21.28l14.72,0l7.61,0l7.75,0l7.61,0l7.75,0l7.61,0l7.76,0l7.61,0l9.99,0l22,0l13.62,0l16.98,0l5.85,0l0,0.16l0,0.16l0,0.16l0,0.16l0,0.16l0,0.16l0,0.16l0,0.16l0,0.16l0,0.16l0,0.16l0,0.16l0,0.16l0,0.16l0,0.16l0,0.16l0,0.16l0,0.16l0,0.16l0,0.16l0,0.16l0,0.16l0,0.16l0,0.16l0,0.16l0,0.16l0,0.16l0,0.16l0,0.16l0,0.16l0,0.16l0,0.16l0,0.16l0,0.16l0,0.16l0,0.16l0,0.16l0,0.16l0,0.16l0,0.16l0,0.16l0,14.89c0,0.33 0.16,0.62 0.4,0.82c0.18,0.15 0.41,0.25 0.66,0.25l74.76,0c0.01,0 0.02,0 0.03,0c0.14,0 0.28,-0.03 0.41,-0.08c0.06,-0.02 0.1,-0.07 0.15,-0.1c0.06,-0.04 0.13,-0.07 0.19,-0.13c0.04,-0.04 0.07,-0.1 0.1,-0.15c0.05,-0.06 0.1,-0.12 0.13,-0.19c0.02,-0.05 0.02,-0.11 0.04,-0.16c0.02,-0.08 0.05,-0.15 0.05,-0.23l6.68,-230.47l19.32,0l0,0.16l0,0.16l0,0.16l0,0.16l0,0.16l0,0.16l0,0.16l0,0.16l0,0.16l0,0.16l0,0.16l0,0.16l0,0.16l0,0.16l0,0.16l0,0.16l0,0.16l0,0.16l0,0.16l0,0.16l0,0.16l0,0.16l0,0.16l0,0.16l0,0.16l0,0.16l0,0.16l0,0.16l0,0.16l0,0.16l0,0.16l0,0.16l0,0.16l0,0.16l0,0.16l0,0.16l0,0.16l0,0.16l0,0.16l0,0.16l0,0.16l6.49,224.08c0,0.08 0.03,0.15 0.05,0.23c0.01,0.05 0.02,0.11 0.04,0.16c0.03,0.07 0.08,0.13 0.13,0.19c0.03,0.05 0.06,0.1 0.1,0.15c0.03,0.02 0.06,0.04 0.09,0.06c0.03,0.02 0.06,0.04 0.1,0.07c0.05,0.03 0.09,0.08 0.15,0.1c0.13,0.05 0.26,0.08 0.41,0.08c0.01,0 0.02,0 0.03,0l58.42,0c0.59,0 1.07,-0.48 1.07,-1.07l0,-82.98l23.18,0l0,0.16l0,0.16l0,0.16l0,0.16l0,0.16l0,0.16l0,0.16l0,0.16l0,0.16l0,0.16l0,0.16l0,0.16l0,0.16l0,0.16l0,0.16l0,0.16l0,0.16l0,0.16l0,0.16l0,0.16l0,0.16l0,0.16l0,0.16l0,0.16l0,0.16l0,0.16l0,0.16l0,0.16l0,0.16l0,0.16l0,0.16l0,0.16l0,0.16l0,0.16l0,0.16l0,0.16l0,0.16l0,0.16l0,0.16l0,0.16l0,0.16l0,4.27l0,72.32c0,0.33 0.16,0.62 0.4,0.82c0.18,0.15 0.41,0.25 0.66,0.25c0.59,0 1.07,-0.48 1.07,-1.07l0,-71.25l11.96,0l0,0.16l0,0.16l0,0.16l0,0.16l0,0.16l0,0.16l0,0.16l0,0.16l0,0.16l0,0.16l0,0.16l0,0.16l0,0.16l0,0.16l0,0.16l0,0.16l0,0.16l0,0.16l0,0.16l0,0.16l0,0.16l0,0.16l0,0.16l0,0.16l0,0.16l0,0.16l0,0.16l0,0.16l0,0.16l0,0.16l0,0.16l0,0.16l0,0.16l0,0.16l0,0.16l0,0.16l0,0.16l0,0.16l0,0.16l0,0.16l0,0.16l0,64.86c0,0.33 0.16,0.62 0.4,0.82c0.18,0.15 0.41,0.25 0.66,0.25l19.84,0c0.59,0 1.07,-0.48 1.07,-1.07l0,-71.25l17.35,0l0,0.16l0,0.16l0,0.16l0,0.16l0,0.16l0,0.16l0,0.16l0,0.16l0,0.16l0,0.16l0,0.16l0,0.16l0,0.16l0,0.16l0,0.16l0,0.16l0,0.16l0,0.16l0,0.16l0,0.16l0,0.16l0,0.16l0,0.16l0,0.16l0,0.16l0,0.16l0,0.16l0,0.16l0,0.16l0,0.16l0,0.16l0,0.16l0,0.16l0,0.16l0,0.16l0,0.16l0,0.16l0,0.16l0,0.16l0,0.16l0,0.16l0,64.86c0,0.33 0.16,0.62 0.41,0.82c0.18,0.15 0.41,0.25 0.66,0.25l19.84,0c0.59,0 1.07,-0.48 1.07,-1.07l0,-71.25l32.61,0l0,0.16l0,0.16l0,0.16l0,0.16l0,0.16l0,0.16l0,0.16l0,0.16l0,0.16l0,0.16l0,0.16l0,0.16l0,0.16l0,0.16l0,0.16l0,0.16l0,0.16l0,0.16l0,0.16l0,0.16l0,0.16l0,0.16l0,0.16l0,0.16l0,0.16l0,0.16l0,0.16l0,0.16l0,0.16l0,0.16l0,0.16l0,0.16l0,0.16l0,0.16l0,0.16l0,0.16l0,0.16l0,0.16l0,0.16l0,0.16l0,0.16l0,64.86c0,0.33 0.16,0.62 0.4,0.82c0.18,0.15 0.41,0.25 0.66,0.25l19.84,0c0.59,0 1.07,-0.48 1.07,-1.07l0,-71.25l17.35,0l0,0.16l0,0.16l0,0.16l0,0.16l0,0.16l0,0.16l0,0.16l0,0.16l0,0.16l0,0.16l0,0.16l0,0.16l0,0.16l0,0.16l0,0.16l0,0.16l0,0.16l0,0.16l0,0.16l0,0.16l0,0.16l0,0.16l0,0.16l0,0.16l0,0.16l0,0.16l0,0.16l0,0.16l0,0.16l0,0.16l0,0.16l0,0.16l0,0.16l0,0.16l0,0.16l0,0.16l0,0.16l0,0.16l0,0.16l0,0.16l0,0.16l0,64.86c0,0.33 0.16,0.62 0.4,0.82c0.18,0.15 0.41,0.25 0.66,0.25l19.84,0c0.59,0 1.07,-0.48 1.07,-1.07l0,-71.25l11.96,0l0,0.16l0,0.16l0,0.16l0,0.16l0,0.16l0,0.16l0,0.16l0,0.16l0,0.16l0,0.16l0,0.16l0,0.16l0,0.16l0,0.16l0,0.16l0,0.16l0,0.16l0,0.16l0,0.16l0,0.16l0,0.16l0,0.16l0,0.16l0,0.16l0,0.16l0,0.16l0,0.16l0,0.16l0,0.16l0,0.16l0,0.16l0,0.16l0,0.16l0,0.16l0,0.16l0,0.16l0,0.16l0,0.16l0,0.16l0,0.16l0,0.16l0,64.86c0,0.33 0.16,0.62 0.4,0.82c0.18,0.15 0.41,0.25 0.66,0.25c0.59,0 1.07,-0.48 1.07,-1.07l0,-72.32l0,-10.66l23.18,0l0,0.16l0,0.16l0,0.16l0,0.16l0,0.16l0,0.16l0,0.16l0,0.16l0,0.16l0,0.16l0,0.16l0,0.16l0,0.16l0,0.16l0,0.16l0,0.16l0,0.16l0,0.16l0,0.16l0,0.16l0,0.16l0,0.16l0,0.16l0,0.16l0,0.16l0,0.16l0,0.16l0,0.16l0,0.16l0,0.16l0,0.16l0,0.16l0,0.16l0,0.16l0,0.16l0,0.16l0,0.16l0,0.16l0,0.16l0,0.16l0,0.16l0,76.59c0,0.33 0.16,0.62 0.41,0.82c0.18,0.15 0.41,0.25 0.66,0.25l5.12,0l0,-4.77l0.15,0zm-670.01,-90.63l4.78,0l0,0.16l0,0.16l0,0.16l0,0.16l0,0.16l0,0.16l0,0.16l0,0.16l0,0.16l0,0.16l0,0.16l0,0.16l0,0.16l0,0.16l0,0.16l0,0.16l0,0.16l0,0.16l0,0.16l0,0.16l0,0.16l0,0.16l0,0.16l0,0.16l0,0.16l0,0.16l0,0.16l0,0.16l0,0.16l0,0.16l0,6.82l-0.11,0l-0.16,0l-0.16,0l-0.16,0l-0.16,0l-0.16,0l-0.16,0l-0.16,0l-0.16,0l-0.16,0l-0.16,0l-0.16,0l-0.16,0l-0.16,0l-0.16,0l-0.16,0l-0.16,0l-0.16,0l-0.16,0l-0.16,0l-0.16,0l-0.16,0l-0.16,0l-0.16,0l-0.16,0l-0.16,0l-0.16,0l-0.04,0l-0.16,0l-0.16,0l-0.16,0l0,-11.62l0.01,0zm-16.97,0l4.78,0l0,0.16l0,0.16l0,0.16l0,0.16l0,0.16l0,0.16l0,0.16l0,0.16l0,0.16l0,0.16l0,0.16l0,0.16l0,0.16l0,0.16l0,0.16l0,0.16l0,0.16l0,0.16l0,0.16l0,0.16l0,0.16l0,0.16l0,0.16l0,0.16l0,0.16l0,0.16l0,0.16l0,0.16l0,0.16l0,0.16l0,6.82l-0.11,0l-0.16,0l-0.16,0l-0.16,0l-0.16,0l-0.16,0l-0.16,0l-0.16,0l-0.16,0l-0.16,0l-0.16,0l-0.16,0l-0.16,0l-0.16,0l-0.16,0l-0.16,0l-0.16,0l-0.16,0l-0.16,0l-0.16,0l-0.16,0l-0.16,0l-0.16,0l-0.16,0l-0.16,0l-0.16,0l-0.16,0l-0.16,0l-0.16,0l-0.16,0l-0.16,0l0,-11.62l0.13,0zm-16.98,0l4.78,0l0,0.16l0,0.16l0,0.16l0,0.16l0,0.16l0,0.16l0,0.16l0,0.16l0,0.16l0,0.16l0,0.16l0,0.16l0,0.16l0,0.16l0,0.16l0,0.16l0,0.16l0,0.16l0,0.16l0,0.16l0,0.16l0,0.16l0,0.16l0,0.16l0,0.16l0,0.16l0,0.16l0,0.16l0,0.16l0,0.16l0,6.82l-0.11,0l-0.16,0l-0.16,0l-0.16,0l-0.16,0l-0.16,0l-0.16,0l-0.16,0l-0.16,0l-0.16,0l-0.16,0l-0.16,0l-0.16,0l-0.16,0l-0.16,0l-0.16,0l-0.16,0l-0.16,0l-0.16,0l-0.16,0l-0.16,0l-0.16,0l-0.16,0l-0.16,0l-0.16,0l-0.16,0l-0.16,0l-0.16,0l-0.16,0l-0.16,0l-0.16,0l0,-11.62l0.13,0zm-76.91,-21.79l44.81,0l0,0.16l0,0.16l0,0.16l0,0.16l0,0.16l0,0.16l0,0.16l0,0.16l0,0.16l0,0.16l0,0.16l0,0.16l0,0.16l0,0.16l0,0.16l0,0.16l0,0.16l0,0.16l0,0.16l0,0.16l0,0.16l0,0.05l-9.2,0l-26.41,0l-5.93,0l-0.16,0l-0.16,0l-0.16,0l-0.16,0l-0.16,0l-0.16,0l-0.16,0l-0.16,0l-0.16,0l-0.16,0l-0.16,0l-0.16,0l-0.16,0l-0.16,0l-0.16,0l-0.16,0l-0.16,0l-0.16,0l-0.16,0l-0.16,0l-0.16,0l0,-3.41l0.09,0zm44.81,5.45l0,0.16l0,0.16l0,0.16l0,0.16l0,0.16l0,0.16l0,0.13l0,0.16l0,0.16l0,0.16l0,0.16l0,0.16l0,0.16l0,0.16l0,0.16l0,0.16l0,0.16l0,0.16l0,0.16l0,0.16l0,0.16l0,0.16l0,0.16l0,0.16l0,0.16l0,0.16l0,0.16l0,0.16l0,0.16l0,0.16l0,0.16l0,0.16l0,0.16l0,0.16l0,0.16l0,0.16l0,0.16l0,0.16l0,0.16l0,0.16l0,0.16l0,4.79l-1.75,0l-0.16,0l-0.16,0l-0.16,0l-0.16,0l-0.16,0l-0.16,0l-0.16,0l-0.16,0l-0.16,0l-0.16,0l-0.16,0l-0.16,0l-0.16,0l-0.16,0l-0.16,0l-0.16,0l-0.16,0l-0.16,0l-0.16,0l-0.16,0l-0.16,0l-0.16,0l-0.16,0l-0.05,0l-0.16,0l-0.16,0l-0.16,0l-0.16,0l-0.16,0l-0.16,0l-0.16,0l-0.16,0l-0.16,0l-0.16,0l-0.16,0l-0.16,0l-0.16,0l-0.16,0l-0.16,0l-0.16,0l-0.16,0l0,-11.18l8.2,0l0,-0.14zm-10.26,0l0,0.16l0,0.16l0,0.16l0,0.16l0,0.16l0,0.16l0,0.13l0,0.16l0,0.16l0,0.16l0,0.16l0,0.16l0,0.16l0,0.16l0,0.16l0,0.16l0,0.16l0,0.16l0,0.16l0,0.16l0,0.16l0,0.16l0,0.16l0,0.16l0,0.16l0,0.16l0,0.16l0,0.16l0,0.16l0,0.16l0,0.16l0,0.16l0,0.16l0,0.16l0,0.16l0,0.16l0,0.16l0,0.16l0,0.16l0,0.16l0,0.16l0,4.79l-17.88,0l-0.16,0l-0.16,0l-0.16,0l-0.16,0l-0.16,0l-0.16,0l-0.16,0l-0.16,0l-0.16,0l-0.16,0l-0.16,0l-0.16,0l-0.16,0l-0.16,0l-0.16,0l-0.16,0l-0.16,0l-0.16,0l-0.16,0l-0.16,0l-0.16,0l-0.16,0l-0.16,0l-0.16,0l-0.16,0l-0.16,0l-0.16,0l-0.16,0l-0.16,0l-0.16,0l-0.16,0l-0.16,0l-0.16,0l-0.16,0l-0.16,0l-0.16,0l-0.16,0l-0.16,0l-0.16,0l-0.16,0l-0.16,0l0,-11.18l24.44,0l0,-0.14zm-34.55,0l8.14,0l0,0.16l0,0.16l0,0.16l0,0.16l0,0.16l0,0.16l0,0.13l0,0.16l0,0.16l0,0.16l0,0.16l0,0.16l0,0.16l0,0.16l0,0.16l0,0.16l0,0.16l0,0.16l0,0.16l0,0.16l0,0.16l0,0.16l0,0.16l0,0.16l0,0.16l0,0.16l0,0.16l0,0.16l0,0.16l0,0.16l0,0.16l0,0.16l0,0.16l0,0.16l0,0.16l0,0.16l0,0.16l0,0.16l0,0.16l0,0.16l0,0.16l0,4.79l-1.75,0l-0.16,0l-0.16,0l-0.16,0l-0.16,0l-0.16,0l-0.16,0l-0.16,0l-0.16,0l-0.16,0l-0.16,0l-0.16,0l-0.16,0l-0.16,0l-0.16,0l-0.16,0l-0.16,0l-0.16,0l-0.16,0l-0.16,0l-0.16,0l-0.16,0l-0.16,0l-0.16,0l-0.16,0l-0.16,0l-0.16,0l-0.16,0l-0.16,0l-0.16,0l-0.16,0l-0.16,0l-0.16,0l-0.16,0l-0.16,0l-0.16,0l-0.16,0l-0.16,0l-0.16,0l-0.16,0l-0.16,0l-0.16,0l0,-11.32l0.17,0zm0,13.3l9.2,0l26.41,0l10.27,0l20.31,0l0,0.16l0,0.16l0,0.16l0,0.16l0,0.16l0,0.16l0,0.16l0,0.16l0,0.16l0,0.16l0,0.16l0,0.16l0,0.16l0,0.16l0,0.16l0,0.16l0,0.16l0,0.16l0,0.16l0,0.16l0,0.16l0,0.16l0,0.16l0,0.16l0,0.16l0,0.16l0,0.16l0,0.16l0,0.16l0,0.16l0,0.16l0,0.16l0,0.16l0,0.16l0,0.16l0,0.16l0,0.16l0,0.16l0,0.16l0,0.16l0,0.16l0,8.14l-59.8,0l-0.16,0l-0.16,0l-0.16,0l-0.16,0l-0.16,0l-0.16,0l-0.16,0l-0.16,0l-0.16,0l-0.16,0l-0.16,0l-0.16,0l-0.16,0l-0.16,0l-0.16,0l-0.16,0l-0.16,0l-0.16,0l-0.16,0l-0.16,0l-0.16,0l-0.16,0l-0.16,0l-0.16,0l-0.16,0l-0.16,0l-0.16,0l-0.16,0l-0.16,0l-0.16,0l-0.16,0l-0.16,0l-0.16,0l-0.16,0l-0.16,0l-0.16,0l-0.16,0l-0.16,0l-0.16,0l-0.16,0l-0.16,0l0,-14.7l0.17,0zm13.8,33.79l0,0.16l0,0.16l0,0.16l0,0.16l0,0.16l0,0.16l0,0.16l0,0.16l0,0.16l0,0.16l0,0.16l0,0.16l0,0.16l0,0.16l0,0.16l0,0.16l0,0.16l0,0.16l0,0.16l0,0.16l0,0.16l0,0.16l0,0.16l0,0.16l0,0.16l0,0.16l0,0.16l0,0.16l0,0.16l0,0.16l0,0.16l0,0.16l0,0.16l0,0.16l0,0.16l0,0.16l0,0.16l0,0.16l0,0.16l0,0.16l0,6.17l0,10.27l0,14.86l-8.45,0l-0.16,0l-0.16,0l-0.16,0l-0.16,0l-0.16,0l-0.16,0l-0.16,0l-0.16,0l-0.16,0l-0.16,0l-0.16,0l-0.16,0l-0.16,0l-0.16,0l-0.16,0l-0.16,0l-0.16,0l-0.16,0l-0.16,0l-0.16,0l-0.16,0l-0.16,0l-0.16,0l-0.16,0l-0.16,0l-0.16,0l-0.16,0l-0.16,0l-0.16,0l-0.16,0l-0.16,0l-0.16,0l-0.16,0l-0.16,0l-0.16,0l-0.16,0l-0.16,0l-0.16,0l-0.16,0l-0.16,0l-0.16,0l0,-37.69l14.85,0l0,-0.01l0.16,0zm13.62,23.9l0,0.16l0,0.16l0,0.16l0,0.16l0,0.16l0,0.16l0,0.16l0,0.16l0,0.16l0,0.16l0,0.16l0,0.16l0,0.16l0,0.16l0,0.16l0,0.16l0,0.16l0,0.16l0,0.16l0,0.16l0,0.16l0,0.16l0,0.16l0,0.16l0,0.16l0,0.16l0,0.16l0,0.16l0,0.16l0,0.16l0,0.16l0,0.16l0,0.16l0,0.16l0,0.16l0,0.16l0,0.16l0,0.16l0,0.16l0,0.16l0,7.41l-5.1,0l-0.16,0l-0.16,0l-0.16,0l-0.16,0l-0.16,0l-0.16,0l-0.16,0l-0.16,0l-0.16,0l-0.16,0l-0.16,0l-0.16,0l-0.16,0l-0.16,0l-0.16,0l-0.16,0l-0.16,0l-0.16,0l-0.16,0l-0.16,0l-0.16,0l-0.16,0l-0.16,0l-0.16,0l-0.16,0l-0.16,0l-0.16,0l-0.16,0l-0.16,0l-0.16,0l-0.16,0l-0.03,0l-0.16,0l-0.16,0l-0.16,0l-0.16,0l-0.16,0l-0.16,0l-0.16,0l-0.16,0l-0.16,0l0,-13.8l11.49,0l0,-0.01l0.04,0zm0,-10.27l0,0.16l0,0.16l0,0.16l0,0.16l0,0.16l0,0.16l0,0.16l0,0.16l0,0.16l0,0.16l0,0.16l0,0.16l0,0.16l0,0.16l0,0.16l0,0.16l0,0.16l0,0.16l0,0.16l0,0.16l0,0.16l0,0.16l0,0.16l0,0.16l0,0.16l0,0.16l0,0.16l0,0.16l0,0.16l0,0.16l0,0.16l0,0.16l0,0.16l0,0.16l0,0.16l0,0.16l0,0.16l0,0.16l0,0.16l0,0.16l0,1.75l-5.1,0l-0.16,0l-0.16,0l-0.16,0l-0.16,0l-0.16,0l-0.16,0l-0.16,0l-0.16,0l-0.16,0l-0.16,0l-0.16,0l-0.16,0l-0.16,0l-0.16,0l-0.16,0l-0.16,0l-0.16,0l-0.16,0l-0.16,0l-0.16,0l-0.16,0l-0.16,0l-0.16,0l-0.16,0l-0.16,0l-0.16,0l-0.16,0l-0.16,0l-0.16,0l-0.16,0l-0.16,0l-0.03,0l-0.16,0l-0.16,0l-0.16,0l-0.16,0l-0.16,0l-0.16,0l-0.16,0l-0.16,0l-0.16,0l0,-8.14l11.49,0l0,-0.01l0.04,0zm0,-13.63l0,0.16l0,0.16l0,0.16l0,0.16l0,0.16l0,0.16l0,0.16l0,0.16l0,0.16l0,0.16l0,0.16l0,0.16l0,0.16l0,0.16l0,0.16l0,0.16l0,0.16l0,0.16l0,0.16l0,0.16l0,0.16l0,0.16l0,0.16l0,0.16l0,0.16l0,0.16l0,0.16l0,0.16l0,0.16l0,0.16l0,0.16l0,0.16l0,0.16l0,0.16l0,0.16l0,0.16l0,0.16l0,0.16l0,0.16l0,0.16l0,5.1l-5.1,0l-0.16,0l-0.16,0l-0.16,0l-0.16,0l-0.16,0l-0.16,0l-0.16,0l-0.16,0l-0.16,0l-0.16,0l-0.16,0l-0.16,0l-0.16,0l-0.16,0l-0.16,0l-0.16,0l-0.16,0l-0.16,0l-0.16,0l-0.16,0l-0.16,0l-0.16,0l-0.16,0l-0.16,0l-0.16,0l-0.16,0l-0.16,0l-0.16,0l-0.16,0l-0.16,0l-0.16,0l-0.03,0l-0.16,0l-0.16,0l-0.16,0l-0.16,0l-0.16,0l-0.16,0l-0.16,0l-0.16,0l-0.16,0l0,-11.49l11.49,0l0,-0.01l0.04,0zm22.01,0l0,0.16l0,0.16l0,0.16l0,0.16l0,0.16l0,0.16l0,0.16l0,0.16l0,0.16l0,0.16l0,0.16l0,0.16l0,0.16l0,0.16l0,0.16l0,0.16l0,0.16l0,0.16l0,0.16l0,0.16l0,0.16l0,0.16l0,0.16l0,0.16l0,0.16l0,0.16l0,0.16l0,0.16l0,0.16l0,0.16l0,0.16l0,0.16l0,0.16l0,0.16l0,0.16l0,0.16l0,0.16l0,0.16l0,0.16l0,0.16l0,6.17l0,7.97l0,17.17l-13.48,0l-0.16,0l-0.16,0l-0.16,0l-0.16,0l-0.16,0l-0.16,0l-0.16,0l-0.16,0l-0.16,0l-0.16,0l-0.16,0l-0.16,0l-0.16,0l-0.16,0l-0.16,0l-0.16,0l-0.16,0l-0.16,0l-0.16,0l-0.16,0l-0.16,0l-0.16,0l-0.16,0l-0.16,0l-0.16,0l-0.16,0l-0.16,0l-0.16,0l-0.16,0l-0.16,0l-0.16,0l-0.16,0l-0.16,0l-0.16,0l-0.16,0l-0.02,0l-0.16,0l-0.16,0l-0.16,0l-0.16,0l-0.16,0l0,-14.86l0,-10.45l0,-12.56l19.88,0l0,0.16l0.02,0zm9.99,21.59l0,0.16l0,0.16l0,0.16l0,0.16l0,0.16l0,0.16l0,0.16l0,0.16l0,0.16l0,0.16l0,0.16l0,0.16l0,0.16l0,0.16l0,0.16l0,0.16l0,0.16l0,0.16l0,0.16l0,0.16l0,0.16l0,0.16l0,0.16l0,0.16l0,0.16l0,0.16l0,0.16l0,0.16l0,0.16l0,0.16l0,0.16l0,0.16l0,0.16l0,0.16l0,0.16l0,0.16l0,0.16l0,0.16l0,0.16l0,0.16l0,9.71l-1.47,0l-0.16,0l-0.16,0l-0.16,0l-0.16,0l-0.16,0l-0.16,0l-0.16,0l-0.16,0l-0.16,0l-0.16,0l-0.16,0l-0.16,0l-0.16,0l-0.16,0l-0.16,0l-0.16,0l-0.16,0l-0.16,0l-0.16,0l-0.16,0l-0.16,0l-0.16,0l-0.16,0l-0.16,0l-0.16,0l-0.16,0l-0.16,0l-0.16,0l-0.16,0l-0.16,0l-0.16,0l-0.16,0l-0.16,0l-0.16,0l-0.16,0l-0.16,0l-0.16,0l-0.16,0l-0.16,0l-0.16,0l-0.16,0l0,-16.1l7.86,0l0,-0.01l0.17,0zm7.61,0l0,0.16l0,0.16l0,0.16l0,0.16l0,0.16l0,0.16l0,0.16l0,0.16l0,0.16l0,0.16l0,0.16l0,0.16l0,0.16l0,0.16l0,0.16l0,0.16l0,0.16l0,0.16l0,0.16l0,0.16l0,0.16l0,0.16l0,0.16l0,0.16l0,0.16l0,0.16l0,0.16l0,0.16l0,0.16l0,0.16l0,0.16l0,0.16l0,0.16l0,0.16l0,10.65l-0.03,0l-0.16,0l-0.16,0l-0.16,0l-0.16,0l-0.16,0l-0.16,0l-0.16,0l-0.16,0l-0.16,0l-0.16,0l-0.16,0l-0.16,0l-0.16,0l-0.16,0l-0.16,0l-0.16,0l-0.16,0l-0.16,0l-0.16,0l-0.16,0l-0.16,0l-0.16,0l-0.16,0l-0.16,0l-0.16,0l-0.16,0l-0.16,0l-0.16,0l-0.16,0l-0.03,0l-0.16,0l-0.16,0l-0.16,0l-0.16,0l-0.16,0l0,-16.1l5.48,0l0,0.01l0.02,0zm7.75,0l0,0.16l0,0.16l0,0.16l0,0.16l0,0.16l0,0.16l0,0.16l0,0.16l0,0.16l0,0.16l0,0.16l0,0.16l0,0.16l0,0.16l0,0.16l0,0.16l0,0.16l0,0.16l0,0.16l0,0.16l0,0.16l0,0.16l0,0.16l0,0.16l0,0.16l0,0.16l0,0.16l0,0.16l0,0.16l0,0.16l0,0.16l0,0.16l0,0.16l0,0.16l0,0.16l0,10.49l-0.01,0l-0.16,0l-0.16,0l-0.16,0l-0.16,0l-0.16,0l-0.16,0l-0.16,0l-0.16,0l-0.16,0l-0.16,0l-0.16,0l-0.16,0l-0.16,0l-0.16,0l-0.16,0l-0.16,0l-0.16,0l-0.16,0l-0.16,0l-0.16,0l-0.16,0l-0.16,0l-0.16,0l-0.16,0l-0.16,0l-0.16,0l-0.16,0l-0.16,0l-0.16,0l-0.16,0l-0.16,0l-0.16,0l-0.16,0l-0.16,0l-0.16,0l-0.16,0l0,-16.1l5.62,0l0,0.01l0.15,0zm7.62,0l0,0.16l0,0.16l0,0.16l0,0.16l0,0.16l0,0.16l0,0.16l0,0.16l0,0.16l0,0.16l0,0.16l0,0.16l0,0.16l0,0.16l0,0.16l0,0.16l0,0.16l0,0.16l0,0.16l0,0.16l0,0.16l0,0.16l0,0.16l0,0.16l0,0.16l0,0.16l0,0.16l0,0.16l0,0.16l0,0.16l0,0.16l0,0.16l0,0.16l0,0.16l0,10.65l-0.03,0l-0.16,0l-0.16,0l-0.16,0l-0.16,0l-0.16,0l-0.16,0l-0.16,0l-0.16,0l-0.16,0l-0.16,0l-0.16,0l-0.16,0l-0.16,0l-0.16,0l-0.16,0l-0.16,0l-0.16,0l-0.16,0l-0.16,0l-0.16,0l-0.16,0l-0.16,0l-0.16,0l-0.16,0l-0.16,0l-0.16,0l-0.16,0l-0.16,0l-0.16,0l-0.16,0l-0.16,0l-0.16,0l-0.16,0l-0.16,0l-0.16,0l0,-16.1l5.48,0l0,0.01l0.15,0zm7.75,0l0,0.16l0,0.16l0,0.16l0,0.16l0,0.16l0,0.16l0,0.16l0,0.16l0,0.16l0,0.16l0,0.16l0,0.16l0,0.16l0,0.16l0,0.16l0,0.16l0,0.16l0,0.16l0,0.16l0,0.16l0,0.16l0,0.16l0,0.16l0,0.16l0,0.16l0,0.16l0,0.16l0,0.16l0,0.16l0,0.16l0,0.16l0,0.16l0,0.16l0,0.16l0,0.16l0,10.49l-0.01,0l-0.16,0l-0.16,0l-0.16,0l-0.16,0l-0.16,0l-0.16,0l-0.16,0l-0.16,0l-0.16,0l-0.16,0l-0.16,0l-0.16,0l-0.16,0l-0.16,0l-0.16,0l-0.16,0l-0.16,0l-0.09,0l-0.16,0l-0.16,0l-0.16,0l-0.16,0l-0.16,0l-0.16,0l-0.16,0l-0.16,0l-0.16,0l-0.16,0l-0.16,0l-0.16,0l-0.16,0l-0.16,0l-0.16,0l-0.16,0l-0.16,0l-0.16,0l0,-16.1l5.62,0l0,0.01l0.08,0zm7.61,0l0,0.16l0,0.16l0,0.16l0,0.16l0,0.16l0,0.16l0,0.16l0,0.16l0,0.16l0,0.16l0,0.16l0,0.16l0,0.16l0,0.16l0,0.16l0,0.16l0,0.16l0,0.16l0,0.16l0,0.16l0,0.16l0,0.16l0,0.16l0,0.16l0,0.16l0,0.16l0,0.16l0,0.16l0,0.16l0,0.16l0,0.16l0,0.16l0,0.16l0,0.16l0,10.65l-0.03,0l-0.16,0l-0.16,0l-0.16,0l-0.16,0l-0.16,0l-0.16,0l-0.16,0l-0.16,0l-0.12,0l-0.16,0l-0.16,0l-0.16,0l-0.16,0l-0.16,0l-0.16,0l-0.16,0l-0.16,0l-0.16,0l-0.16,0l-0.16,0l-0.16,0l-0.16,0l-0.16,0l-0.16,0l-0.16,0l-0.16,0l-0.16,0l-0.16,0l-0.16,0l-0.16,0l-0.16,0l-0.16,0l-0.16,0l-0.16,0l-0.16,0l0,-16.1l5.48,0l0,0.01l0.11,0zm7.76,0l0,0.16l0,0.16l0,0.16l0,0.16l0,0.16l0,0.16l0,0.16l0,0.16l0,0.16l0,0.16l0,0.16l0,0.16l0,0.16l0,0.16l0,0.16l0,0.16l0,0.16l0,0.16l0,0.16l0,0.16l0,0.16l0,0.16l0,0.16l0,0.16l0,0.16l0,0.16l0,0.16l0,0.16l0,0.16l0,0.16l0,0.16l0,0.16l0,0.16l0,0.16l0,0.16l0,10.49l-0.01,0l-0.16,0l-0.16,0l-0.16,0l-0.16,0l-0.16,0l-0.16,0l-0.16,0l-0.16,0l-0.16,0l-0.16,0l-0.16,0l-0.16,0l-0.16,0l-0.16,0l-0.16,0l-0.16,0l-0.16,0l-0.16,0l-0.16,0l-0.16,0l-0.16,0l-0.16,0l-0.16,0l-0.16,0l-0.16,0l-0.16,0l-0.16,0l-0.16,0l-0.16,0l-0.16,0l-0.16,0l-0.16,0l-0.16,0l-0.16,0l-0.16,0l-0.16,0l0,-16.1l5.63,0l0,0.01l0.14,0zm7.61,0l0,0.16l0,0.16l0,0.16l0,0.16l0,0.16l0,0.16l0,0.16l0,0.16l0,0.16l0,0.16l0,0.16l0,0.16l0,0.16l0,0.16l0,0.16l0,0.16l0,0.16l0,0.16l0,0.16l0,0.16l0,0.16l0,0.16l0,0.16l0,0.16l0,0.16l0,0.16l0,0.16l0,0.16l0,0.16l0,0.16l0,0.16l0,0.16l0,0.16l0,0.16l0,10.65l-0.03,0l-0.16,0l-0.16,0l-0.16,0l-0.16,0l-0.13,0l-0.16,0l-0.16,0l-0.16,0l-0.16,0l-0.16,0l-0.16,0l-0.16,0l-0.16,0l-0.16,0l-0.16,0l-0.16,0l-0.16,0l-0.16,0l-0.16,0l-0.16,0l-0.16,0l-0.16,0l-0.16,0l-0.16,0l-0.16,0l-0.16,0l-0.16,0l-0.16,0l-0.16,0l-0.16,0l-0.16,0l-0.16,0l-0.16,0l-0.16,0l-0.16,0l0,-16.1l5.48,0l0,0.01l0.12,0zm15.79,0l0,0.16l0,0.16l0,0.16l0,0.16l0,0.16l0,0.16l0,0.16l0,0.16l0,0.16l0,0.16l0,0.16l0,0.16l0,0.16l0,0.16l0,0.16l0,0.16l0,0.16l0,0.16l0,0.16l0,0.16l0,0.16l0,0.16l0,0.16l0,0.16l0,0.16l0,0.16l0,0.16l0,0.16l0,0.16l0,0.16l0,0.16l0,0.16l0,0.16l0,0.16l0,0.16l0,0.16l0,0.16l0,0.16l0,0.16l0,0.16l0,9.71l-7.27,0l-0.16,0l-0.16,0l-0.16,0l-0.16,0l-0.16,0l-0.16,0l-0.16,0l-0.16,0l-0.16,0l-0.16,0l-0.16,0l-0.16,0l-0.16,0l-0.16,0l-0.16,0l-0.16,0l-0.16,0l-0.16,0l-0.16,0l-0.16,0l-0.16,0l-0.16,0l-0.16,0l-0.16,0l-0.16,0l-0.16,0l-0.16,0l-0.16,0l-0.16,0l-0.16,0l-0.16,0l-0.16,0l-0.16,0l-0.16,0l-0.16,0l-0.16,0l-0.16,0l-0.16,0l-0.16,0l-0.16,0l-0.16,0l0,-16.1l13.66,0l0,-0.01l0.17,0zm0,-7.96l0,0.16l0,0.16l0,0.16l0,0.16l0,0.16l0,0.16l0,0.16l0,0.16l0,0.16l0,0.16l0,0.16l0,0.16l0,0.16l0,0.16l0,0.16l0,0.16l0,0.16l0,0.16l0,0.16l0,0.16l0,0.16l0,0.16l0,0.16l0,0.16l0,0.16l0,0.16l0,0.16l0,0.16l0,0.16l0,0.16l0,0.16l0,0.16l0,0.16l0,0.16l0,0.16l0,0.16l0,0.07l-14.72,0l-7.61,0l-7.76,0l-7.61,0l-7.75,0l-7.61,0l-7.75,0l-7.61,0l-3.16,0l-0.16,0l-0.16,0l-0.16,0l-0.16,0l-0.16,0l-0.16,0l-0.16,0l-0.16,0l-0.16,0l-0.16,0l-0.16,0l-0.16,0l-0.16,0l-0.16,0l-0.16,0l-0.16,0l-0.16,0l-0.16,0l-0.16,0l-0.16,0l-0.16,0l-0.16,0l-0.16,0l-0.16,0l-0.16,0l-0.16,0l-0.16,0l-0.16,0l-0.16,0l-0.16,0l-0.16,0l-0.16,0l-0.16,0l-0.16,0l-0.16,0l-0.16,0l-0.16,0l0,-5.84l8.92,0l7.61,0l7.75,0l7.61,0l7.75,0l7.61,0l7.76,0l7.61,0l14.72,0l0,0.01l0.16,0zm-77.36,-2.29l0,-11.49l7.86,0l0,0.15l0,0.16l0,0.16l0,0.16l0,0.16l0,0.16l0,0.16l0,0.16l0,0.16l0,0.16l0,0.16l0,0.16l0,0.16l0,0.16l0,0.16l0,0.16l0,0.16l0,0.16l0,0.16l0,0.16l0,0.16l0,0.16l0,0.16l0,0.16l0,0.16l0,0.16l0,0.16l0,0.16l0,0.16l0,0.16l0,0.16l0,0.16l0,0.16l0,0.16l0,0.16l0,0.16l0,0.16l0,0.16l0,0.16l0,0.16l0,0.16l0,5.1l-1.47,0l-0.16,0l-0.16,0l-0.16,0l-0.16,0l-0.16,0l-0.16,0l-0.16,0l-0.16,0l-0.16,0l-0.16,0l-0.16,0l-0.16,0l-0.16,0l-0.16,0l-0.16,0l-0.16,0l-0.16,0l-0.16,0l-0.16,0l-0.16,0l-0.16,0l-0.16,0l-0.16,0l-0.16,0l-0.16,0l-0.16,0l-0.16,0l-0.16,0l-0.16,0l-0.16,0l-0.16,0l-0.16,0l-0.16,0l-0.16,0l-0.16,0l-0.16,0l-0.16,0l-0.16,0l-0.16,0l-0.16,0l0.01,0l0,-0.16zm9.99,0l0,-11.49l5.48,0l0,0.15l0,0.16l0,0.16l0,0.16l0,0.16l0,0.16l0,0.16l0,0.16l0,0.16l0,0.16l0,0.16l0,0.16l0,0.16l0,0.16l0,0.16l0,0.16l0,0.16l0,0.16l0,0.16l0,0.16l0,0.16l0,0.16l0,0.16l0,0.16l0,0.16l0,0.16l0,0.16l0,0.16l0,0.16l0,0.16l0,0.16l0,0.16l0,0.16l0,0.16l0,0.16l0,6.04l-0.03,0l-0.16,0l-0.16,0l-0.16,0l-0.16,0l-0.16,0l-0.16,0l-0.16,0l-0.16,0l-0.16,0l-0.16,0l-0.16,0l-0.16,0l-0.16,0l-0.16,0l-0.16,0l-0.16,0l-0.16,0l-0.16,0l-0.16,0l-0.16,0l-0.16,0l-0.16,0l-0.16,0l-0.16,0l-0.16,0l-0.16,0l-0.16,0l-0.16,0l-0.16,0l-0.03,0l-0.16,0l-0.16,0l-0.16,0l-0.16,0l-0.14,0l0,-0.14zm7.61,0l0,-11.49l5.62,0l0,0.15l0,0.16l0,0.16l0,0.16l0,0.16l0,0.16l0,0.16l0,0.16l0,0.16l0,0.16l0,0.16l0,0.16l0,0.16l0,0.16l0,0.16l0,0.16l0,0.16l0,0.16l0,0.16l0,0.16l0,0.16l0,0.16l0,0.16l0,0.16l0,0.16l0,0.16l0,0.16l0,0.16l0,0.16l0,0.16l0,0.16l0,0.16l0,0.16l0,0.16l0,0.16l0,0.16l0,5.88l-0.01,0l-0.16,0l-0.16,0l-0.16,0l-0.16,0l-0.16,0l-0.16,0l-0.16,0l-0.16,0l-0.16,0l-0.16,0l-0.16,0l-0.16,0l-0.16,0l-0.16,0l-0.16,0l-0.16,0l-0.16,0l-0.16,0l-0.16,0l-0.16,0l-0.16,0l-0.16,0l-0.16,0l-0.16,0l-0.16,0l-0.16,0l-0.16,0l-0.16,0l-0.16,0l-0.16,0l-0.16,0l-0.16,0l-0.16,0l-0.16,0l-0.16,0l-0.01,0l0,-0.14zm7.75,0l0,-11.49l5.48,0l0,0.15l0,0.16l0,0.16l0,0.16l0,0.16l0,0.16l0,0.16l0,0.16l0,0.16l0,0.16l0,0.16l0,0.16l0,0.16l0,0.16l0,0.16l0,0.16l0,0.16l0,0.16l0,0.16l0,0.16l0,0.16l0,0.16l0,0.16l0,0.16l0,0.16l0,0.16l0,0.16l0,0.16l0,0.16l0,0.16l0,0.16l0,0.16l0,0.16l0,0.16l0,0.16l0,6.04l-0.03,0l-0.16,0l-0.16,0l-0.16,0l-0.16,0l-0.16,0l-0.16,0l-0.16,0l-0.16,0l-0.16,0l-0.16,0l-0.16,0l-0.16,0l-0.16,0l-0.16,0l-0.16,0l-0.16,0l-0.16,0l-0.16,0l-0.16,0l-0.16,0l-0.16,0l-0.16,0l-0.16,0l-0.16,0l-0.16,0l-0.16,0l-0.16,0l-0.16,0l-0.16,0l-0.16,0l-0.16,0l-0.16,0l-0.16,0l-0.16,0l-0.01,0l0,-0.14zm7.62,0l0,-11.49l5.62,0l0,0.15l0,0.16l0,0.16l0,0.16l0,0.16l0,0.16l0,0.16l0,0.16l0,0.16l0,0.16l0,0.16l0,0.16l0,0.16l0,0.16l0,0.16l0,0.16l0,0.16l0,0.16l0,0.16l0,0.16l0,0.16l0,0.16l0,0.16l0,0.16l0,0.16l0,0.16l0,0.16l0,0.16l0,0.16l0,0.16l0,0.16l0,0.16l0,0.16l0,0.16l0,0.16l0,0.16l0,5.88l-0.01,0l-0.16,0l-0.16,0l-0.16,0l-0.16,0l-0.16,0l-0.16,0l-0.16,0l-0.16,0l-0.16,0l-0.16,0l-0.16,0l-0.16,0l-0.16,0l-0.16,0l-0.16,0l-0.16,0l-0.16,0l-0.09,0l-0.16,0l-0.16,0l-0.16,0l-0.16,0l-0.16,0l-0.16,0l-0.16,0l-0.16,0l-0.16,0l-0.16,0l-0.16,0l-0.16,0l-0.16,0l-0.16,0l-0.16,0l-0.16,0l-0.16,0l-0.08,0l0,-0.14zm7.75,0l0,-11.49l5.48,0l0,0.15l0,0.16l0,0.16l0,0.16l0,0.16l0,0.16l0,0.16l0,0.16l0,0.16l0,0.16l0,0.16l0,0.16l0,0.16l0,0.16l0,0.16l0,0.16l0,0.16l0,0.16l0,0.16l0,0.16l0,0.16l0,0.16l0,0.16l0,0.16l0,0.16l0,0.16l0,0.16l0,0.16l0,0.16l0,0.16l0,0.16l0,0.16l0,0.16l0,0.16l0,0.16l0,6.04l-0.03,0l-0.16,0l-0.16,0l-0.16,0l-0.16,0l-0.16,0l-0.16,0l-0.16,0l-0.16,0l-0.12,0l-0.16,0l-0.16,0l-0.16,0l-0.16,0l-0.16,0l-0.16,0l-0.16,0l-0.16,0l-0.16,0l-0.16,0l-0.16,0l-0.16,0l-0.16,0l-0.16,0l-0.16,0l-0.16,0l-0.16,0l-0.16,0l-0.16,0l-0.16,0l-0.16,0l-0.16,0l-0.16,0l-0.16,0l-0.16,0l-0.05,0l0,-0.14zm7.62,0l0,-11.49l5.63,0l0,0.15l0,0.16l0,0.16l0,0.16l0,0.16l0,0.16l0,0.16l0,0.16l0,0.16l0,0.16l0,0.16l0,0.16l0,0.16l0,0.16l0,0.16l0,0.16l0,0.16l0,0.16l0,0.16l0,0.16l0,0.16l0,0.16l0,0.16l0,0.16l0,0.16l0,0.16l0,0.16l0,0.16l0,0.16l0,0.16l0,0.16l0,0.16l0,0.16l0,0.16l0,0.16l0,0.16l0,5.88l-0.01,0l-0.16,0l-0.16,0l-0.16,0l-0.16,0l-0.16,0l-0.16,0l-0.16,0l-0.16,0l-0.16,0l-0.16,0l-0.16,0l-0.16,0l-0.16,0l-0.16,0l-0.16,0l-0.16,0l-0.16,0l-0.16,0l-0.16,0l-0.16,0l-0.16,0l-0.16,0l-0.16,0l-0.16,0l-0.16,0l-0.16,0l-0.16,0l-0.16,0l-0.16,0l-0.16,0l-0.16,0l-0.16,0l-0.16,0l-0.16,0l-0.16,0l-0.02,0l0,-0.14zm7.75,0l0,-11.49l5.48,0l0,0.15l0,0.16l0,0.16l0,0.16l0,0.16l0,0.16l0,0.16l0,0.16l0,0.16l0,0.16l0,0.16l0,0.16l0,0.16l0,0.16l0,0.16l0,0.16l0,0.16l0,0.16l0,0.16l0,0.16l0,0.16l0,0.16l0,0.16l0,0.16l0,0.16l0,0.16l0,0.16l0,0.16l0,0.16l0,0.16l0,0.16l0,0.16l0,0.16l0,0.16l0,0.16l0,6.04l-0.03,0l-0.16,0l-0.16,0l-0.16,0l-0.16,0l-0.13,0l-0.16,0l-0.16,0l-0.16,0l-0.16,0l-0.16,0l-0.16,0l-0.16,0l-0.16,0l-0.16,0l-0.16,0l-0.16,0l-0.16,0l-0.16,0l-0.16,0l-0.16,0l-0.16,0l-0.16,0l-0.16,0l-0.16,0l-0.16,0l-0.16,0l-0.16,0l-0.16,0l-0.16,0l-0.16,0l-0.16,0l-0.16,0l-0.16,0l-0.16,0l-0.04,0l0,-0.14zm21.27,-11.34l0,0.16l0,0.16l0,0.16l0,0.16l0,0.16l0,0.16l0,0.16l0,0.16l0,0.16l0,0.16l0,0.16l0,0.16l0,0.16l0,0.16l0,0.16l0,0.16l0,0.16l0,0.16l0,0.16l0,0.16l0,0.16l0,0.16l0,0.16l0,0.16l0,0.16l0,0.16l0,0.16l0,0.16l0,0.16l0,0.16l0,0.16l0,0.16l0,0.16l0,0.16l0,0.16l0,0.16l0,0.16l0,0.16l0,0.16l0,0.16l0,5.1l-7.27,0l-0.16,0l-0.16,0l-0.16,0l-0.16,0l-0.16,0l-0.16,0l-0.16,0l-0.16,0l-0.16,0l-0.16,0l-0.16,0l-0.16,0l-0.16,0l-0.16,0l-0.16,0l-0.16,0l-0.16,0l-0.16,0l-0.16,0l-0.16,0l-0.16,0l-0.16,0l-0.16,0l-0.16,0l-0.16,0l-0.16,0l-0.16,0l-0.16,0l-0.16,0l-0.16,0l-0.16,0l-0.16,0l-0.16,0l-0.16,0l-0.16,0l-0.16,0l-0.16,0l-0.16,0l-0.16,0l-0.16,0l-0.16,0l0,-11.49l13.66,0l0,-0.01l0.17,0zm1.83,-16.97l0,0.16l0,0.16l0,0.16l0,0.16l0,0.16l0,0.16l0,0.16l0,0.12l-0.07,0.03l-0.34,0.16l-0.34,0.16l-0.34,0.16l-0.34,0.16l-0.34,0.16l-0.34,0.16l-0.34,0.16l-0.34,0.16l-0.34,0.16l-0.32,0.15c0,0 -0.01,0 -0.01,0.01c-0.09,0.04 -0.16,0.1 -0.23,0.16c-0.06,0.05 -0.1,0.1 -0.15,0.16c-0.04,0.05 -0.08,0.1 -0.11,0.16c-0.03,0.05 -0.04,0.1 -0.06,0.16c-0.02,0.05 -0.04,0.1 -0.05,0.16c-0.01,0.05 -0.01,0.1 -0.01,0.16c0,0.05 0,0.1 0.01,0.16c0,0.03 0,0.07 0,0.1c0,0.02 0.02,0.04 0.02,0.06c0.02,0.06 0.04,0.11 0.06,0.16c0.03,0.05 0.05,0.11 0.08,0.16c0.04,0.06 0.09,0.11 0.14,0.16c0.03,0.03 0.07,0.07 0.1,0.1c0.18,0.13 0.4,0.22 0.63,0.22l1.17,0l0,0.16l0,0.16l0,0.16l0,0.16l0,0.16l0,0.16l0,0.16l0,0.14l0,0.13l0,0.12l0,0.07l0,0.05l0,5.1l0,3.16l-14.72,0l-7.61,0l-7.76,0l-7.61,0l-7.75,0l-7.61,0l-7.75,0l-7.61,0l-9.99,0l-22.01,0l-13.62,0l-16.42,0l-0.16,0l-0.16,0l-0.16,0l-0.07,0l-0.08,0l-0.16,0l-0.16,0l-0.16,0l-0.16,0l-0.16,0l-0.16,0l-0.16,0l-0.16,0l-0.16,0l-0.16,0l-0.16,0l-0.16,0l-0.16,0l-0.16,0l-0.16,0l-0.16,0l-0.16,0l-0.16,0l-0.16,0l-0.16,0l-0.16,0l-0.16,0l-0.16,0l-0.16,0l-0.16,0l-0.16,0l-0.16,0l-0.16,0l-0.16,0l-0.16,0l-0.16,0l-0.16,0l-0.16,0l-0.16,0l-0.16,0l-0.16,0l-0.16,0l0,-14.84l6.9,0l68.32,0l8.59,0l6.92,0l10.06,0l6.92,0l10.06,0l6.92,0l14.03,0l0,0l0.15,0zm99.77,-41.64l3.44,0l0,0.16l0,0.16l0,0.16l0,0.16l0,0.16l0,0.16l0,0.16l0,0.16l0,0.16l0,0.16l0,0.16l0,0.16l0,0.16l0,0.16l0,0.16l0,0.16l0,0.16l0,0.16l0,0.16l0,0.16l0,0.16l0,0.16l0,11.87l-0.01,0l-0.16,0l-0.16,0l-0.16,0l-0.14,0l-0.16,0l-0.16,0l-0.16,0l-0.16,0l-0.16,0l-0.16,0l-0.16,0l-0.16,0l-0.16,0l-0.16,0l-0.16,0l-0.16,0l-0.16,0l-0.16,0l-0.16,0l-0.16,0l-0.16,0l-0.16,0l0,-15.39l0.07,0zm-18.81,-11.55c0.02,0.02 0.04,0.05 0.07,0.07c0.02,0.02 0.04,0.05 0.07,0.07c0.02,0.02 0.04,0.05 0.07,0.07c0.02,0.02 0.04,0.05 0.07,0.07c0.02,0.02 0.04,0.05 0.07,0.07c0.02,0.02 0.04,0.05 0.07,0.07c0.02,0.02 0.04,0.05 0.07,0.07c0.02,0.02 0.04,0.05 0.07,0.07c0.02,0.02 0.04,0.05 0.07,0.07c0.02,0.02 0.04,0.05 0.07,0.07c0.02,0.02 0.04,0.05 0.07,0.07c0.02,0.02 0.04,0.05 0.07,0.07c0.02,0.02 0.04,0.05 0.07,0.07c0.02,0.02 0.05,0.05 0.07,0.07c0.02,0.02 0.04,0.05 0.07,0.07c0.02,0.02 0.04,0.05 0.07,0.07c0.02,0.02 0.04,0.05 0.07,0.07c0.02,0.02 0.04,0.05 0.07,0.07c0.02,0.02 0.04,0.05 0.07,0.07c0.02,0.02 0.05,0.05 0.07,0.07c0.02,0.02 0.05,0.05 0.07,0.07c0.02,0.02 0.05,0.05 0.07,0.07c0.02,0.02 0.05,0.05 0.07,0.07c0.03,0.04 0.07,0.07 0.1,0.11c0.04,0.04 0.07,0.08 0.11,0.12c0.04,0.04 0.07,0.08 0.11,0.12c0.03,0.03 0.06,0.07 0.09,0.1c0.02,0.03 0.04,0.06 0.07,0.08c0.02,0.03 0.04,0.06 0.07,0.08c0.02,0.03 0.04,0.06 0.07,0.08c0.02,0.03 0.04,0.06 0.07,0.08c0.02,0.03 0.04,0.06 0.07,0.08c0.02,0.03 0.04,0.06 0.07,0.08c0.02,0.03 0.04,0.06 0.07,0.08c0.02,0.03 0.04,0.06 0.07,0.08c0.02,0.03 0.04,0.06 0.07,0.08c0.02,0.03 0.04,0.06 0.07,0.08c0.02,0.03 0.04,0.06 0.07,0.08c0.02,0.03 0.04,0.06 0.07,0.08c0.02,0.03 0.04,0.06 0.07,0.08c5.2,6.53 8.41,14.71 8.65,23.64l-4,0l-0.13,0l-0.13,0l-0.13,0l-0.14,0l-0.14,0l-0.14,0l-0.14,0l-0.14,0l-0.14,0l-0.14,0l-0.14,0l-0.14,0l-0.14,0l-0.14,0l-0.14,0l-0.14,0l-0.14,0l-0.14,0l-0.14,0l-0.14,0l-0.14,0l-0.14,0l-0.15,0l-0.15,0l-0.15,0l-0.15,0l-0.15,0l-0.15,0l-0.15,0l-0.15,0l-0.15,0l-0.15,0l-0.15,0l-0.15,0l-0.15,0l-0.15,0l-0.15,0l-0.15,0l-0.15,0l-0.15,0l-0.15,0c-0.25,-13.85 -5.3,-26.03 -12.9,-33.41c-0.03,-0.03 -0.06,-0.06 -0.08,-0.09c-0.06,-0.06 -0.12,-0.11 -0.18,-0.17c-0.06,-0.06 -0.13,-0.11 -0.19,-0.17c-0.06,-0.06 -0.13,-0.11 -0.19,-0.17c-0.06,-0.06 -0.13,-0.11 -0.19,-0.17c-0.06,-0.06 -0.13,-0.11 -0.19,-0.17c-0.06,-0.06 -0.13,-0.11 -0.19,-0.17c-0.06,-0.06 -0.13,-0.11 -0.19,-0.17c-0.06,-0.05 -0.13,-0.12 -0.19,-0.17c-0.06,-0.05 -0.12,-0.12 -0.19,-0.17c-0.08,-0.07 -0.17,-0.13 -0.25,-0.19c-0.08,-0.07 -0.17,-0.13 -0.26,-0.2c-0.08,-0.07 -0.17,-0.13 -0.26,-0.2c-0.08,-0.07 -0.17,-0.13 -0.26,-0.2c-0.09,-0.06 -0.17,-0.13 -0.26,-0.2c-0.09,-0.06 -0.17,-0.13 -0.26,-0.2c-0.09,-0.06 -0.17,-0.13 -0.26,-0.2c5.58,2.18 10.66,5.47 14.81,9.68zm-12.1,-4.4c0.02,0.02 0.03,0.04 0.05,0.05c0.02,0.02 0.03,0.04 0.05,0.06c0.02,0.02 0.03,0.04 0.05,0.06c0.02,0.02 0.03,0.04 0.05,0.06c0.02,0.02 0.03,0.04 0.05,0.05c0.02,0.02 0.03,0.04 0.05,0.05c0.02,0.02 0.03,0.04 0.05,0.05c0.02,0.02 0.03,0.04 0.05,0.06c0.02,0.02 0.03,0.04 0.05,0.05c0.02,0.02 0.03,0.04 0.05,0.05c0.02,0.02 0.03,0.04 0.05,0.06c0.02,0.02 0.03,0.04 0.05,0.06c0.02,0.02 0.03,0.04 0.05,0.05c0.02,0.02 0.03,0.04 0.05,0.06c0.02,0.02 0.03,0.04 0.05,0.05c0.02,0.02 0.03,0.04 0.05,0.06c0.02,0.02 0.03,0.04 0.05,0.06c0.03,0.04 0.07,0.07 0.1,0.11c0.03,0.04 0.07,0.07 0.1,0.11c0.03,0.04 0.07,0.07 0.1,0.11c0.03,0.04 0.07,0.07 0.1,0.11c0.03,0.04 0.07,0.07 0.1,0.11c0.03,0.04 0.07,0.07 0.1,0.11c0.03,0.04 0.07,0.07 0.1,0.11c0.03,0.04 0.07,0.07 0.1,0.11s0.07,0.07 0.1,0.11c0.02,0.03 0.05,0.06 0.07,0.09c0.02,0.03 0.04,0.06 0.06,0.08c0.02,0.03 0.04,0.06 0.06,0.08c0.02,0.03 0.04,0.06 0.06,0.08c0.02,0.03 0.04,0.06 0.06,0.08c0.02,0.03 0.04,0.06 0.06,0.08c0.02,0.03 0.04,0.06 0.06,0.08c0.02,0.03 0.04,0.06 0.06,0.08c0.02,0.03 0.04,0.06 0.06,0.08c0.02,0.03 0.04,0.06 0.06,0.08c0.02,0.03 0.04,0.06 0.06,0.08c0.02,0.03 0.04,0.06 0.06,0.08c0.02,0.03 0.04,0.06 0.06,0.08c0.02,0.03 0.04,0.06 0.06,0.08c5.31,7.05 8.71,17.02 8.91,28.13l-6.59,0l-0.15,0l-0.15,0l-0.15,0l-0.15,0l-0.15,0l-0.15,0l-0.15,0l-0.15,0l-0.15,0l-0.15,0l-0.15,0l-0.15,0l-0.15,0l-0.15,0l-0.15,0l-0.15,0l-0.15,0l-0.15,0l-0.15,0l-0.15,0l-0.15,0l-0.15,0l-0.15,0l-0.15,0l-0.15,0l-0.15,0l-0.15,0l-0.15,0l-0.15,0l-0.15,0l-0.15,0l-0.15,0l-0.15,0l-0.15,0l-0.15,0l-0.15,0l-0.15,0l-0.15,0l-0.15,0l-0.15,0l-0.15,0c-0.15,-17.49 -3.94,-31.98 -9.38,-37.94c3.89,1.2 7.49,3.53 10.61,6.75zm-16.19,-7.5c1.19,0 2.39,0.6 3.55,1.71c0.04,0.04 0.08,0.09 0.12,0.13c0.04,0.04 0.08,0.09 0.12,0.13c0.04,0.04 0.08,0.09 0.12,0.13c0.04,0.04 0.08,0.08 0.12,0.13c0.04,0.04 0.08,0.08 0.12,0.13c0.04,0.04 0.08,0.08 0.12,0.13s0.08,0.08 0.12,0.13c0.04,0.05 0.08,0.08 0.12,0.13c0.03,0.04 0.06,0.07 0.09,0.1c0.02,0.02 0.04,0.06 0.06,0.08c0.02,0.02 0.04,0.06 0.06,0.08c0.02,0.02 0.04,0.06 0.06,0.08c0.02,0.03 0.04,0.05 0.06,0.08c0.02,0.03 0.04,0.05 0.06,0.08c0.02,0.03 0.04,0.05 0.06,0.08c0.02,0.03 0.04,0.05 0.06,0.08c0.03,0.04 0.05,0.07 0.08,0.11c0.03,0.04 0.06,0.08 0.09,0.13c0.03,0.04 0.06,0.08 0.09,0.13c0.03,0.04 0.06,0.08 0.09,0.13c0.03,0.04 0.06,0.08 0.09,0.13c0.03,0.04 0.06,0.08 0.09,0.13c0.03,0.04 0.06,0.08 0.09,0.13c0.03,0.04 0.05,0.08 0.08,0.12c0.02,0.04 0.04,0.08 0.07,0.11c0.02,0.04 0.04,0.08 0.07,0.11c0.02,0.04 0.04,0.08 0.07,0.11c0.02,0.04 0.04,0.08 0.07,0.11c0.02,0.04 0.04,0.08 0.07,0.11c0.02,0.04 0.04,0.08 0.07,0.11c0.02,0.04 0.04,0.08 0.07,0.11c0.03,0.05 0.06,0.1 0.08,0.14c0.03,0.05 0.06,0.1 0.08,0.14c0.03,0.05 0.06,0.09 0.08,0.14c0.03,0.05 0.06,0.09 0.08,0.14c0.03,0.05 0.06,0.09 0.08,0.14c0.03,0.05 0.06,0.09 0.08,0.14c0.03,0.05 0.05,0.09 0.08,0.14c0.02,0.04 0.04,0.1 0.07,0.14c0.02,0.04 0.04,0.1 0.07,0.14c3.34,6.64 5.86,18 5.98,32.29l-19.03,0l-0.17,0l-0.17,0l-0.17,0l-0.17,0l-0.17,0l-0.17,0l-0.17,0l-0.17,0l-0.17,0l-0.17,0l-0.17,0l-0.17,0l-0.17,0l-0.16,0l-0.16,0l-0.16,0l-0.16,0l-0.16,0l-0.16,0l-0.16,0l-0.16,0l-0.16,0l-0.16,0l-0.16,0l-0.16,0l-0.16,0l-0.16,0l-0.16,0l-0.16,0l-0.16,0l-0.16,0l-0.16,0l-0.16,0l-0.16,0l-0.16,0l-0.16,0l-0.16,0l-0.16,0l-0.16,0l-0.16,0l-0.16,0c0.19,-23.21 6.72,-38.74 12.83,-38.74zm-5.83,1.11c-0.08,0.1 -0.16,0.2 -0.25,0.3c-0.08,0.1 -0.17,0.2 -0.25,0.3c-0.08,0.1 -0.17,0.19 -0.25,0.3c-0.07,0.09 -0.13,0.19 -0.19,0.28c-0.07,0.09 -0.13,0.19 -0.19,0.28c-0.08,0.11 -0.16,0.23 -0.24,0.35c-0.08,0.12 -0.16,0.23 -0.24,0.35c-0.07,0.11 -0.14,0.22 -0.21,0.34c-0.06,0.1 -0.12,0.22 -0.19,0.32c-0.06,0.11 -0.12,0.22 -0.19,0.32c-0.06,0.11 -0.13,0.21 -0.19,0.32c-0.08,0.14 -0.15,0.26 -0.23,0.4c-0.06,0.12 -0.12,0.25 -0.19,0.37c-0.06,0.12 -0.12,0.25 -0.18,0.37c-0.06,0.12 -0.12,0.24 -0.18,0.37c-0.06,0.12 -0.12,0.24 -0.18,0.37c-0.06,0.12 -0.12,0.24 -0.18,0.37c-0.06,0.13 -0.11,0.27 -0.17,0.4c-0.06,0.13 -0.12,0.28 -0.17,0.41c-0.06,0.14 -0.12,0.27 -0.17,0.41c-0.06,0.14 -0.12,0.27 -0.18,0.41c-0.05,0.14 -0.11,0.27 -0.16,0.4c-0.05,0.13 -0.09,0.26 -0.14,0.39c-0.05,0.14 -0.1,0.28 -0.15,0.43c-0.06,0.15 -0.11,0.31 -0.17,0.46c-0.06,0.16 -0.11,0.3 -0.17,0.46c-0.05,0.15 -0.1,0.3 -0.15,0.44c-0.05,0.14 -0.09,0.29 -0.14,0.43c-0.05,0.14 -0.09,0.29 -0.14,0.43c-0.05,0.15 -0.1,0.3 -0.14,0.45c-0.05,0.17 -0.11,0.34 -0.16,0.51c-0.05,0.16 -0.09,0.33 -0.14,0.49c-0.04,0.16 -0.09,0.32 -0.13,0.48c-0.04,0.16 -0.09,0.32 -0.13,0.48c-0.04,0.16 -0.09,0.32 -0.13,0.48c-0.04,0.16 -0.09,0.32 -0.13,0.49c-0.04,0.18 -0.09,0.36 -0.13,0.54c-0.04,0.17 -0.08,0.35 -0.12,0.52c-0.04,0.17 -0.08,0.35 -0.12,0.52c-0.04,0.18 -0.08,0.35 -0.12,0.52c-1.37,6.17 -2.19,13.45 -2.26,21.35l-5.88,0l-0.17,0l-0.17,0l-0.17,0l-0.17,0l-0.17,0l-0.17,0l-0.17,0l-0.17,0l-0.17,0l-0.17,0l-0.17,0l-0.17,0l-0.19,0l-0.17,0l-0.17,0l-0.17,0l-0.17,0l-0.17,0l-0.17,0l-0.16,0l-0.16,0l-0.16,0l-0.16,0l-0.16,0l-0.16,0l-0.16,0l-0.16,0l-0.16,0l-0.16,0l-0.16,0l-0.22,0l-0.16,0l-0.16,0l-0.16,0l-0.16,0l-0.16,0l-0.16,0l-0.16,0l-0.16,0l-0.16,0l-0.16,0c0.35,-18.73 9.74,-34.29 22.14,-37.94c-0.11,0.12 -0.19,0.23 -0.28,0.33zm-7.56,1.26c-0.2,0.14 -0.4,0.31 -0.6,0.46c-0.2,0.15 -0.4,0.3 -0.6,0.46c-0.2,0.15 -0.4,0.29 -0.59,0.45c-0.16,0.13 -0.31,0.28 -0.46,0.41c-0.2,0.17 -0.39,0.34 -0.58,0.52c-0.19,0.17 -0.39,0.34 -0.58,0.52c-0.15,0.14 -0.29,0.3 -0.44,0.45c-0.15,0.15 -0.3,0.31 -0.45,0.46c-0.19,0.19 -0.38,0.38 -0.56,0.58c-0.16,0.17 -0.31,0.35 -0.46,0.52c-0.14,0.16 -0.28,0.33 -0.42,0.49c-0.14,0.17 -0.29,0.33 -0.43,0.5c-0.17,0.2 -0.34,0.4 -0.5,0.61c-0.14,0.18 -0.27,0.36 -0.4,0.54c-0.14,0.18 -0.27,0.36 -0.4,0.54c-0.13,0.18 -0.27,0.36 -0.4,0.54c-0.14,0.2 -0.27,0.41 -0.41,0.61c-0.13,0.19 -0.26,0.4 -0.39,0.59c-0.13,0.2 -0.26,0.39 -0.39,0.59c-0.12,0.19 -0.24,0.38 -0.36,0.57c-0.12,0.2 -0.23,0.4 -0.34,0.6c-0.12,0.21 -0.25,0.43 -0.37,0.65c-0.12,0.22 -0.25,0.43 -0.37,0.65c-0.1,0.19 -0.2,0.39 -0.3,0.58c-0.1,0.2 -0.2,0.4 -0.3,0.6c-0.12,0.23 -0.23,0.46 -0.35,0.7c-0.11,0.23 -0.22,0.45 -0.33,0.68c-0.09,0.2 -0.17,0.41 -0.26,0.61c-0.09,0.2 -0.17,0.4 -0.26,0.61c-0.11,0.25 -0.22,0.5 -0.32,0.75c-0.09,0.23 -0.18,0.46 -0.27,0.7c-0.08,0.21 -0.16,0.44 -0.24,0.65c-0.08,0.22 -0.16,0.43 -0.24,0.65c-0.09,0.25 -0.19,0.5 -0.28,0.75c-0.08,0.23 -0.14,0.47 -0.22,0.71c-0.07,0.23 -0.14,0.47 -0.21,0.7c-0.07,0.23 -0.15,0.46 -0.21,0.7c-0.07,0.24 -0.14,0.47 -0.21,0.71c-0.07,0.25 -0.12,0.5 -0.19,0.75c-0.06,0.25 -0.13,0.5 -0.19,0.75c-0.06,0.25 -0.13,0.5 -0.19,0.75c-0.85,3.7 -1.34,7.63 -1.41,11.7l-2.83,0l-0.19,0l-0.18,0l-0.18,0l-0.18,0l-0.18,0l-0.18,0l-0.18,0l-0.18,0l-0.18,0l-0.18,0l-0.18,0l-0.18,0l-0.18,0l-0.18,0l-0.18,0l-0.18,0l-0.18,0l-0.18,0l-0.18,0l-0.18,0l-0.18,0l-0.17,0l-0.17,0l-0.17,0l-0.17,0l-0.17,0l-0.17,0l-0.17,0l-0.17,0l-0.17,0l-0.17,0l-0.17,0l-0.17,0l-0.17,0l-0.17,0l-0.17,0l-0.17,0l-0.17,0l-0.17,0l-0.17,0l-0.17,0c0.57,-16.77 11.44,-30.96 26.5,-36.36zm-37.15,21.08l3.44,0l0,0.16l0,0.16l0,0.16l0,0.16l0,0.16l0,0.16l0,0.16l0,0.16l0,0.16l0,0.16l0,0.16l0,0.16l0,0.16l0,0.16l0,0.16l0,0.16l0,0.16l0,0.16l0,0.16l0,0.16l0,0.16l0,0.16l0,11.87l-0.01,0l-0.16,0l-0.16,0l-0.16,0l-0.16,0l-0.16,0l-0.16,0l-0.16,0l-0.16,0l-0.16,0l-0.16,0l-0.16,0l-0.16,0l-0.16,0l-0.16,0l-0.16,0l-0.16,0l-0.16,0l-0.16,0l-0.16,0l-0.16,0l-0.16,0l-0.16,0l0,-15.39l0.09,0zm0,17.43l4.5,0l92.07,0l4.5,0l0,0.16l0,0.16l0,0.16l0,0.16l0,0.16l0,0.16l0,0.16l0,0.16l0,0.16l0,0.16l0,0.16l0,0.16l0,0.16l0,0.1l0,0.16l0,0.16l0,0.16l0,0.16l0,0.16l0,0.16l0,0.16l0,0.16l0,0.16l0,0.16l0,0.16l0,0.16l0,0.16l0,0.16l0,0.16l0,0.16l0,0.16l0,0.16l0,0.16l0,0.16l0,0.16l0,0.16l0,0.16l0,0.16l0,0.16l0,0.16l0,0.16l0,18.05l-39.18,-18.05l-0.34,-0.16l-0.34,-0.16l-0.34,-0.16l-0.34,-0.16l-0.34,-0.16l-0.34,-0.16l-0.34,-0.16l-0.34,-0.16l-0.34,-0.16l-0.34,-0.16l-0.34,-0.16l-0.34,-0.16l-0.34,-0.16l-0.34,-0.16l-0.34,-0.16l-0.34,-0.16l-0.34,-0.16l-0.34,-0.16l-0.34,-0.16l-0.34,-0.16l-0.34,-0.16l-0.34,-0.16l-0.34,-0.16l-0.34,-0.16l-0.34,-0.16l-0.34,-0.16l-0.34,-0.16l-0.34,-0.16l-0.34,-0.16l-0.34,-0.16l-0.34,-0.16l-0.34,-0.16l-0.09,-0.04c-0.28,-0.13 -0.61,-0.13 -0.89,0l-0.09,0.04l-0.34,0.16l-0.34,0.16l-0.34,0.16l-0.34,0.16l-0.34,0.16l-0.34,0.16l-0.34,0.16l-0.34,0.16l-0.34,0.16l-0.34,0.16l-0.34,0.16l-0.34,0.16l-0.34,0.16l-0.34,0.16l-0.34,0.16l-0.34,0.16l-0.34,0.16l-0.34,0.16l-0.34,0.16l-0.34,0.16l-0.34,0.16l-0.34,0.16l-0.34,0.16l-0.34,0.16l-0.34,0.16l-0.34,0.16l-0.34,0.16l-0.34,0.16l-0.34,0.16l-0.34,0.16l-0.34,0.16l-0.34,0.16l-32.79,15.11l-0.16,0.07l-0.16,0.07l-0.16,0.07l-0.16,0.07l-0.16,0.07l-0.16,0.07l-0.16,0.07l-0.16,0.07l-0.16,0.07l-0.16,0.07l-0.16,0.07l-0.16,0.07l-0.16,0.07l-0.16,0.07l-0.16,0.07l-0.16,0.07l-0.16,0.07l-0.16,0.07l-0.16,0.07l-0.16,0.07l-0.16,0.07l-0.16,0.07l-0.16,0.07l-0.16,0.07l-0.16,0.07l-0.16,0.07l-0.16,0.07l-0.16,0.07l-0.16,0.07l-0.16,0.07l-0.16,0.07l-0.16,0.07l-0.16,0.07l-0.16,0.07l-0.16,0.07l-0.16,0.07l-0.16,0.07l-0.16,0.07l-0.16,0.07l-0.16,0.07l-0.16,0.07l0,-24.48l0.29,0zm50.54,3.5l50.81,23.41l-0.18,0l-0.18,0l-0.18,0l-0.18,0l-0.18,0l-0.18,0l-0.18,0l-0.18,0l-0.18,0l-0.18,0l-0.18,0l-0.18,0l-0.18,0l-0.18,0l-0.18,0l-0.18,0l-0.18,0l-0.18,0l-0.18,0l-0.18,0l-0.18,0l-0.18,0l-0.18,0l-0.18,0l-0.18,0l-0.18,0l-0.18,0l-0.18,0l-0.18,0l-0.18,0l-0.18,0l-0.18,0l-0.18,0l-0.18,0l-0.18,0l-0.18,0l-0.18,0l-0.18,0l-0.18,0l-0.18,0l-0.18,0l-73.88,0l-0.49,0l-0.49,0l-0.49,0l-0.49,0l-0.49,0l-0.49,0l-0.49,0l-0.49,0l-0.49,0l-0.49,0l-0.49,0l-0.49,0l-0.49,0l-0.49,0l-0.49,0l-0.49,0l-0.49,0l-0.49,0l-0.49,0l-0.49,0l-0.49,0l-0.49,0l-0.49,0l-0.49,0l-0.49,0l-0.49,0l-0.49,0l-0.49,0l-0.49,0l-0.49,0l-0.49,0l-0.49,0l-0.49,0l-0.49,0l-0.49,0l-0.49,0l-0.49,0l-0.49,0l-0.49,0l-0.49,0l-0.49,0l50.54,-23.41zm-39.71,33.46l0,0.16l0,0.16l0,0.16l0,0.16l0,0.16l0,0.16l0,0.16l0,0.16l0,0.16l0,0.16l0,0.16l0,0.16l0,0.16l0,0.16l0,0.16l0,0.16l0,0.16l0,0.16l0,0.16l0,0.16l0,0.16l0,0.16l0,0.16l0,0.16l0,0.16l0,0.16l0,0.16l0,0.16l0,0.16l0,0.16l0,0.16l0,0.16l0,0.16l0,0.16l0,0.16l0,0.16l0,0.16l0,0.16l0,0.16l0,0.16l0,57.87l-6.26,0l-0.16,0l-0.16,0l-0.16,0l-0.16,0l-0.16,0l-0.16,0l-0.16,0l-0.16,0l-0.16,0l-0.16,0l-0.16,0l-0.16,0l-0.16,0l-0.16,0l-0.16,0l-0.16,0l-0.16,0l-0.16,0l-0.16,0l-0.08,0l-0.16,0l-0.16,0l-0.16,0l-0.16,0l-0.16,0l-0.16,0l-0.16,0l-0.16,0l-0.16,0l-0.16,0l-0.16,0l-0.16,0l-0.16,0l-0.16,0l-0.16,0l-0.16,0l-0.16,0l-0.16,0l-0.16,0l-0.16,0l-0.16,0l0,-21.45l0,-18.23l0,-7.97l0,-16.78l12.65,0l0,0.16l0.09,0zm16.88,0l0,0.16l0,0.16l0,0.16l0,0.16l0,0.16l0,0.16l0,0.16l0,0.16l0,0.16l0,0.16l0,0.16l0,0.16l0,0.16l0,0.16l0,0.16l0,0.16l0,0.16l0,0.16l0,0.16l0,0.16l0,0.16l0,0.16l0,0.16l0,0.16l0,0.16l0,0.16l0,0.16l0,0.16l0,0.16l0,0.16l0,0.16l0,0.16l0,0.16l0,0.16l0,0.16l0,58.65l-0.08,0l-0.16,0l-0.16,0l-0.16,0l-0.16,0l-0.16,0l-0.16,0l-0.16,0l-0.16,0l-0.16,0l-0.16,0l-0.16,0l-0.16,0l-0.16,0l-0.16,0l-0.16,0l-0.16,0l-0.16,0l-0.16,0l-0.16,0l-0.16,0l-0.16,0l-0.16,0l-0.16,0l-0.16,0l-0.16,0l-0.16,0l-0.16,0l-0.16,0l-0.16,0l-0.16,0l-0.16,0l-0.16,0l-0.16,0l-0.16,0l-0.16,0l-0.16,0l0,-64.26l5.7,0l0,0.01l0.14,0zm15.67,0l0,0.16l0,0.16l0,0.16l0,0.16l0,0.16l0,0.16l0,0.16l0,0.16l0,0.16l0,0.16l0,0.16l0,0.16l0,0.16l0,0.16l0,0.16l0,0.16l0,0.16l0,0.16l0,0.16l0,0.16l0,0.16l0,0.16l0,0.16l0,0.16l0,0.16l0,0.16l0,0.16l0,0.16l0,0.16l0,0.16l0,0.16l0,0.16l0,0.16l0,0.16l0,0.16l0,58.65l-0.08,0l-0.16,0l-0.16,0l-0.16,0l-0.16,0l-0.16,0l-0.16,0l-0.16,0l-0.16,0l-0.16,0l-0.16,0l-0.16,0l-0.16,0l-0.16,0l-0.16,0l-0.16,0l-0.16,0l-0.16,0l-0.16,0l-0.16,0l-0.16,0l-0.16,0l-0.16,0l-0.16,0l-0.16,0l-0.16,0l-0.16,0l-0.16,0l-0.16,0l-0.16,0l-0.16,0l-0.16,0l-0.16,0l-0.16,0l-0.16,0l-0.16,0l-0.16,0l0,-64.26l5.7,0l0,0.01l0.14,0zm19.75,0l0,0.16l0,0.16l0,0.16l0,0.16l0,0.16l0,0.16l0,0.16l0,0.16l0,0.16l0,0.16l0,0.16l0,0.16l0,0.16l0,0.16l0,0.16l0,0.16l0,0.16l0,0.16l0,0.16l0,0.16l0,0.16l0,0.16l0,0.16l0,0.16l0,0.16l0,0.16l0,0.16l0,0.16l0,0.16l0,0.16l0,0.16l0,0.16l0,0.16l0,0.16l0,0.16l0,58.65l-0.08,0l-0.16,0l-0.16,0l-0.16,0l-0.16,0l-0.16,0l-0.16,0l-0.16,0l-0.16,0l-0.16,0l-0.16,0l-0.16,0l-0.16,0l-0.16,0l-0.16,0l-0.16,0l-0.16,0l-0.16,0l-0.16,0l-0.16,0l-0.16,0l-0.16,0l-0.16,0l-0.16,0l-0.16,0l-0.16,0l-0.16,0l-0.16,0l-0.16,0l-0.16,0l-0.16,0l-0.16,0l-0.16,0l-0.16,0l-0.16,0l-0.16,0l-0.16,0l0,-64.26l5.69,0l0,0.01l0.15,0zm15.68,0l0,0.16l0,0.16l0,0.16l0,0.16l0,0.16l0,0.16l0,0.16l0,0.16l0,0.16l0,0.16l0,0.16l0,0.16l0,0.16l0,0.16l0,0.16l0,0.16l0,0.16l0,0.16l0,0.16l0,0.16l0,0.16l0,0.16l0,0.16l0,0.16l0,0.16l0,0.16l0,0.16l0,0.16l0,0.16l0,0.16l0,0.16l0,0.16l0,0.16l0,0.16l0,0.16l0,58.65l-0.08,0l-0.16,0l-0.16,0l-0.16,0l-0.16,0l-0.16,0l-0.16,0l-0.16,0l-0.16,0l-0.16,0l-0.16,0l-0.16,0l-0.16,0l-0.16,0l-0.16,0l-0.16,0l-0.16,0l-0.16,0l-0.16,0l-0.16,0l-0.16,0l-0.08,0l-0.16,0l-0.16,0l-0.16,0l-0.16,0l-0.16,0l-0.16,0l-0.16,0l-0.16,0l-0.16,0l-0.16,0l-0.16,0l-0.16,0l-0.16,0l-0.16,0l-0.16,0l0,-64.26l5.69,0l0,0.01l0.07,0zm23.84,0l0,0.16l0,0.16l0,0.16l0,0.16l0,0.16l0,0.16l0,0.16l0,0.16l0,0.16l0,0.16l0,0.16l0,0.16l0,0.16l0,0.16l0,0.16l0,0.16l0,0.16l0,0.16l0,0.16l0,0.16l0,0.16l0,0.16l0,0.16l0,0.16l0,0.16l0,0.16l0,0.16l0,0.16l0,0.16l0,0.16l0,0.16l0,0.16l0,0.16l0,0.16l0,0.16l0,0.16l0,0.16l0,0.16l0,0.16l0,0.16l0,57.87l-6.26,0l-0.16,0l-0.16,0l-0.16,0l-0.16,0l-0.16,0l-0.14,0l-0.16,0l-0.16,0l-0.16,0l-0.16,0l-0.16,0l-0.16,0l-0.16,0l-0.16,0l-0.16,0l-0.16,0l-0.16,0l-0.16,0l-0.16,0l-0.16,0l-0.16,0l-0.16,0l-0.16,0l-0.16,0l-0.16,0l-0.16,0l-0.16,0l-0.16,0l-0.16,0l-0.16,0l-0.16,0l-0.16,0l-0.16,0l-0.16,0l-0.16,0l-0.16,0l-0.16,0l-0.16,0l-0.16,0l-0.16,0l-0.16,0l0,-64.26l12.65,0l0,-0.01l0.15,0zm0,-7.76l0,0.16l0,0.16l0,0.16l0,0.16l0,0.16l0,0.16l0,0.16l0,0.16l0,0.16l0,0.16l0,0.16l0,0.16l0,0.16l0,0.16l0,0.16l0,0.16l0,0.16l0,0.16l0,0.16l0,0.16l0,0.16l0,0.16l0,0.16l0,0.16l0,0.16l0,0.16l0,0.16l0,0.16l0,0.16l0,0.16l0,0.16l0,0.02l0,0.16l0,0.16l0,0.16l0,0.02l-13.72,0l-9.05,0l-7.82,0l-7.85,0l-7.82,0l-11.94,0l-7.83,0l-7.85,0l-7.83,0l-9.05,0l-8.11,0l-0.16,0l-0.16,0l-0.16,0l-0.16,0l-0.16,0l-0.16,0l-0.16,0l-0.16,0l-0.16,0l-0.16,0l-0.16,0l-0.16,0l-0.16,0l-0.16,0l-0.09,0l-0.16,0l-0.16,0l-0.16,0l-0.16,0l-0.16,0l-0.16,0l-0.16,0l-0.16,0l-0.16,0l-0.16,0l-0.16,0l-0.16,0l-0.16,0l-0.16,0l-0.16,0l-0.16,0l-0.16,0l-0.16,0l-0.16,0l-0.16,0l-0.16,0l0,-5.63l104.47,0l0,0.15l0.09,0zm86.49,-40.56l44.81,0l0,0.16l0,0.16l0,0.16l0,0.16l0,0.16l0,0.16l0,0.16l0,0.16l0,0.16l0,0.16l0,0.16l0,0.16l0,0.16l0,0.16l0,0.16l0,0.16l0,0.16l0,0.16l0,0.16l0,0.16l0,0.16l0,0.05l-9.21,0l-26.41,0l-5.93,0l-0.16,0l-0.16,0l-0.16,0l-0.16,0l-0.16,0l-0.16,0l-0.16,0l-0.16,0l-0.16,0l-0.16,0l-0.16,0l-0.16,0l-0.16,0l-0.16,0l-0.16,0l-0.16,0l-0.16,0l-0.16,0l-0.07,0l-0.16,0l-0.16,0l0,-3.41l0.01,0zm44.82,5.45l0,0.16l0,0.16l0,0.16l0,0.16l0,0.16l0,0.16l0,0.13l0,0.16l0,0.16l0,0.16l0,0.16l0,0.16l0,0.16l0,0.16l0,0.16l0,0.16l0,0.16l0,0.16l0,0.16l0,0.16l0,0.16l0,0.16l0,0.16l0,0.16l0,0.16l0,0.16l0,0.16l0,0.16l0,0.16l0,0.16l0,0.16l0,0.16l0,0.16l0,0.16l0,0.16l0,0.16l0,0.16l0,0.16l0,0.16l0,0.16l0,0.16l0,4.79l-1.75,0l-0.16,0l-0.16,0l-0.16,0l-0.16,0l-0.16,0l-0.16,0l-0.16,0l-0.16,0l-0.16,0l-0.16,0l-0.16,0l-0.16,0l-0.16,0l-0.16,0l-0.16,0l-0.16,0l-0.16,0l-0.16,0l-0.16,0l-0.16,0l-0.16,0l-0.16,0l-0.16,0l-0.16,0l-0.16,0l-0.16,0l-0.16,0l-0.16,0l-0.16,0l-0.16,0l-0.16,0l-0.16,0l-0.16,0l-0.16,0l-0.16,0l-0.16,0l-0.16,0l-0.16,0l-0.16,0l-0.16,0l-0.16,0l0,-11.18l8.31,0l0,-0.14zm-10.27,0l0,0.16l0,0.16l0,0.16l0,0.16l0,0.16l0,0.16l0,0.13l0,0.16l0,0.16l0,0.16l0,0.16l0,0.16l0,0.16l0,0.16l0,0.16l0,0.16l0,0.16l0,0.16l0,0.16l0,0.16l0,0.16l0,0.16l0,0.16l0,0.16l0,0.16l0,0.16l0,0.16l0,0.16l0,0.16l0,0.16l0,0.16l0,0.16l0,0.16l0,0.16l0,0.16l0,0.16l0,0.16l0,0.16l0,0.16l0,0.16l0,0.16l0,4.79l-17.88,0l-0.16,0l-0.16,0l-0.16,0l-0.16,0l-0.16,0l-0.16,0l-0.16,0l-0.16,0l-0.16,0l-0.16,0l-0.16,0l-0.16,0l-0.16,0l-0.16,0l-0.16,0l-0.16,0l-0.16,0l-0.16,0l-0.16,0l-0.16,0l-0.16,0l-0.16,0l-0.16,0l-0.16,0l-0.16,0l-0.16,0l-0.16,0l-0.16,0l-0.16,0l-0.16,0l-0.16,0l-0.16,0l-0.16,0l-0.16,0l-0.16,0l-0.16,0l-0.16,0l-0.16,0l-0.16,0l-0.16,0l-0.16,0l0,-11.18l24.44,0l0,-0.14zm-34.55,0l8.14,0l0,0.16l0,0.16l0,0.16l0,0.16l0,0.16l0,0.16l0,0.13l0,0.16l0,0.16l0,0.16l0,0.16l0,0.16l0,0.16l0,0.16l0,0.16l0,0.16l0,0.16l0,0.16l0,0.16l0,0.16l0,0.16l0,0.16l0,0.16l0,0.16l0,0.16l0,0.16l0,0.16l0,0.16l0,0.16l0,0.16l0,0.16l0,0.16l0,0.16l0,0.16l0,0.16l0,0.16l0,0.16l0,0.16l0,0.16l0,0.16l0,0.16l0,4.79l-1.75,0l-0.16,0l-0.16,0l-0.16,0l-0.16,0l-0.16,0l-0.16,0l-0.16,0l-0.16,0l-0.16,0l-0.16,0l-0.16,0l-0.16,0l-0.16,0l-0.16,0l-0.16,0l-0.16,0l-0.16,0l-0.16,0l-0.16,0l-0.16,0l-0.16,0l-0.16,0l-0.16,0l-0.16,0l-0.16,0l-0.16,0l-0.16,0l-0.16,0l-0.16,0l-0.16,0l-0.16,0l-0.16,0l-0.16,0l-0.16,0l-0.16,0l-0.16,0l-0.16,0l-0.16,0l0,0l-0.16,0l-0.16,0l0,-11.32l0.01,0zm-21.37,13.3l20.31,0l10.27,0l26.41,0l9.21,0l0,0.16l0,0.16l0,0.16l0,0.16l0,0.16l0,0.16l0,0.16l0,0.16l0,0.16l0,0.16l0,0.16l0,0.16l0,0.16l0,0.16l0,0.16l0,0.16l0,0.16l0,0.16l0,0.16l0,0.16l0,0.16l0,0.16l0,0.16l0,0.16l0,0.16l0,0.16l0,0.16l0,0.16l0,0.16l0,0.16l0,0.16l0,0.16l0,0.16l0,0.16l0,0.16l0,0.16l0,0.16l0,0.16l0,0.16l0,0.16l0,0.16l0,8.14l-59.8,0l-0.16,0l-0.16,0l-0.16,0l-0.16,0l-0.16,0l-0.16,0l-0.16,0l-0.16,0l-0.16,0l-0.16,0l-0.16,0l-0.16,0l-0.16,0l-0.16,0l-0.16,0l-0.16,0l-0.16,0l-0.16,0l-0.16,0l-0.16,0l-0.16,0l-0.16,0l-0.16,0l-0.16,0l-0.16,0l-0.16,0l-0.16,0l-0.16,0l-0.16,0l-0.16,0l-0.16,0l-0.16,0l-0.16,0l-0.16,0l-0.16,0l-0.16,0l-0.16,0l-0.16,0l-0.16,0l-0.16,0l-0.16,0l0,-14.7l0.16,0zm-15.51,3.04l4.78,0l0,0.16l0,0.16l0,0.16l0,0.16l0,0.16l0,0.16l0,0.16l0,0.16l0,0.16l0,0.16l0,0.16l0,0.16l0,0.16l0,0.16l0,0.16l0,0.16l0,0.16l0,0.16l0,0.16l0,0.16l0,0.16l0,0.16l0,0.16l0,0.16l0,0.16l0,0.16l0,0.16l0,0.16l0,0.16l0,0.16l0,6.82l-0.11,0l-0.16,0l-0.16,0l-0.16,0l-0.16,0l-0.16,0l-0.16,0l-0.16,0l-0.16,0l-0.16,0l-0.16,0l-0.16,0l-0.16,0l-0.16,0l-0.16,0l-0.16,0l-0.16,0l-0.16,0l-0.16,0l-0.16,0l-0.16,0l-0.16,0l-0.16,0l-0.16,0l-0.16,0l-0.16,0l-0.16,0l-0.16,0l-0.16,0l-0.16,0l-0.16,0l0,-11.62l0.13,0zm-16.98,0l4.78,0l0,0.16l0,0.16l0,0.16l0,0.16l0,0.16l0,0.16l0,0.16l0,0.16l0,0.16l0,0.16l0,0.16l0,0.16l0,0.16l0,0.16l0,0.16l0,0.16l0,0.16l0,0.16l0,0.16l0,0.16l0,0.16l0,0.16l0,0.16l0,0.16l0,0.16l0,0.16l0,0.16l0,0.16l0,0.16l0,0.16l0,6.82l-0.11,0l-0.16,0l-0.16,0l-0.16,0l-0.16,0l-0.16,0l-0.16,0l-0.16,0l-0.16,0l-0.16,0l-0.16,0l-0.16,0l-0.16,0l-0.16,0l-0.16,0l-0.16,0l-0.16,0l-0.16,0l-0.16,0l-0.16,0l-0.16,0l-0.16,0l-0.16,0l-0.16,0l-0.16,0l-0.16,0l-0.16,0l-0.16,0l-0.16,0l-0.16,0l-0.16,0l0,-11.62l0.13,0zm-16.97,0l4.79,0l0,0.16l0,0.16l0,0.16l0,0.16l0,0.16l0,0.16l0,0.16l0,0.16l0,0.16l0,0.16l0,0.16l0,0.16l0,0.16l0,0.16l0,0.16l0,0.16l0,0.16l0,0.16l0,0.16l0,0.16l0,0.16l0,0.16l0,0.16l0,0.16l0,0.16l0,0.16l0,0.16l0,0.16l0,0.16l0,0.16l0,6.82l-0.11,0l-0.16,0l-0.16,0l-0.16,0l-0.16,0l-0.16,0l-0.16,0l-0.16,0l-0.16,0l-0.16,0l-0.16,0l-0.16,0l-0.16,0l-0.16,0l-0.16,0l-0.16,0l-0.16,0l-0.16,0l-0.16,0l-0.16,0l-0.16,0l-0.16,0l-0.16,0l-0.16,0l-0.16,0l-0.16,0l-0.16,0l-0.16,0l-0.16,0l-0.16,0l-0.16,0l0,-11.62l0.12,0zm0.38,52.34l0,0.16l0,0.16l0,0.16l0,0.16l0,0.16l0,0.16l0,0.16l0,0.16l0,0.16l0,0.16l0,0.16l0,0.16l0,0.16l0,0.16l0,0.16l0,0.16l0,0.16l0,0.16l0,0.16l0,0.16l0,0.16l0,0.16l0,0.16l0,0.16l0,0.16l0,0.16l0,0.16l0,0.16l0,0.16l0,0.16l0,0.16l0,0.16l0,0.16l0,0.16l0,0.16l0,0.16l0,0.16l0,0.16l0,0.16l0,0.16l0,9.71l-7.53,0l-0.16,0l-0.16,0l-0.16,0l-0.16,0l-0.16,0l-0.16,0l-0.16,0l-0.16,0l-0.16,0l-0.16,0l-0.11,0l-0.16,0l-0.16,0l-0.16,0l-0.16,0l-0.16,0l-0.16,0l-0.16,0l-0.16,0l-0.16,0l-0.16,0l-0.16,0l-0.16,0l-0.16,0l-0.16,0l-0.16,0l-0.16,0l-0.16,0l-0.16,0l-0.16,0l-0.16,0l-0.16,0l-0.16,0l-0.16,0l-0.16,0l-0.16,0l-0.16,0l-0.16,0l-0.16,0l-0.16,0l-0.16,0l0,-16.1l13.92,0l0,-0.01l0.12,0zm-13.91,-10.25l0,-11.49l13.92,0l0,0.15l0,0.16l0,0.16l0,0.16l0,0.16l0,0.16l0,0.16l0,0.16l0,0.16l0,0.16l0,0.16l0,0.16l0,0.16l0,0.16l0,0.16l0,0.16l0,0.16l0,0.16l0,0.16l0,0.16l0,0.16l0,0.16l0,0.16l0,0.16l0,0.16l0,0.16l0,0.16l0,0.16l0,0.16l0,0.16l0,0.16l0,0.16l0,0.16l0,0.16l0,0.16l0,0.16l0,0.16l0,0.16l0,0.16l0,0.16l0,0.16l0,5.1l-7.53,0l-0.16,0l-0.16,0l-0.16,0l-0.16,0l-0.16,0l-0.16,0l-0.16,0l-0.16,0l-0.16,0l-0.16,0l-0.12,0l-0.16,0l-0.16,0l-0.16,0l-0.16,0l-0.16,0l-0.16,0l-0.16,0l-0.16,0l-0.16,0l-0.16,0l-0.16,0l-0.16,0l-0.16,0l-0.16,0l-0.16,0l-0.16,0l-0.16,0l-0.16,0l-0.16,0l-0.16,0l-0.16,0l-0.16,0l-0.16,0l-0.16,0l-0.16,0l-0.16,0l-0.16,0l-0.16,0l-0.16,0l-0.03,0l0,-0.16zm21.53,10.25l0,0.16l0,0.16l0,0.16l0,0.16l0,0.16l0,0.16l0,0.16l0,0.16l0,0.16l0,0.16l0,0.16l0,0.16l0,0.16l0,0.16l0,0.16l0,0.16l0,0.16l0,0.16l0,0.16l0,0.16l0,0.16l0,0.16l0,0.16l0,0.16l0,0.16l0,0.16l0,0.16l0,0.16l0,0.16l0,0.16l0,0.16l0,0.16l0,0.16l0,0.16l0,10.65l-0.03,0l-0.16,0l-0.16,0l-0.16,0l-0.16,0l-0.16,0l-0.16,0l-0.16,0l-0.16,0l-0.16,0l-0.16,0l-0.16,0l-0.16,0l-0.16,0l-0.16,0l-0.16,0l-0.16,0l-0.16,0l-0.16,0l-0.16,0l-0.16,0l-0.16,0l-0.16,0l-0.16,0l-0.16,0l-0.16,0l-0.16,0l-0.16,0l-0.16,0l-0.16,0l-0.16,0l-0.03,0l-0.16,0l-0.16,0l-0.16,0l-0.16,0l0,-16.1l5.48,0l0,0.01l0.02,0zm7.75,0l0,0.16l0,0.16l0,0.16l0,0.16l0,0.16l0,0.16l0,0.16l0,0.16l0,0.16l0,0.16l0,0.16l0,0.16l0,0.16l0,0.16l0,0.16l0,0.16l0,0.16l0,0.16l0,0.16l0,0.16l0,0.16l0,0.16l0,0.16l0,0.16l0,0.16l0,0.16l0,0.16l0,0.16l0,0.16l0,0.16l0,0.16l0,0.16l0,0.16l0,0.16l0,0.16l0,10.49l-0.01,0l-0.16,0l-0.16,0l-0.16,0l-0.16,0l-0.16,0l-0.16,0l-0.16,0l-0.16,0l-0.16,0l-0.16,0l-0.16,0l-0.16,0l-0.16,0l-0.16,0l-0.16,0l-0.16,0l-0.16,0l-0.16,0l-0.16,0l-0.16,0l-0.16,0l-0.16,0l-0.16,0l-0.16,0l-0.16,0l-0.16,0l-0.16,0l-0.16,0l-0.16,0l-0.16,0l-0.16,0l-0.16,0l-0.16,0l-0.16,0l-0.16,0l-0.16,0l0,-16.1l5.62,0l0,0.01l0.15,0zm7.61,0l0,0.16l0,0.16l0,0.16l0,0.16l0,0.16l0,0.16l0,0.16l0,0.16l0,0.16l0,0.16l0,0.16l0,0.16l0,0.16l0,0.16l0,0.16l0,0.16l0,0.16l0,0.16l0,0.16l0,0.16l0,0.16l0,0.16l0,0.16l0,0.16l0,0.16l0,0.16l0,0.16l0,0.16l0,0.16l0,0.16l0,0.16l0,0.16l0,0.16l0,0.16l0,10.65l-0.03,0l-0.16,0l-0.16,0l-0.16,0l-0.16,0l-0.16,0l-0.16,0l-0.16,0l-0.16,0l-0.16,0l-0.16,0l-0.16,0l-0.16,0l-0.16,0l-0.16,0l-0.16,0l-0.16,0l-0.16,0l-0.16,0l-0.16,0l-0.16,0l-0.16,0l-0.16,0l-0.16,0l-0.16,0l-0.16,0l-0.16,0l-0.16,0l-0.16,0l-0.16,0l-0.16,0l-0.16,0l-0.16,0l-0.16,0l-0.16,0l-0.16,0l0,-16.1l5.48,0l0,0.01l0.15,0zm7.76,0l0,0.16l0,0.16l0,0.16l0,0.16l0,0.16l0,0.16l0,0.16l0,0.16l0,0.16l0,0.16l0,0.16l0,0.16l0,0.16l0,0.16l0,0.16l0,0.16l0,0.16l0,0.16l0,0.16l0,0.16l0,0.16l0,0.16l0,0.16l0,0.16l0,0.16l0,0.16l0,0.16l0,0.16l0,0.16l0,0.16l0,0.16l0,0.16l0,0.16l0,0.16l0,0.16l0,10.49l-0.01,0l-0.16,0l-0.16,0l-0.16,0l-0.16,0l-0.16,0l-0.16,0l-0.16,0l-0.16,0l-0.16,0l-0.16,0l-0.16,0l-0.16,0l-0.16,0l-0.16,0l-0.16,0l-0.16,0l-0.16,0l-0.16,0l-0.09,0l-0.16,0l-0.16,0l-0.16,0l-0.16,0l-0.16,0l-0.16,0l-0.16,0l-0.16,0l-0.16,0l-0.16,0l-0.16,0l-0.16,0l-0.16,0l-0.16,0l-0.16,0l-0.16,0l-0.16,0l0,-16.1l5.62,0l0,0.01l0.08,0zm7.61,0l0,0.16l0,0.16l0,0.16l0,0.16l0,0.16l0,0.16l0,0.16l0,0.16l0,0.16l0,0.16l0,0.16l0,0.16l0,0.16l0,0.16l0,0.16l0,0.16l0,0.16l0,0.16l0,0.16l0,0.16l0,0.16l0,0.16l0,0.16l0,0.16l0,0.16l0,0.16l0,0.16l0,0.16l0,0.16l0,0.16l0,0.16l0,0.16l0,0.16l0,0.16l0,10.65l-0.03,0l-0.16,0l-0.16,0l-0.16,0l-0.16,0l-0.16,0l-0.16,0l-0.16,0l-0.16,0l-0.16,0l-0.16,0l-0.16,0l-0.16,0l-0.16,0l-0.16,0l-0.16,0l-0.16,0l-0.16,0l-0.16,0l-0.16,0l-0.16,0l-0.16,0l-0.16,0l-0.16,0l-0.16,0l-0.16,0l-0.16,0l-0.16,0l-0.16,0l-0.16,0l-0.16,0l-0.16,0l-0.16,0l-0.16,0l-0.16,0l-0.16,0l0,-16.1l5.48,0l0,0.01l0.15,0zm7.76,0l0,0.16l0,0.16l0,0.16l0,0.16l0,0.16l0,0.16l0,0.16l0,0.16l0,0.16l0,0.16l0,0.16l0,0.16l0,0.16l0,0.16l0,0.16l0,0.16l0,0.16l0,0.16l0,0.16l0,0.16l0,0.16l0,0.16l0,0.16l0,0.16l0,0.16l0,0.16l0,0.16l0,0.16l0,0.16l0,0.16l0,0.16l0,0.16l0,0.16l0,0.16l0,0.16l0,10.49l-0.01,0l-0.16,0l-0.16,0l-0.16,0l-0.16,0l-0.16,0l-0.16,0l-0.16,0l-0.16,0l-0.16,0l-0.16,0l-0.16,0l-0.16,0l-0.16,0l-0.16,0l-0.1,0l-0.16,0l-0.16,0l-0.16,0l-0.16,0l-0.16,0l-0.16,0l-0.16,0l-0.16,0l-0.16,0l-0.16,0l-0.16,0l-0.16,0l-0.16,0l-0.16,0l-0.16,0l-0.16,0l-0.16,0l-0.16,0l-0.16,0l-0.16,0l-0.16,0l0,-16.1l5.63,0l0,0.01l0.08,0zm7.61,0l0,0.16l0,0.16l0,0.16l0,0.16l0,0.16l0,0.16l0,0.16l0,0.16l0,0.16l0,0.16l0,0.16l0,0.16l0,0.16l0,0.16l0,0.16l0,0.16l0,0.16l0,0.16l0,0.16l0,0.16l0,0.16l0,0.16l0,0.16l0,0.16l0,0.16l0,0.16l0,0.16l0,0.16l0,0.16l0,0.16l0,0.16l0,0.16l0,0.16l0,0.16l0,10.65l-0.03,0l-0.16,0l-0.16,0l-0.16,0l-0.16,0l-0.16,0l-0.13,0l-0.16,0l-0.16,0l-0.16,0l-0.16,0l-0.16,0l-0.16,0l-0.16,0l-0.16,0l-0.16,0l-0.16,0l-0.16,0l-0.16,0l-0.16,0l-0.16,0l-0.16,0l-0.16,0l-0.16,0l-0.16,0l-0.16,0l-0.16,0l-0.16,0l-0.16,0l-0.16,0l-0.16,0l-0.16,0l-0.16,0l-0.16,0l-0.16,0l-0.16,0l0,-16.1l5.48,0l0,0.01l0.12,0zm9.99,0l0,0.16l0,0.16l0,0.16l0,0.16l0,0.16l0,0.16l0,0.16l0,0.16l0,0.16l0,0.16l0,0.16l0,0.16l0,0.16l0,0.16l0,0.16l0,0.16l0,0.16l0,0.16l0,0.16l0,0.16l0,0.16l0,0.16l0,0.16l0,0.16l0,0.16l0,0.16l0,0.16l0,0.16l0,0.16l0,0.16l0,0.16l0,0.16l0,0.16l0,0.16l0,0.16l0,0.16l0,0.16l0,0.16l0,0.16l0,0.16l0,9.71l-1.47,0l-0.16,0l-0.16,0l-0.16,0l-0.16,0l-0.16,0l-0.16,0l-0.16,0l-0.16,0l-0.16,0l-0.16,0l-0.16,0l-0.16,0l-0.16,0l-0.16,0l-0.16,0l-0.16,0l-0.16,0l-0.16,0l-0.16,0l-0.16,0l-0.16,0l-0.16,0l-0.16,0l-0.16,0l-0.16,0l-0.16,0l-0.16,0l-0.16,0l-0.16,0l-0.16,0l-0.16,0l-0.16,0l-0.16,0l-0.16,0l-0.16,0l-0.16,0l-0.16,0l-0.16,0l-0.16,0l-0.16,0l-0.16,0l0,-16.1l7.86,0l0,-0.01l0.17,0zm0,-7.96l0,0.16l0,0.16l0,0.16l0,0.16l0,0.16l0,0.16l0,0.16l0,0.16l0,0.16l0,0.16l0,0.16l0,0.16l0,0.16l0,0.16l0,0.16l0,0.16l0,0.16l0,0.16l0,0.16l0,0.16l0,0.16l0,0.16l0,0.16l0,0.16l0,0.16l0,0.16l0,0.16l0,0.16l0,0.16l0,0.16l0,0.16l0,0.16l0,0.16l0,0.16l0,0.16l0,0.16l0,0.07l-8.92,0l-7.61,0l-7.76,0l-7.61,0l-7.75,0l-7.61,0l-7.75,0l-7.61,0l-8.96,0l-0.16,0l-0.16,0l-0.16,0l-0.16,0l-0.16,0l-0.16,0l-0.16,0l-0.16,0l-0.16,0l-0.16,0l-0.16,0l-0.16,0l-0.16,0l-0.16,0l-0.16,0l-0.16,0l-0.16,0l-0.16,0l-0.16,0l-0.16,0l-0.16,0l-0.16,0l-0.16,0l-0.16,0l-0.16,0l-0.16,0l-0.16,0l-0.16,0l-0.16,0l-0.16,0l-0.16,0l-0.16,0l-0.16,0l-0.16,0l-0.16,0l-0.16,0l-0.16,0l0,-5.84l14.72,0l7.61,0l7.75,0l7.61,0l7.75,0l7.61,0l7.76,0l7.61,0l8.92,0l0,0.01l0.16,0zm-61.58,-2.29l0,-11.49l5.48,0l0,0.15l0,0.16l0,0.16l0,0.16l0,0.16l0,0.16l0,0.16l0,0.16l0,0.16l0,0.16l0,0.16l0,0.16l0,0.16l0,0.16l0,0.16l0,0.16l0,0.16l0,0.16l0,0.16l0,0.16l0,0.16l0,0.16l0,0.16l0,0.16l0,0.16l0,0.16l0,0.16l0,0.16l0,0.16l0,0.16l0,0.16l0,0.16l0,0.16l0,0.16l0,0.16l0,6.04l-0.03,0l-0.16,0l-0.16,0l-0.16,0l-0.16,0l-0.16,0l-0.16,0l-0.16,0l-0.16,0l-0.16,0l-0.16,0l-0.16,0l-0.16,0l-0.16,0l-0.16,0l-0.16,0l-0.16,0l-0.16,0l-0.16,0l-0.16,0l-0.16,0l-0.16,0l-0.16,0l-0.16,0l-0.16,0l-0.16,0l-0.16,0l-0.16,0l-0.16,0l-0.16,0l-0.16,0l-0.02,0l-0.16,0l-0.16,0l-0.16,0l-0.15,0l0,-0.14zm7.62,0l0,-11.49l5.62,0l0,0.15l0,0.16l0,0.16l0,0.16l0,0.16l0,0.16l0,0.16l0,0.16l0,0.16l0,0.16l0,0.16l0,0.16l0,0.16l0,0.16l0,0.16l0,0.16l0,0.16l0,0.16l0,0.16l0,0.16l0,0.16l0,0.16l0,0.16l0,0.16l0,0.16l0,0.16l0,0.16l0,0.16l0,0.16l0,0.16l0,0.16l0,0.16l0,0.16l0,0.16l0,0.16l0,0.16l0,5.88l-0.01,0l-0.16,0l-0.16,0l-0.16,0l-0.16,0l-0.16,0l-0.16,0l-0.16,0l-0.16,0l-0.16,0l-0.16,0l-0.16,0l-0.16,0l-0.16,0l-0.16,0l-0.16,0l-0.16,0l-0.16,0l-0.16,0l-0.16,0l-0.16,0l-0.16,0l-0.16,0l-0.16,0l-0.16,0l-0.16,0l-0.16,0l-0.16,0l-0.16,0l-0.16,0l-0.16,0l-0.16,0l-0.16,0l-0.16,0l-0.16,0l-0.16,0l-0.01,0l0,-0.14zm7.75,0l0,-11.49l5.48,0l0,0.15l0,0.16l0,0.16l0,0.16l0,0.16l0,0.16l0,0.16l0,0.16l0,0.16l0,0.16l0,0.16l0,0.16l0,0.16l0,0.16l0,0.16l0,0.16l0,0.16l0,0.16l0,0.16l0,0.16l0,0.16l0,0.16l0,0.16l0,0.16l0,0.16l0,0.16l0,0.16l0,0.16l0,0.16l0,0.16l0,0.16l0,0.16l0,0.16l0,0.16l0,0.16l0,6.04l-0.03,0l-0.16,0l-0.16,0l-0.16,0l-0.16,0l-0.16,0l-0.16,0l-0.16,0l-0.16,0l-0.16,0l-0.16,0l-0.16,0l-0.16,0l-0.16,0l-0.16,0l-0.16,0l-0.16,0l-0.16,0l-0.16,0l-0.16,0l-0.16,0l-0.16,0l-0.16,0l-0.16,0l-0.16,0l-0.16,0l-0.16,0l-0.16,0l-0.16,0l-0.16,0l-0.16,0l-0.16,0l-0.16,0l-0.16,0l-0.16,0l-0.01,0l0,-0.14zm7.61,0l0,-11.49l5.62,0l0,0.15l0,0.16l0,0.16l0,0.16l0,0.16l0,0.16l0,0.16l0,0.16l0,0.16l0,0.16l0,0.16l0,0.16l0,0.16l0,0.16l0,0.16l0,0.16l0,0.16l0,0.16l0,0.16l0,0.16l0,0.16l0,0.16l0,0.16l0,0.16l0,0.16l0,0.16l0,0.16l0,0.16l0,0.16l0,0.16l0,0.16l0,0.16l0,0.16l0,0.16l0,0.16l0,0.16l0,5.88l-0.01,0l-0.16,0l-0.16,0l-0.16,0l-0.16,0l-0.16,0l-0.16,0l-0.16,0l-0.16,0l-0.16,0l-0.16,0l-0.16,0l-0.16,0l-0.16,0l-0.16,0l-0.16,0l-0.16,0l-0.16,0l-0.16,0l-0.08,0l-0.16,0l-0.16,0l-0.16,0l-0.16,0l-0.16,0l-0.16,0l-0.16,0l-0.16,0l-0.16,0l-0.16,0l-0.16,0l-0.16,0l-0.16,0l-0.16,0l-0.16,0l-0.16,0l-0.09,0l0,-0.14zm7.76,0l0,-11.49l5.48,0l0,0.15l0,0.16l0,0.16l0,0.16l0,0.16l0,0.16l0,0.16l0,0.16l0,0.16l0,0.16l0,0.16l0,0.16l0,0.16l0,0.16l0,0.16l0,0.16l0,0.16l0,0.16l0,0.16l0,0.16l0,0.16l0,0.16l0,0.16l0,0.16l0,0.16l0,0.16l0,0.16l0,0.16l0,0.16l0,0.16l0,0.16l0,0.16l0,0.16l0,0.16l0,0.16l0,6.04l-0.03,0l-0.16,0l-0.16,0l-0.16,0l-0.16,0l-0.16,0l-0.16,0l-0.16,0l-0.16,0l-0.16,0l-0.16,0l-0.16,0l-0.16,0l-0.16,0l-0.16,0l-0.16,0l-0.16,0l-0.16,0l-0.16,0l-0.16,0l-0.16,0l-0.16,0l-0.16,0l-0.16,0l-0.16,0l-0.16,0l-0.16,0l-0.16,0l-0.16,0l-0.16,0l-0.16,0l-0.16,0l-0.16,0l-0.16,0l-0.16,0l-0.01,0l0,-0.14zm7.61,0l0,-11.49l5.63,0l0,0.15l0,0.16l0,0.16l0,0.16l0,0.16l0,0.16l0,0.16l0,0.16l0,0.16l0,0.16l0,0.16l0,0.16l0,0.16l0,0.16l0,0.16l0,0.16l0,0.16l0,0.16l0,0.16l0,0.16l0,0.16l0,0.16l0,0.16l0,0.16l0,0.16l0,0.16l0,0.16l0,0.16l0,0.16l0,0.16l0,0.16l0,0.16l0,0.16l0,0.16l0,0.16l0,0.16l0,5.88l-0.01,0l-0.16,0l-0.16,0l-0.16,0l-0.16,0l-0.16,0l-0.16,0l-0.16,0l-0.16,0l-0.16,0l-0.16,0l-0.16,0l-0.16,0l-0.16,0l-0.16,0l-0.1,0l-0.16,0l-0.16,0l-0.16,0l-0.16,0l-0.16,0l-0.16,0l-0.16,0l-0.16,0l-0.16,0l-0.16,0l-0.16,0l-0.16,0l-0.16,0l-0.16,0l-0.16,0l-0.16,0l-0.16,0l-0.16,0l-0.16,0l-0.16,0l-0.08,0l0,-0.14zm7.76,0l0,-11.49l5.48,0l0,0.15l0,0.16l0,0.16l0,0.16l0,0.16l0,0.16l0,0.16l0,0.16l0,0.16l0,0.16l0,0.16l0,0.16l0,0.16l0,0.16l0,0.16l0,0.16l0,0.16l0,0.16l0,0.16l0,0.16l0,0.16l0,0.16l0,0.16l0,0.16l0,0.16l0,0.16l0,0.16l0,0.16l0,0.16l0,0.16l0,0.16l0,0.16l0,0.16l0,0.16l0,0.16l0,6.04l-0.03,0l-0.16,0l-0.16,0l-0.16,0l-0.16,0l-0.16,0l-0.13,0l-0.16,0l-0.16,0l-0.16,0l-0.16,0l-0.16,0l-0.16,0l-0.16,0l-0.16,0l-0.16,0l-0.16,0l-0.16,0l-0.16,0l-0.16,0l-0.16,0l-0.16,0l-0.16,0l-0.16,0l-0.16,0l-0.16,0l-0.16,0l-0.16,0l-0.16,0l-0.16,0l-0.16,0l-0.16,0l-0.16,0l-0.16,0l-0.16,0l-0.04,0l0,-0.14zm15.47,-11.34l0,0.16l0,0.16l0,0.16l0,0.16l0,0.16l0,0.16l0,0.16l0,0.16l0,0.16l0,0.16l0,0.16l0,0.16l0,0.16l0,0.16l0,0.16l0,0.16l0,0.16l0,0.16l0,0.16l0,0.16l0,0.16l0,0.16l0,0.16l0,0.16l0,0.16l0,0.16l0,0.16l0,0.16l0,0.16l0,0.16l0,0.16l0,0.16l0,0.16l0,0.16l0,0.16l0,0.16l0,0.16l0,0.16l0,0.16l0,0.16l0,5.1l-1.47,0l-0.16,0l-0.16,0l-0.16,0l-0.16,0l-0.16,0l-0.16,0l-0.16,0l-0.16,0l-0.16,0l-0.16,0l-0.16,0l-0.16,0l-0.16,0l-0.16,0l-0.16,0l-0.16,0l-0.16,0l-0.16,0l-0.16,0l-0.16,0l-0.16,0l-0.16,0l-0.16,0l-0.16,0l-0.16,0l-0.16,0l-0.16,0l-0.16,0l-0.16,0l-0.16,0l-0.16,0l-0.16,0l-0.16,0l-0.16,0l-0.16,0l-0.16,0l-0.16,0l-0.16,0l-0.16,0l-0.16,0l-0.16,0l0,-11.49l7.86,0l0,-0.01l0.17,0zm22.01,0l0,0.16l0,0.16l0,0.16l0,0.16l0,0.16l0,0.16l0,0.16l0,0.16l0,0.16l0,0.16l0,0.16l0,0.16l0,0.16l0,0.16l0,0.16l0,0.16l0,0.16l0,0.16l0,0.16l0,0.16l0,0.16l0,0.16l0,0.16l0,0.16l0,0.16l0,0.16l0,0.16l0,0.16l0,0.16l0,0.16l0,0.16l0,0.16l0,0.16l0,0.16l0,0.16l0,0.16l0,0.16l0,0.16l0,0.16l0,0.16l0,6.17l0,10.27l0,14.86l-13.48,0l-0.16,0l-0.16,0l-0.16,0l-0.16,0l-0.16,0l-0.16,0l-0.16,0l-0.16,0l-0.16,0l-0.16,0l-0.16,0l-0.16,0l-0.16,0l-0.16,0l-0.16,0l-0.16,0l-0.16,0l-0.16,0l-0.16,0l-0.16,0l-0.16,0l-0.16,0l-0.16,0l-0.16,0l-0.16,0l-0.16,0l-0.16,0l-0.16,0l-0.16,0l-0.16,0l-0.16,0l-0.16,0l-0.16,0l-0.16,0l-0.16,0l-0.16,0l-0.16,0l-0.16,0l-0.16,0l-0.16,0l-0.16,0l0,-17.17l0,-7.97l0,-12.56l19.87,0l0,0l0.17,0zm13.62,23.9l0,0.16l0,0.16l0,0.16l0,0.16l0,0.16l0,0.16l0,0.16l0,0.16l0,0.16l0,0.16l0,0.16l0,0.16l0,0.16l0,0.16l0,0.16l0,0.16l0,0.16l0,0.16l0,0.16l0,0.16l0,0.16l0,0.16l0,0.16l0,0.16l0,0.16l0,0.16l0,0.16l0,0.16l0,0.16l0,0.16l0,0.16l0,0.16l0,0.16l0,0.16l0,0.16l0,0.16l0,0.16l0,0.16l0,0.16l0,0.16l0,7.41l-5.1,0l-0.16,0l-0.16,0l-0.16,0l-0.16,0l-0.16,0l-0.16,0l-0.16,0l-0.16,0l-0.16,0l-0.16,0l-0.16,0l-0.16,0l-0.16,0l-0.16,0l-0.16,0l-0.16,0l-0.16,0l-0.16,0l-0.16,0l-0.16,0l-0.16,0l-0.16,0l-0.16,0l-0.16,0l-0.16,0l-0.16,0l-0.16,0l-0.16,0l-0.16,0l-0.16,0l-0.16,0l-0.16,0l-0.16,0l-0.16,0l-0.16,0l-0.16,0l-0.16,0l-0.16,0l-0.16,0l-0.16,0l-0.16,0l0,-13.8l11.49,0l0,-0.01l0.17,0zm0,-10.27l0,0.16l0,0.16l0,0.16l0,0.16l0,0.16l0,0.16l0,0.16l0,0.16l0,0.16l0,0.16l0,0.16l0,0.16l0,0.16l0,0.16l0,0.16l0,0.16l0,0.16l0,0.16l0,0.16l0,0.16l0,0.16l0,0.16l0,0.16l0,0.16l0,0.16l0,0.16l0,0.16l0,0.16l0,0.16l0,0.16l0,0.16l0,0.16l0,0.16l0,0.16l0,0.16l0,0.16l0,0.16l0,0.16l0,0.16l0,0.16l0,1.75l-5.1,0l-0.16,0l-0.16,0l-0.16,0l-0.16,0l-0.16,0l-0.16,0l-0.16,0l-0.16,0l-0.16,0l-0.16,0l-0.16,0l-0.16,0l-0.16,0l-0.16,0l-0.16,0l-0.16,0l-0.16,0l-0.16,0l-0.16,0l-0.16,0l-0.16,0l-0.16,0l-0.16,0l-0.16,0l-0.16,0l-0.16,0l-0.16,0l-0.16,0l-0.16,0l-0.16,0l-0.16,0l-0.16,0l-0.16,0l-0.16,0l-0.16,0l-0.16,0l-0.16,0l-0.16,0l-0.16,0l-0.16,0l-0.16,0l0,-8.14l11.49,0l0,-0.01l0.17,0zm0,-13.63l0,0.16l0,0.16l0,0.16l0,0.16l0,0.16l0,0.16l0,0.16l0,0.16l0,0.16l0,0.16l0,0.16l0,0.16l0,0.16l0,0.16l0,0.16l0,0.16l0,0.16l0,0.16l0,0.16l0,0.16l0,0.16l0,0.16l0,0.16l0,0.16l0,0.16l0,0.16l0,0.16l0,0.16l0,0.16l0,0.16l0,0.16l0,0.16l0,0.16l0,0.16l0,0.16l0,0.16l0,0.16l0,0.16l0,0.16l0,0.16l0,5.1l-5.1,0l-0.16,0l-0.16,0l-0.16,0l-0.16,0l-0.16,0l-0.16,0l-0.16,0l-0.16,0l-0.16,0l-0.16,0l-0.16,0l-0.16,0l-0.16,0l-0.16,0l-0.16,0l-0.16,0l-0.16,0l-0.16,0l-0.16,0l-0.16,0l-0.16,0l-0.16,0l-0.16,0l-0.16,0l-0.16,0l-0.16,0l-0.16,0l-0.16,0l-0.16,0l-0.16,0l-0.16,0l-0.16,0l-0.16,0l-0.16,0l-0.16,0l-0.16,0l-0.16,0l-0.16,0l-0.16,0l-0.16,0l-0.16,0l0,-11.49l11.49,0l0,-0.01l0.17,0zm16.97,0l0,0.16l0,0.16l0,0.16l0,0.16l0,0.16l0,0.16l0,0.16l0,0.16l0,0.16l0,0.16l0,0.16l0,0.16l0,0.16l0,0.16l0,0.16l0,0.16l0,0.16l0,0.16l0,0.16l0,0.16l0,0.16l0,0.16l0,0.16l0,0.16l0,0.16l0,0.16l0,0.16l0,0.16l0,0.16l0,0.16l0,0.16l0,0.16l0,0.16l0,0.16l0,0.16l0,0.16l0,0.16l0,0.16l0,0.16l0,0.16l0,31.3l-8.45,0l-0.16,0l-0.16,0l-0.16,0l-0.16,0l-0.16,0l-0.16,0l-0.16,0l-0.16,0l-0.16,0l-0.16,0l-0.16,0l-0.16,0l-0.16,0l-0.16,0l-0.16,0l-0.16,0l-0.16,0l-0.16,0l-0.16,0l-0.16,0l-0.16,0l-0.16,0l-0.16,0l-0.16,0l-0.16,0l-0.16,0l-0.16,0l-0.16,0l-0.16,0l-0.16,0l-0.16,0l-0.16,0l-0.16,0l-0.16,0l-0.16,0l-0.16,0l-0.16,0l-0.16,0l-0.16,0l-0.16,0l-0.16,0l0,-14.86l0,-10.44l0,-12.56l14.85,0l0,0.16l0.16,0zm-15.91,-2.28l-13.62,0l-22,0l-9.99,0l-7.61,0l-7.76,0l-7.61,0l-7.75,0l-7.61,0l-7.75,0l-7.61,0l-8.59,0l-0.16,0l-0.16,0l-0.16,0l-0.16,0l-0.16,0l-0.16,0l-0.16,0l-0.16,0l-0.16,0l-0.16,0l-0.14,0l-0.16,0l-0.16,0l-0.16,0l-0.16,0l-0.16,0l-0.16,0l-0.16,0l-0.16,0l-0.16,0l-0.16,0l-0.16,0l-0.16,0l-0.16,0l-0.16,0l-0.16,0l-0.16,0l-0.16,0l-0.16,0l-0.16,0l-0.16,0l-0.16,0l-0.16,0l-0.16,0l-0.16,0l-0.16,0l-0.16,0l-0.16,0l-0.16,0l-0.16,0l-0.16,0l0,-3.16l0,-6.69l1.43,0c0.02,0 0.03,0 0.04,0c0.59,0 1.07,-0.48 1.07,-1.07c0,-0.24 -0.08,-0.46 -0.21,-0.63c0,-0.01 -0.01,-0.01 -0.01,-0.02c-0.05,-0.06 -0.11,-0.11 -0.16,-0.16c-0.08,-0.06 -0.16,-0.11 -0.25,-0.16c-0.05,-0.02 -0.1,-0.06 -0.16,-0.07l-0.18,-0.08l-0.34,-0.16l-0.28,-0.13l-0.16,-0.07l-0.16,-0.07l-0.16,-0.07l-0.16,-0.07l-0.16,-0.07l-0.16,-0.07l-0.16,-0.07l-0.16,-0.07l-0.16,-0.07l-0.16,-0.07l-0.16,-0.07l-0.16,-0.07l-0.16,-0.07l-0.16,-0.07l-0.16,-0.07l-0.16,-0.07l0,-1.37l14.03,0l6.92,0l10.06,0l6.92,0l10.06,0l6.92,0l8.59,0l68.32,0l6.9,0l0,0.16l0,0.16l0,0.16l0,0.16l0,0.16l0,0.16l0,0.16l0,0.16l0,0.16l0,0.16l0,0.16l0,0.16l0,0.16l0,0.16l0,0.16l0,0.16l0,0.16l0,0.16l0,0.16l0,0.16l0,0.16l0,0.16l0,0.16l0,0.16l0,0.16l0,0.16l0,0.16l0,0.16l0,0.16l0,0.16l0,0.16l0,0.16l0,0.16l0,0.16l0,0.16l0,0.16l0,0.16l0,0.16l0,0.16l0,0.16l0,0.16l0,8.45l-5.85,0l-16.82,0l0,-0.19zm114.98,-390.22l2.22,0l0,0.16l0,0.16l0,0.16l0,0.16l0,0.16l0,0.16l0,0.16l0,0.16l0,0.16l0,0.16l0,0.16l0,0.16l0,0.16l0,0.16l0,107.19l-0.04,0l-0.16,0l-0.16,0l-0.16,0l-0.16,0l-0.16,0l-0.16,0l-0.16,0l-0.16,0l-0.16,0l-0.16,0l-0.16,0l-0.16,0l-0.16,0l-0.16,0l0,-109.43l0.06,0zm-2.99,111.5l1.93,0l4.35,0l1.93,0l0,0.16l0,0.16l0,0.16l0,0.16l0,0.16l0,0.16l0,0.16l0,0.16l0,0.16l0,0.16l0,0.16l0,0.16l0,0.16l0,0.16l0,0.16l0,0.16l0,0.16l0,0.16l0,0.16l0,0.16l0,0.16l0,0.16l0,0.16l0,0.16l0,0.16l0,0.16l0,0.16l0,0.16l0,0.16l0,0.16l0,0.16l0,0.16l0,0.16l0,0.16l0,0.16l0,0.16l0,0.16l0,0.16l0,0.16l0,0.16l0,0.16l0,1.81l-1.81,0l-0.16,0l-0.16,0l-0.16,0l-0.16,0l-0.16,0l-0.16,0l-0.16,0l-0.16,0l-0.16,0l-0.16,0l-0.16,0l-0.16,0l-0.16,0l-0.16,0l-0.16,0l-0.16,0l-0.16,0l-0.16,0l-0.16,0l-0.16,0l-0.16,0l-0.16,0l-0.16,0l-0.16,0l-0.16,0l-0.16,0l-0.16,0l-0.16,0l-0.16,0l-0.16,0l-0.16,0l-0.16,0l-0.16,0l-0.16,0l-0.16,0l-0.16,0l-0.16,0l-0.16,0l-0.16,0l-0.16,0l-0.16,0l0,-8.37l0.16,0zm-6.49,16.37l-0.16,0l-0.16,0l-0.16,0l-0.16,0l-0.16,0l-0.16,0l-0.16,0l-0.16,0l-0.16,0l0,-6.03l6.82,0l10.33,0l6.82,0l0,0.16l0,0.16l0,0.16l0,0.16l0,0.16l0,0.16l0,0.16l0,0.16l0,0.16l0,0.16l0,0.16l0,0.16l0,0.16l0,0.16l0,0.16l0,0.16l0,0.16l0,0.16l0,0.16l0,0.16l0,0.16l0,0.16l0,0.16l0,0.16l0,0.16l0,0.16l0,0.16l0,0.16l0,0.16l0,0.16l0,0.16l0,0.16l0,0.16l0,0.16l0,0.16l0,0.16l0,0.16l0,0.16l0,0.11l-2.47,0l-15.58,0l-0.16,0l-0.16,0l-0.16,0l-0.16,0l-0.16,0l-0.16,0l-0.16,0l-0.16,0l-0.16,0l-0.16,0l-0.16,0l-0.16,0l-0.16,0l-0.16,0l-0.16,0l-0.16,0l-0.16,0l-0.16,0l-0.16,0l-0.16,0l-0.16,0l-0.16,0l-0.02,0l-0.13,0l-0.16,0l-0.16,0l-0.16,0l-0.16,0l-0.16,0l-0.01,0l0,-0.16zm19.04,2.13l0,0.16l0,0.16l0,0.16l0,0.16l0,0.16l0,0.16l0,0.16l0,0.16l0,0.16l0,0.16l0,0.16l0,0.16l0,0.16l0,0.16l0,0.16l0,0.16l0,0.16l0,0.16l0,0.16l0,0.16l0,0.16l0,0.16l0,0.16l0,0.16l0,0.16l0,0.16l0,0.16l0,0.16l0,0.16l0,0.16l0,0.16l0,0.16l0,0.16l0,0.16l0,0.16l0,0.16l0,0.16l0,0.16l0,0.16l0,0.16l0,0.16l0,13.67c-2.68,-0.81 -5.52,-1.25 -8.45,-1.25c-0.69,0 -1.38,0.03 -2.06,0.08c-0.05,0 -0.1,0 -0.16,0.01c-0.05,0 -0.1,0.01 -0.16,0.02c-0.05,0 -0.1,0.01 -0.16,0.02c-0.05,0 -0.1,0.01 -0.16,0.02c-0.05,0 -0.1,0.01 -0.16,0.02c-0.05,0 -0.1,0.01 -0.16,0.02c-0.05,0.01 -0.1,0.01 -0.16,0.02c-0.05,0.01 -0.1,0.01 -0.16,0.02c-0.05,0.01 -0.1,0.01 -0.16,0.02c-0.05,0.01 -0.1,0.01 -0.16,0.02c-0.05,0.01 -0.1,0.01 -0.16,0.02c-0.05,0.01 -0.1,0.01 -0.16,0.02s-0.1,0.01 -0.16,0.02c-0.05,0.01 -0.1,0.01 -0.16,0.02c-0.05,0.01 -0.1,0.02 -0.16,0.02c-0.05,0.01 -0.1,0.02 -0.16,0.03c-0.05,0.01 -0.1,0.02 -0.16,0.03c-0.05,0.01 -0.1,0.02 -0.16,0.03c-0.05,0.01 -0.1,0.02 -0.16,0.03c-0.05,0.01 -0.1,0.02 -0.16,0.03c-0.05,0.01 -0.1,0.02 -0.16,0.03c-0.05,0.01 -0.1,0.02 -0.16,0.03c-0.05,0.01 -0.1,0.02 -0.16,0.03c-0.05,0.01 -0.1,0.02 -0.16,0.03c-0.05,0.01 -0.1,0.02 -0.16,0.03c-0.05,0.01 -0.1,0.02 -0.16,0.03c-0.05,0.01 -0.1,0.02 -0.16,0.03c-0.05,0.01 -0.1,0.02 -0.16,0.03c-0.05,0.01 -0.1,0.03 -0.16,0.04c-0.05,0.01 -0.1,0.03 -0.16,0.04c-0.05,0.01 -0.1,0.03 -0.16,0.04c-0.05,0.01 -0.1,0.03 -0.16,0.04c-0.05,0.01 -0.1,0.03 -0.16,0.04c-0.05,0.01 -0.1,0.03 -0.16,0.04c-0.05,0.01 -0.1,0.03 -0.16,0.04c-0.05,0.01 -0.1,0.03 -0.16,0.04c-0.05,0.01 -0.1,0.03 -0.16,0.04c-0.05,0.01 -0.1,0.03 -0.16,0.04c-0.05,0.01 -0.1,0.03 -0.16,0.04c-0.05,0.01 -0.1,0.03 -0.16,0.04c-0.05,0.02 -0.1,0.03 -0.16,0.04l0,-20.26l17.07,0zm-24.21,70.31c-0.03,-0.02 -0.06,-0.05 -0.09,-0.07c-0.03,-0.02 -0.06,-0.04 -0.09,-0.07c-0.03,-0.02 -0.06,-0.04 -0.09,-0.07c-0.03,-0.02 -0.06,-0.04 -0.09,-0.07c-0.03,-0.02 -0.06,-0.04 -0.09,-0.07c-0.03,-0.02 -0.06,-0.04 -0.09,-0.07c-0.03,-0.02 -0.06,-0.04 -0.09,-0.07c-0.03,-0.02 -0.06,-0.04 -0.09,-0.07c-0.03,-0.02 -0.06,-0.04 -0.09,-0.07c-0.03,-0.02 -0.06,-0.04 -0.09,-0.07c-0.03,-0.02 -0.06,-0.04 -0.09,-0.07c-0.03,-0.02 -0.06,-0.04 -0.09,-0.07c-0.03,-0.02 -0.06,-0.04 -0.09,-0.07c-0.03,-0.02 -0.06,-0.04 -0.09,-0.07c-0.03,-0.02 -0.06,-0.04 -0.09,-0.07c-0.03,-0.02 -0.06,-0.04 -0.09,-0.07c-0.03,-0.02 -0.06,-0.04 -0.09,-0.07c-0.03,-0.02 -0.06,-0.05 -0.08,-0.07c-0.03,-0.02 -0.05,-0.05 -0.08,-0.07c-0.03,-0.02 -0.05,-0.05 -0.08,-0.07c-0.03,-0.02 -0.05,-0.05 -0.08,-0.07c-0.03,-0.02 -0.05,-0.05 -0.08,-0.08c-0.03,-0.02 -0.05,-0.05 -0.08,-0.07c-0.03,-0.02 -0.05,-0.05 -0.08,-0.07c-0.03,-0.02 -0.05,-0.05 -0.08,-0.07c-0.03,-0.02 -0.05,-0.05 -0.08,-0.07c-0.03,-0.02 -0.05,-0.05 -0.08,-0.07c-0.03,-0.02 -0.05,-0.05 -0.08,-0.08c-0.03,-0.02 -0.05,-0.05 -0.08,-0.07s-0.05,-0.05 -0.08,-0.07c-0.03,-0.02 -0.05,-0.05 -0.08,-0.07c-0.03,-0.02 -0.05,-0.05 -0.08,-0.07c-0.03,-0.02 -0.05,-0.05 -0.08,-0.07c-0.03,-0.03 -0.06,-0.05 -0.08,-0.07s-0.06,-0.05 -0.08,-0.07c-0.03,-0.03 -0.06,-0.05 -0.08,-0.07c-0.03,-0.03 -0.06,-0.05 -0.08,-0.07c-0.03,-0.03 -0.06,-0.05 -0.08,-0.07c-0.03,-0.03 -0.05,-0.05 -0.08,-0.07c-0.03,-0.03 -0.06,-0.05 -0.08,-0.08c-4.97,-4.93 -8.06,-11.77 -8.06,-19.31c0,-15.01 12.21,-27.22 27.22,-27.22c7.54,0 14.38,3.09 19.31,8.06c0.03,0.03 0.05,0.05 0.07,0.08c0.03,0.03 0.05,0.06 0.07,0.08c0.03,0.03 0.05,0.06 0.07,0.08c0.03,0.03 0.05,0.06 0.07,0.08c0.03,0.03 0.05,0.06 0.07,0.08c0.03,0.03 0.05,0.05 0.07,0.08c0.03,0.03 0.05,0.05 0.07,0.08c0.03,0.03 0.05,0.06 0.07,0.08c0.03,0.03 0.05,0.05 0.07,0.08c0.02,0.03 0.05,0.05 0.07,0.08c0.02,0.03 0.05,0.05 0.07,0.08c0.02,0.03 0.05,0.05 0.07,0.08c0.02,0.03 0.05,0.05 0.07,0.08c0.02,0.03 0.05,0.05 0.07,0.08c0.02,0.03 0.05,0.05 0.07,0.08c0.02,0.03 0.05,0.05 0.07,0.08c0.02,0.03 0.05,0.05 0.07,0.08c0.02,0.03 0.05,0.05 0.07,0.08c0.02,0.03 0.05,0.05 0.07,0.08c0.02,0.03 0.05,0.05 0.08,0.08c0.02,0.03 0.05,0.05 0.07,0.08c0.02,0.03 0.05,0.05 0.07,0.08c0.02,0.03 0.05,0.06 0.07,0.08c0.02,0.03 0.04,0.06 0.07,0.09s0.04,0.06 0.07,0.09c0.02,0.03 0.04,0.06 0.07,0.09c0.02,0.03 0.04,0.06 0.07,0.09c0.02,0.03 0.04,0.06 0.07,0.09c0.02,0.03 0.04,0.06 0.07,0.09c0.02,0.03 0.04,0.06 0.07,0.09c0.02,0.03 0.04,0.06 0.07,0.09c0.02,0.03 0.04,0.06 0.07,0.09c0.02,0.03 0.04,0.06 0.07,0.09c0.02,0.03 0.04,0.06 0.07,0.09c0.02,0.03 0.04,0.06 0.07,0.09c0.02,0.03 0.04,0.06 0.07,0.09c0.02,0.03 0.04,0.06 0.07,0.09c0.02,0.03 0.05,0.06 0.07,0.09c0.02,0.03 0.04,0.06 0.07,0.09c0.02,0.03 0.04,0.06 0.07,0.09c3.18,4.45 5.07,9.88 5.07,15.76c0,15.01 -12.21,27.22 -27.22,27.22c-5.88,0.02 -11.31,-1.87 -15.76,-5.05zm25.39,5.54l0,0.2l0,0.2l0,0.2l0,0.2l0,0.2l0,0.2l0,0.2l0,0.2l0,0.2l0,0.2l0,0.2l0,0.2l0,0.2l0,0.2l0,0.2l0,0.19l0,0.19l0,0.19l0,0.19l0,0.19l0,0.19l0,0.19l0,0.19l0,0.19l0,0.19l0,0.19l0,0.19l0,0.19l0,0.19l0,0.19l0,0.18l0,0.18l0,0.18l0,0.18l0,0.18l0,0.09l-0.66,0l-1.69,0l-3.96,0l-1.38,0l-1.03,0l-0.66,0l-0.56,0l-0.56,0l-0.47,0l-0.36,0l-1.56,0l-0.16,0l-0.16,0l-0.16,0l-0.16,0l-0.16,0l-0.16,0l-0.16,0l-0.16,0l-0.16,0l-0.16,0l-0.16,0l-0.16,0l-0.16,0l-0.16,0l-0.16,0l-0.16,0l-0.16,0l-0.16,0l-0.16,0l-0.16,0l-0.16,0l-0.16,0l-0.16,0l-0.16,0l-0.16,0l-0.16,0l-0.16,0l-0.16,0l-0.16,0l-0.16,0l-0.16,0l-0.16,0l-0.16,0l-0.16,0l-0.16,0l-0.16,0l-0.16,0l-0.16,0l-0.16,0l-0.16,0l-0.16,0l0,-6.87c3.02,1.05 6.25,1.66 9.63,1.66c3.56,0.03 6.79,-0.58 9.82,-1.63zm-16.79,15.03l-0.16,0l-0.16,0l-0.16,0l-0.16,0l-0.16,0l-0.16,0l-0.16,0l-0.16,0l-0.16,0l-0.16,0l-0.16,0l-0.16,0l-0.16,0l-0.16,0l-0.16,0l-0.16,0l-0.16,0l-0.16,0l-0.16,0l-0.16,0l-0.16,0l-0.16,0l-0.16,0l-0.16,0l-0.16,0l-0.16,0l-0.16,0l-0.16,0l-0.16,0l-0.16,0l-0.16,0l-0.16,0l-0.16,0l-0.16,0l-0.16,0l-0.16,0l-0.16,0l-0.16,0l0,-6.03l2.38,0l21.39,0l2.38,0l0,0.16l0,0.16l0,0.16l0,0.16l0,0.16l0,0.16l0,0.16l0,0.16l0,0.16l0,0.16l0,0.16l0,0.16l0,0.16l0,0.16l0,0.16l0,0.16l0,0.09l0,0.16l0,0.16l0,0.16l0,0.16l0,0.16l0,0.16l0,0.16l0,0.16l0,0.16l0,0.16l0,0.16l0,0.16l0,0.16l0,0.16l0,0.16l0,0.16l0,0.16l0,0.16l0,0.16l0,0.16l0,0.16l0,0.11l-20.07,0l0,-0.09zm169.09,80.22l7.22,0l7.17,0l8.61,0l13.7,0l8.61,0l7.17,0l7.22,0l0,0.16l0,0.16l0,0.16l0,0.16l0,0.16l0,0.16l0,0.16l0,0.16l0,0.12l0,0.16l0,0.16l0,0.16l0,0.16l0,0.16l0,0.16l0,0.16l0,0.16l0,0.16l0,0.16l0,0.16l0,0.16l0,0.16l0,0.16l0,0.16l0,0.16l0,0.16l0,0.16l0,0.16l0,0.16l0,0.16l0,0.16l0,0.12l-54.86,0l-0.16,0l-0.16,0l-0.16,0l-0.16,0l-0.16,0l-0.16,0l-0.16,0l-0.16,0l-0.16,0l-0.16,0l-0.16,0l-0.16,0l-0.16,0l-0.16,0l-0.16,0l-0.16,0l-0.16,0l-0.16,0l-0.16,0l-0.16,0l-0.16,0l-0.16,0l-0.16,0l-0.16,0l-0.16,0l-0.16,0l-0.16,0l-0.16,0l-0.16,0l-0.16,0l-0.16,0l0,-5.04l0.12,0zm-1.07,7.09l61.76,0l68.47,8.82l-1.05,0l-1.05,0l-1.05,0l-1.05,0l-1.05,0l-1.05,0l-1.05,0l-1.05,0l-1.05,0l-1.05,0l-1.05,0l-1.05,0l-1.05,0l-1.05,0l-1.12,0l-1.05,0l-1.05,0l-1.05,0l-1.05,0l-1.05,0l-1.05,0l-1.05,0l-1.05,0l-1.05,0l-1.05,0l-1.05,0l-1.05,0l-1.05,0l-1.05,0l-1.05,0l-1.05,0l-1.05,0l-1.05,0l-1.05,0l-1.05,0l-1.05,0l-1.05,0l-1.05,0l-1.05,0l-1.05,0l-1.05,0l-99.44,0l-1.37,0l-1.37,0l-1.37,0l-1.37,0l-1.36,0l-1.37,0l-1.37,0l-1.37,0l-1.37,0l-1.37,0l-1.36,0l-1.37,0l-1.37,0l-1.37,0l-1.37,0l-1.37,0l-1.36,0l-1.37,0l-1.37,0l-1.37,0l-1.37,0l-1.36,0l-1.37,0l-1.37,0l-1.37,0l-1.37,0l-1.37,0l-1.36,0l-1.37,0l-1.37,0l-1.37,0l-1.37,0l-1.37,0l-1.36,0l-1.37,0l-1.37,0l-1.37,0l-1.37,0l-1.36,0l-1.36,0l-1.37,0l68.42,-8.82zm-77.71,18.8l-0.16,0l-0.16,0l-0.16,0l-0.16,0l-0.16,0l-0.16,0l-0.16,0l-0.16,0l-0.16,0l-0.16,0l-0.16,0l-0.16,0l-0.16,0l-0.16,0l-0.16,0l-0.16,0l-0.16,0l-0.16,0l-0.16,0l-0.16,0l-0.16,0l-0.16,0l-0.16,0l-0.16,0l-0.16,0l-0.16,0l-0.16,0l-0.16,0l-0.16,0l-0.16,0l-0.16,0l-0.16,0l-0.16,0l-0.16,0l-0.16,0l-0.16,0l-0.16,0l-0.16,0l-0.16,0l-0.16,0l0,-7.85l229.72,0l0,0.16l0,0.16l0,0.16l0,0.16l0,0.16l0,0.16l0,0.16l0,0.16l0,0.16l0,0.16l0,0.16l0,0.16l0,0.16l0,0.16l0,0.16l0,0.16l0,0.16l0,0.16l0,0.16l0,0.16l0,0.16l0,0.16l0,0.16l0,0.16l0,0.16l0,0.16l0,0.16l0,0.04l0,0.16l0,0.16l0,0.16l0,0.16l0,0.16l0,0.16l0,0.16l0,0.16l0,0.16l0,0.16l0,0.16l0,0.16l0,0.16l0,1.46l-7.31,0l-215.1,0l-0.92,0l0.01,0l0,-0.05zm108.62,6.44l-102.28,0l-0.16,0l-0.16,0l-0.16,0l-0.16,0l-0.16,0l-0.16,0l-0.16,0l-0.16,0l-0.16,0l-0.16,0l-0.16,0l-0.16,0l-0.16,0l-0.16,0l-0.16,0l-0.16,0l-0.16,0l-0.16,0l-0.16,0l-0.16,0l-0.16,0l-0.16,0l-0.16,0l-0.16,0l-0.16,0l-0.16,0l-0.16,0l0,-4.31l212.97,0l0,0.16l0,0.16l0,0.16l0,0.16l0,0.16l0,0.16l0,0.16l0,0.16l0,0.16l0,0.16l0,0.16l0,0.16l0,0.16l0,0.16l0,0.16l0,0.16l0,0.16l0,0.16l0,0.16l0,0.16l0,0.16l0,0.16l0,0.16l0,0.16l0,0.16l0,0.16l0,0.16l0,0.1l-106.37,0l0,-0.11zm106.49,2.13l0,0.16l0,0.16l0,0.16l0,0.16l0,0.16l0,0.16l0,0.16l0,0.16l0,0.16l0,0.16l0,0.16l0,0.16l0,0.16l0,0.16l0,0.16l0,0.16l0,0.16l0,0.16l0,0.16l0,0.16l0,0.16l0,0.16l0,0.16l0,0.16l0,0.16l0,0.16l0,0.16l0,0.1l-208.76,0l-0.16,0l-0.16,0l-0.16,0l-0.16,0l-0.16,0l-0.16,0l-0.16,0l-0.16,0l-0.16,0l-0.16,0l-0.16,0l-0.16,0l-0.16,0l-0.16,0l-0.16,0l-0.16,0l-0.16,0l-0.16,0l-0.16,0l-0.16,0l-0.16,0l-0.16,0l-0.16,0l-0.16,0l-0.16,0l-0.16,0l-0.16,0l0,-4.31l106.49,0l106.59,0l0,-0.11zm-164.24,46.79l0,0.16l0,0.16l0,0.16l0,0.16l0,0.16l0,0.16l0,0.16l0,0.16l0,0.16l0,0.16l0,0.16l0,0.16l0,0.16l0,0.16l0,0.16l0,0.16l0,0.16l0,0.16l0,0.16l0,0.16l0,0.16l0,0.16l0,0.16l0,0.16l0,0.16l0,0.16l0,0.16l0,0.16l0,0.16l0,0.16l0,0.16l0,0.16l0,0.16l0,0.16l0,0.16l0,0.16l0,0.16l0,0.16l0,0.16l0,0.16l0,63.79l-11.32,0l-0.16,0l-0.16,0l-0.16,0l-0.16,0l-0.16,0l-0.16,0l-0.16,0l-0.16,0l-0.16,0l-0.16,0l-0.16,0l-0.16,0l-0.16,0l-0.16,0l-0.16,0l-0.16,0l-0.16,0l-0.16,0l-0.16,0l-0.16,0l-0.16,0l-0.16,0l-0.16,0l-0.16,0l-0.16,0l-0.16,0l-0.16,0l-0.16,0l-0.16,0l-0.16,0l-0.16,0l-0.16,0l-0.16,0l-0.16,0l-0.16,0l-0.16,0l-0.16,0l-0.16,0l-0.16,0l-0.16,0l-0.16,0l0,-70.19l17.71,0l0,0l0.17,0zm39.32,0l0,0.16l0,0.16l0,0.16l0,0.16l0,0.16l0,0.16l0,0.16l0,0.16l0,0.16l0,0.16l0,0.16l0,0.16l0,0.16l0,0.16l0,0.16l0,0.16l0,0.16l0,0.16l0,0.16l0,0.16l0,0.16l0,0.16l0,0.16l0,0.16l0,0.16l0,0.16l0,0.16l0,0.16l0,0.16l0,0.16l0,0.16l0,0.16l0,0.16l0,0.16l0,0.16l0,0.16l0,0.16l0,0.16l0,0.16l0,0.16l0,63.79l-11.31,0l-0.16,0l-0.16,0l-0.16,0l-0.16,0l-0.16,0l-0.16,0l-0.16,0l-0.16,0l-0.16,0l-0.16,0l-0.16,0l-0.16,0l-0.16,0l-0.16,0l-0.16,0l-0.16,0l-0.16,0l-0.16,0l-0.16,0l-0.16,0l-0.16,0l-0.16,0l-0.16,0l-0.16,0l-0.16,0l-0.16,0l-0.16,0l-0.16,0l-0.16,0l-0.16,0l-0.16,0l-0.16,0l-0.16,0l-0.16,0l-0.16,0l-0.16,0l-0.16,0l-0.16,0l-0.16,0l-0.16,0l-0.16,0l0,-70.19l17.71,0l0,0l0.16,0zm54.57,0l0,0.16l0,0.16l0,0.16l0,0.16l0,0.16l0,0.16l0,0.16l0,0.16l0,0.16l0,0.16l0,0.16l0,0.16l0,0.16l0,0.16l0,0.16l0,0.16l0,0.16l0,0.16l0,0.16l0,0.16l0,0.16l0,0.16l0,0.16l0,0.16l0,0.16l0,0.16l0,0.16l0,0.16l0,0.16l0,0.16l0,0.16l0,0.16l0,0.16l0,0.16l0,0.16l0,0.16l0,0.16l0,0.16l0,0.16l0,0.16l0,63.79l-11.31,0l-0.16,0l-0.16,0l-0.16,0l-0.16,0l-0.16,0l-0.16,0l-0.16,0l-0.16,0l-0.16,0l-0.16,0l-0.16,0l-0.16,0l-0.16,0l-0.16,0l-0.16,0l-0.16,0l-0.16,0l-0.16,0l-0.16,0l-0.16,0l-0.16,0l-0.16,0l-0.16,0l-0.16,0l-0.16,0l-0.16,0l-0.16,0l-0.16,0l-0.16,0l-0.16,0l-0.16,0l-0.16,0l-0.16,0l-0.16,0l-0.16,0l-0.16,0l-0.16,0l-0.16,0l-0.16,0l-0.16,0l-0.16,0l0,-70.19l17.71,0l0,0l0.16,0zm39.32,0l0,0.16l0,0.16l0,0.16l0,0.16l0,0.16l0,0.16l0,0.16l0,0.16l0,0.16l0,0.16l0,0.16l0,0.16l0,0.16l0,0.16l0,0.16l0,0.16l0,0.16l0,0.16l0,0.16l0,0.16l0,0.16l0,0.16l0,0.16l0,0.16l0,0.16l0,0.16l0,0.16l0,0.16l0,0.16l0,0.16l0,0.16l0,0.16l0,0.16l0,0.16l0,0.16l0,0.16l0,0.16l0,0.16l0,0.16l0,0.16l0,63.79l-11.32,0l-0.16,0l-0.16,0l-0.16,0l-0.16,0l-0.16,0l-0.16,0l-0.16,0l-0.16,0l-0.16,0l-0.16,0l-0.16,0l-0.16,0l-0.16,0l-0.16,0l-0.16,0l-0.16,0l-0.16,0l-0.16,0l-0.16,0l-0.16,0l-0.16,0l-0.16,0l-0.16,0l-0.16,0l-0.16,0l-0.16,0l-0.16,0l-0.16,0l-0.16,0l-0.16,0l-0.16,0l-0.16,0l-0.16,0l-0.16,0l-0.16,0l-0.16,0l-0.16,0l-0.16,0l-0.16,0l-0.16,0l-0.16,0l0,-70.19l17.71,0l0,0l0.17,0zm14.09,-11.73l0,0.16l0,0.16l0,0.16l0,0.16l0,0.16l0,0.16l0,0.16l0,0.16l0,0.16l0,0.16l0,0.16l0,0.16l0,0.16l0,0.16l0,0.16l0,0.16l0,0.16l0,0.16l0,0.16l0,0.16l0,0.16l0,0.16l0,0.16l0,0.16l0,0.16l0,0.16l0,0.16l0,0.16l0,0.16l0,0.16l0,0.16l0,0.16l0,0.16l0,0.16l0,0.16l0,0.16l0,0.16l0,0.16l0,0.16l0,0.16l0,3.21l-13.03,0l-19.84,0l-19.48,0l-19.84,0l-34.74,0l-19.84,0l-19.48,0l-19.84,0l-6.63,0l-0.16,0l-0.16,0l-0.16,0l-0.16,0l-0.16,0l-0.16,0l-0.16,0l-0.16,0l-0.16,0l-0.16,0l-0.16,0l-0.16,0l-0.16,0l-0.16,0l-0.16,0l-0.16,0l-0.16,0l-0.16,0l-0.16,0l-0.16,0l-0.16,0l-0.16,0l-0.16,0l-0.16,0l-0.16,0l-0.16,0l-0.16,0l-0.16,0l-0.16,0l-0.16,0l-0.16,0l-0.16,0l-0.16,0l-0.16,0l-0.16,0l-0.16,0l-0.16,0l-0.16,0l-0.16,0l-0.16,0l-0.16,0l0,-9.6l179.09,0l0,-0.01l0.19,0zm25.31,-5.47l0,0.16l0,0.16l0,0.16l0,0.16l0,0.16l0,0.16l0,0.16l0,0.16l0,0.16l0,0.16l0,0.16l0,0.16l0,0.16l0,0.16l0,0.16l0,0.16l0,0.16l0,0.16l0,0.16l0,0.16l0,0.07l-24.24,0l-181.22,0l-20.97,0l-0.16,0l-0.16,0l-0.16,0l-0.16,0l-0.16,0l-0.16,0l-0.16,0l-0.16,0l-0.16,0l-0.16,0l-0.16,0l-0.16,0l-0.16,0l-0.16,0l-0.16,0l-0.16,0l-0.16,0l-0.16,0l-0.16,0l-0.16,0l-0.16,0l0,-3.34l14.08,0l201.56,0l14.08,0l0,0.07l0.07,0zm-229.72,-2.29l0,-6.58l13.01,0l0,0.16l0,0.16l0,0.16l0,0.16l0,0.16l0,0.16l0,0.16l0,0.16l0,0.16l0,0.16l0,0.16l0,0.16l0,0.16l0,0.16l0,0.16l0,0.16l0,0.16l0,0.16l0,0.16l0,0.16l0,0.16l0,0.16l0,0.16l0,0.16l0,0.16l0,0.16l0,0.16l0,0.16l0,0.16l0,0.16l0,0.16l0,0.16l0,0.16l0,0.16l0,0.16l0,0.16l0,0.16l0,0.16l0,0.16l0,0.16l0,0.16l0,0.19l-6.62,0l-0.16,0l-0.16,0l-0.16,0l-0.16,0l-0.16,0l-0.16,0l-0.16,0l-0.16,0l-0.16,0l-0.16,0l-0.16,0l-0.16,0l-0.16,0l-0.16,0l-0.16,0l-0.16,0l-0.16,0l-0.16,0l-0.16,0l-0.16,0l-0.16,0l-0.16,0l-0.16,0l-0.16,0l-0.16,0l-0.16,0l-0.16,0l-0.16,0l-0.16,0l-0.16,0l-0.16,0l-0.16,0l-0.16,0l-0.16,0l-0.16,0l-0.16,0l-0.16,0l-0.16,0l-0.16,0l-0.16,0l0.01,0l0,-0.17zm15.15,0l0,-6.58l199.43,0l0,0.16l0,0.16l0,0.16l0,0.16l0,0.16l0,0.16l0,0.16l0,0.16l0,0.16l0,0.16l0,0.16l0,0.16l0,0.16l0,0.16l0,0.16l0,0.16l0,0.16l0,0.16l0,0.16l0,0.16l0,0.16l0,0.16l0,0.16l0,0.16l0,0.16l0,0.16l0,0.16l0,0.16l0,0.16l0,0.16l0,0.16l0,0.16l0,0.16l0,0.16l0,0.16l0,0.16l0,0.16l0,0.16l0,0.16l0,0.16l0,0.16l0,0.19l-193.04,0l-0.16,0l-0.16,0l-0.16,0l-0.16,0l-0.16,0l-0.16,0l-0.16,0l-0.16,0l-0.16,0l-0.16,0l-0.16,0l-0.16,0l-0.16,0l-0.1,0l-0.16,0l-0.16,0l-0.16,0l-0.16,0l-0.16,0l-0.16,0l-0.16,0l-0.16,0l-0.16,0l-0.16,0l-0.16,0l-0.16,0l-0.16,0l-0.16,0l-0.16,0l-0.16,0l-0.16,0l-0.16,0l-0.16,0l-0.16,0l-0.16,0l-0.16,0l-0.16,0l-0.16,0l-0.16,0l-0.16,0l-0.05,0l0,-0.17zm214.57,-6.43l0,0.16l0,0.16l0,0.16l0,0.16l0,0.16l0,0.16l0,0.16l0,0.16l0,0.16l0,0.16l0,0.16l0,0.16l0,0.16l0,0.16l0,0.16l0,0.16l0,0.16l0,0.16l0,0.16l0,0.16l0,0.16l0,0.16l0,0.16l0,0.16l0,0.16l0,0.16l0,0.16l0,0.16l0,0.16l0,0.16l0,0.16l0,0.16l0,0.16l0,0.16l0,0.16l0,0.16l0,0.16l0,0.16l0,0.16l0,0.16l0,0.19l-6.62,0l-0.16,0l-0.16,0l-0.16,0l-0.16,0l-0.16,0l-0.16,0l-0.16,0l-0.16,0l-0.16,0l-0.16,0l-0.16,0l-0.16,0l-0.16,0l-0.16,0l-0.16,0l-0.16,0l-0.16,0l-0.16,0l-0.16,0l-0.16,0l-0.16,0l-0.16,0l-0.16,0l-0.16,0l-0.16,0l-0.16,0l-0.16,0l-0.16,0l-0.16,0l-0.16,0l-0.16,0l-0.16,0l-0.16,0l-0.16,0l-0.16,0l-0.16,0l-0.16,0l-0.16,0l-0.16,0l-0.16,0l-0.16,0l0,-6.58l13.01,0l0,-0.01l0.17,0zm0.56,-2.28l-14.64,0l-201.56,0l-13.54,0l-0.03,0l-0.03,0l-0.03,0l-0.03,0l-0.03,0l-0.03,0l0,0l-0.03,0l-0.03,0l-0.03,0l-0.03,0l-0.03,0l-0.03,0l-0.03,0l-0.03,0l-0.03,0l-0.03,0l-0.03,0l-0.03,0l-0.03,0l-0.03,0l-0.03,0l-0.03,0l-0.03,0l-0.03,0l-0.03,0l-0.03,0l-0.03,0l-0.03,0l-0.03,0l-0.03,0l-0.03,0l-0.03,0l-0.03,0l-0.03,0l-0.03,0l-0.03,0l-0.03,0l-0.03,0l-0.03,0l-0.03,0l-10.05,-12.15l17.92,0l215.1,0l17.92,0l-0.13,0.16l-0.13,0.16l-0.13,0.16l-0.13,0.16l-0.13,0.16l-0.13,0.16l-0.13,0.16l-0.13,0.16l-0.13,0.16l-0.13,0.16l-0.13,0.16l-0.13,0.16l-0.13,0.16l-0.13,0.16l-0.13,0.16l-0.13,0.16l-0.13,0.16l-0.13,0.16l-0.13,0.16l-0.13,0.16l-0.13,0.16l-0.13,0.16l-0.13,0.16l-0.13,0.16l-0.13,0.16l-0.13,0.16l-0.13,0.16l-0.13,0.16l-0.13,0.16l-0.13,0.16l-0.13,0.16l-0.13,0.16l-0.13,0.16l-0.13,0.16l-0.13,0.16l-0.13,0.16l-0.13,0.16l-0.13,0.16l-0.13,0.16l-0.13,0.16l-0.13,0.16l-4.62,5.59z" class="st0"/>
   </g>
   <g id="svg_15">
    <path id="svg_16" d="m1945.555758,497.758785l-236.08,0l0,2.13l237.14,0" class="st0"/>
   </g>
  </g>
  <g id="designed_by_freepik"/>
 </g>
</svg>