<svg xmlns="http://www.w3.org/2000/svg" xmlns:xlink="http://www.w3.org/1999/xlink" width="216" height="43" viewBox="0 0 216 43">
    <defs>
        <path id="a" d="M.581.45h25.517v28.072H.581z"/>
        <path id="c" d="M.581.45h25.517v28.072H.581z"/>
    </defs>
    <g fill="none" fill-rule="evenodd">
        <path fill="#181818" d="M0 35.674h9.122c2.08 0 3.965-.32 5.656-.958 1.69-.64 3.1-1.534 4.23-2.686 1.128-1.151 2-2.534 2.616-4.15.615-1.616.923-3.388.923-5.317 0-1.928-.32-3.707-.96-5.335-.638-1.627-1.537-3.02-2.696-4.177-1.16-1.158-2.587-2.061-4.284-2.712-1.696-.651-3.56-.977-5.592-.977H0v26.312zm6.04-5.515V14.896h3.118c1.315 0 2.51.332 3.586.995 1.075.662 1.914 1.58 2.518 2.748.602 1.17.904 2.477.904 3.924 0 .844-.113 1.652-.34 2.423a7.208 7.208 0 0 1-2.527 3.717 6.743 6.743 0 0 1-2.061 1.076 8 8 0 0 1-2.492.38H6.04zm35.147 5.515h6.417l-9.59-26.312h-5.878l-9.553 26.312H29l1.505-4.702h9.159l1.523 4.702zm-8.997-9.946l2.85-8.88h.071l2.868 8.88h-5.79zm17.85 9.946h6.04v-8.481h3.406c1.984 0 3.698-.317 5.145-.95 1.445-.632 2.575-1.612 3.387-2.938.813-1.327 1.218-2.948 1.218-4.865 0-1.326-.185-2.535-.555-3.625a8.1 8.1 0 0 0-1.667-2.867c-.74-.82-1.712-1.455-2.912-1.908-1.201-.452-2.584-.678-4.15-.678h-9.911v26.312zm6.04-13.924V14.84h2.671c1.34 0 2.36.32 3.065.959.706.639 1.058 1.471 1.058 2.495 0 1.085-.368 1.932-1.103 2.542-.734.608-1.77.913-3.109.913h-2.581zm16.293 13.924h6.04v-8.481h3.405c1.984 0 3.699-.317 5.145-.95 1.445-.632 2.575-1.612 3.387-2.938.812-1.327 1.219-2.948 1.219-4.865 0-1.326-.186-2.535-.556-3.625a8.1 8.1 0 0 0-1.667-2.867c-.74-.82-1.711-1.455-2.913-1.908-1.2-.452-2.583-.678-4.148-.678h-9.912v26.312zm6.04-13.924V14.84h2.67c1.34 0 2.36.32 3.065.959.705.639 1.058 1.471 1.058 2.495 0 1.085-.368 1.932-1.103 2.542-.734.608-1.77.913-3.109.913h-2.581zM107.18 36c2.199 0 4.2-.461 6.004-1.384 1.804-.922 3.304-2.137 4.498-3.644l-4.498-3.887a8.073 8.073 0 0 1-2.68 2.178 7.19 7.19 0 0 1-3.324.823c-1.375 0-2.599-.334-3.674-1.003a6.618 6.618 0 0 1-2.465-2.704c-.567-1.133-.851-2.393-.851-3.78 0-.795.084-1.546.25-2.251a7.67 7.67 0 0 1 .709-1.9 6.91 6.91 0 0 1 1.102-1.508c.43-.447.902-.818 1.416-1.113a6.767 6.767 0 0 1 1.666-.678 7.258 7.258 0 0 1 1.847-.235 6.78 6.78 0 0 1 3.36.877 9.39 9.39 0 0 1 2.644 2.16l4.498-3.869a13.567 13.567 0 0 0-3.217-2.885c-1.212-.777-2.423-1.338-3.63-1.681A13.294 13.294 0 0 0 107.18 9c-1.685 0-3.248.23-4.688.688-1.44.457-2.69 1.103-3.754 1.934a12.579 12.579 0 0 0-2.724 2.939 12.836 12.836 0 0 0-1.694 3.734 16.103 16.103 0 0 0-.565 4.305c0 1.7.236 3.275.708 4.728.472 1.453 1.123 2.707 1.954 3.762a12.41 12.41 0 0 0 2.93 2.694 12.845 12.845 0 0 0 3.675 1.664c1.326.368 2.712.552 4.158.552zm56.69-26.638v16.167h-.072L153.744 9.362h-6.148v26.312h6.112V19.905h.071l9.894 15.77H170V9.361h-6.13z"/>
        <g transform="translate(118)">
            <mask id="b" fill="#fff">
                <use xlink:href="#a"/>
            </mask>
            <path fill="#181818" d="M.581 21.123c.102-.082.152-.206.21-.305.742-1.204 1.483-2.4 2.223-3.604.985-1.599 1.97-3.191 2.955-4.79.573-.924 1.145-1.856 1.71-2.78 1-1.632 2.012-3.257 3.013-4.89.547-.882 1.086-1.773 1.633-2.656.32-.519.64-1.03.96-1.55.076-.132.093-.132.168 0 .362.586.724 1.18 1.087 1.765 1.178 1.921 2.365 3.843 3.544 5.773l2.298 3.735c1.153 1.88 2.307 3.76 3.468 5.64a734.612 734.612 0 0 1 2.189 3.563c.008.017.016.025.026.041.05.1.05.108-.043.165-.27.157-.53.314-.8.462-1.843 1.064-3.687 2.136-5.53 3.2-1.726.998-3.452 1.996-5.186 3.002-.337.197-.674.387-1.01.585-.093.057-.169.057-.27 0-1.675-.973-3.358-1.955-5.034-2.928-1.348-.783-2.694-1.558-4.041-2.342-1.128-.651-2.256-1.302-3.384-1.962-.059-.033-.119-.074-.186-.082v-.042z" mask="url(#b)"/>
        </g>
        <path fill="#181818" d="M119 25c.058 0 .1.033.149.06.651.395 1.303.791 1.956 1.18 1.287.775 2.575 1.55 3.862 2.335.685.413 1.378.834 2.063 1.248 1.33.8 2.658 1.602 3.986 2.402.124.076.257.144.372.228.083.06.148.06.239 0 .603-.37 1.205-.734 1.808-1.096 1.568-.944 3.128-1.888 4.696-2.832l3.812-2.303c.644-.387 1.296-.775 1.94-1.163.033-.017.066-.059.116-.042.008.05-.026.076-.042.1-.965 1.392-1.939 2.783-2.905 4.175-.9 1.29-1.791 2.58-2.682 3.86a621.161 621.161 0 0 0-2.642 3.803c-.857 1.232-1.707 2.462-2.566 3.685-.511.733-1.023 1.467-1.535 2.209l-.099.151h-.025a.646.646 0 0 0-.124-.202c-.33-.472-.66-.952-.99-1.425l-1.758-2.53c-.578-.833-1.155-1.668-1.733-2.503l-1.56-2.252-1.865-2.688c-.445-.642-.891-1.283-1.337-1.931-.512-.734-1.015-1.468-1.527-2.2l-1.51-2.176c-.025-.034-.041-.076-.09-.085-.009.009-.009 0-.009-.008"/>
        <g transform="translate(118)">
            <mask id="d" fill="#fff">
                <use xlink:href="#c"/>
            </mask>
            <path fill="#181818" d="M.581 21.123c.102-.082.152-.206.21-.305.742-1.204 1.483-2.4 2.223-3.604.985-1.599 1.97-3.191 2.955-4.79.573-.924 1.145-1.856 1.71-2.78 1-1.632 2.012-3.257 3.013-4.89.547-.882 1.086-1.773 1.633-2.656.32-.519.64-1.03.96-1.55.076-.132.093-.132.168 0 .362.586.724 1.18 1.087 1.765 1.178 1.921 2.365 3.843 3.544 5.773l2.298 3.735c1.153 1.88 2.307 3.76 3.468 5.64a734.612 734.612 0 0 1 2.189 3.563c.008.017.016.025.026.041.05.1.05.108-.043.165-.27.157-.53.314-.8.462-1.843 1.064-3.687 2.136-5.53 3.2-1.726.998-3.452 1.996-5.186 3.002-.337.197-.674.387-1.01.585-.093.057-.169.057-.27 0-1.675-.973-3.358-1.955-5.034-2.928-1.348-.783-2.694-1.558-4.041-2.342-1.128-.651-2.256-1.302-3.384-1.962-.059-.033-.119-.074-.186-.082v-.042z" mask="url(#d)"/>
        </g>
        <path fill="#181818" d="M119 25c.058 0 .1.033.149.06.651.395 1.303.791 1.956 1.18 1.287.775 2.575 1.55 3.862 2.335.685.413 1.378.834 2.063 1.248 1.33.8 2.658 1.602 3.986 2.402.124.076.257.144.372.228.083.06.148.06.239 0 .603-.37 1.205-.734 1.808-1.096 1.568-.944 3.128-1.888 4.696-2.832l3.812-2.303c.644-.387 1.296-.775 1.94-1.163.033-.017.066-.059.116-.042.008.05-.026.076-.042.1-.965 1.392-1.939 2.783-2.905 4.175-.9 1.29-1.791 2.58-2.682 3.86a621.161 621.161 0 0 0-2.642 3.803c-.857 1.232-1.707 2.462-2.566 3.685-.511.733-1.023 1.467-1.535 2.209l-.099.151h-.025a.646.646 0 0 0-.124-.202c-.33-.472-.66-.952-.99-1.425l-1.758-2.53c-.578-.833-1.155-1.668-1.733-2.503l-1.56-2.252-1.865-2.688c-.445-.642-.891-1.283-1.337-1.931-.512-.734-1.015-1.468-1.527-2.2l-1.51-2.176c-.025-.034-.041-.076-.09-.085-.009.009-.009 0-.009-.008M188.86 29.331V8.361h-4.956L175 14.25l2.974 4.699 4.601-3.031V29.33h-5.237v5.665h15.955V29.33h-4.433zM206.31 8c-1.77 0-3.375.37-4.815 1.108a8.512 8.512 0 0 0-3.433 3.183c-.847 1.384-1.272 2.958-1.272 4.727 0 1.35.215 2.576.646 3.675.43 1.099 1.01 2.001 1.74 2.709a7.685 7.685 0 0 0 2.506 1.629 7.911 7.911 0 0 0 2.983.569c1.57 0 3.024-.354 4.358-1.062-.699 1.58-1.777 2.896-3.236 3.95-1.458 1.055-3.38 1.923-5.76 2.606L201.728 36c2.182-.417 4.17-1.162 5.966-2.235 1.796-1.074 3.299-2.363 4.508-3.866a16.99 16.99 0 0 0 2.806-5.086c.66-1.888.991-3.855.991-5.901 0-2.147-.402-4.047-1.206-5.702-.805-1.654-1.943-2.936-3.414-3.845-1.472-.91-3.161-1.365-5.07-1.365zm-3.572 9.17c0-1.061.343-1.93 1.029-2.606.686-.676 1.559-1.013 2.62-1.013 1.059 0 1.947.442 2.664 1.326.717.884 1.076 2.052 1.076 3.505v.189a5.882 5.882 0 0 1-1.814 1.393 4.787 4.787 0 0 1-2.152.521c-.673 0-1.265-.13-1.777-.39a2.867 2.867 0 0 1-1.206-1.145c-.293-.505-.44-1.098-.44-1.78z"/>
    </g>
</svg>
