<svg xmlns="http://www.w3.org/2000/svg" width="42" height="42" viewBox="0 0 42 42">
    <g fill="none" fill-rule="evenodd">
        <path fill="#ECECEC" d="M21.001-.021c11.597 0 20.999 9.4 20.999 21 0 11.597-9.402 21-20.999 21C9.402 41.979 0 32.576 0 20.979c0-11.6 9.402-21 21.001-21zm5.049 10.5c-2.974 0-5.386 2.374-5.386 5.301 0 .416.049.82.14 1.208a15.367 15.367 0 0 1-11.1-5.539 5.218 5.218 0 0 0-.73 2.665 5.28 5.28 0 0 0 2.396 4.412 5.427 5.427 0 0 1-2.44-.662v.066c0 2.568 1.857 4.711 4.322 5.2a5.504 5.504 0 0 1-2.434.09c.688 2.106 2.675 3.639 5.03 3.682a10.913 10.913 0 0 1-6.688 2.27c-.436 0-.863-.026-1.285-.075a15.431 15.431 0 0 0 8.256 2.382c9.906 0 15.322-8.078 15.322-15.084 0-.23-.003-.46-.014-.686a10.823 10.823 0 0 0 2.686-2.745 10.84 10.84 0 0 1-3.092.835 5.332 5.332 0 0 0 2.368-2.933 10.886 10.886 0 0 1-3.421 1.288 5.412 5.412 0 0 0-3.93-1.675z"/>
    </g>
</svg>
