<svg xmlns="http://www.w3.org/2000/svg" xmlns:xlink="http://www.w3.org/1999/xlink" width="65" height="27" viewBox="0 0 65 27">
    <defs>
        <path id="a" d="M0 0h65v27H0z"/>
    </defs>
    <g fill="none" fill-rule="evenodd">
        <mask id="b" fill="#fff">
            <use xlink:href="#a"/>
        </mask>
        <path fill="#000" d="M59.425 11.746l.103 1.821 1.578-1.102c-.634-.27-1.043-.446-1.681-.719M46.909 27c-.097-.155-.13-.187-.139-.224-1.076-4.327-1.07-4.317 2.69-6.666 1.825-1.14 3.625-2.322 5.432-3.49.053-.035.064-.133.161-.354-18.26-.82-36.428-2.289-54.758-2.552C-.428 11.246.083 9.996 2.9 9.59c3.464-.5 6.996-.659 10.503-.704 5.177-.068 10.36-.012 15.534.182 8.36.313 16.714.783 25.071 1.183.355.017.712.002 1.329.002-4.423-1.841-8.605-3.592-12.797-5.32-.673-.278-1.792-.276-1.995-.724-.38-.84-.257-1.915-.31-2.894-.02-.36.055-.726.107-1.314 2.278.703 4.463 1.316 6.606 2.053a555.814 555.814 0 0 1 12.738 4.528c1.425.53 2.778 1.275 4.109 2.02.417.234.818.742.948 1.203.778 2.754-.247 5.815-2.585 7.449-2.815 1.968-5.69 3.854-8.582 5.707-2.188 1.403-4.445 2.699-6.667 4.04" mask="url(#b)"/>
    </g>
</svg>
