<svg xmlns="http://www.w3.org/2000/svg" xmlns:xlink="http://www.w3.org/1999/xlink" width="69" height="35" viewBox="0 0 69 35">
    <defs>
        <path id="a" d="M0 .005h24.997V26H0z"/>
    </defs>
    <g fill="none" fill-rule="evenodd">
        <path fill="#000" d="M10.063 17.535c-.368-2.251.202-2.991 1.676-3.39 9.758-2.642 19.592-3.761 29.501-3.833 8.002-.059 15.922.694 23.773 2.085 2.93.52 2.742-.127 2.361 3.718-.083.839-.202 1.675-.345 2.84-19.06-1.702-38.01-2.012-56.966-1.42"/>
        <g transform="rotate(7 -2.85 32.85)">
            <mask id="b" fill="#fff">
                <use xlink:href="#a"/>
            </mask>
            <path fill="#000" d="M3.587 20.13c1.77 0 3.36-.064 4.948.011 4.917.235 9.833.532 14.75.781 1.238.063 1.838.696 1.69 2.182a7.302 7.302 0 0 0 0 1.273c.094 1.214-.295 1.678-1.404 1.618-3.42-.187-6.843-.269-10.266-.37-3.969-.117-7.939-.254-11.909-.287C.389 25.329.07 24.993.014 23.82c-.09-1.894.251-3.46 1.358-4.956C5 13.96 8.484 8.91 12.122 4.016c1.116-1.501 2.548-2.683 3.836-4.011l.383.285c-.219.61-.335 1.313-.671 1.817C11.983 7.646 8.262 13.154 4.55 18.671c-.302.45-.598.905-.964 1.459" mask="url(#b)"/>
        </g>
    </g>
</svg>
